<svg xmlns="http://www.w3.org/2000/svg" xmlns:xlink="http://www.w3.org/1999/xlink" width="1040px" height="823px" viewBox="0 0 1039.9273750784141 823.1604405404032">
    <g id="f7330451-ee71-4188-b2af-2425debb71da">
<g style="">
		<g id="f7330451-ee71-4188-b2af-2425debb71da-child-0">
<path style="stroke: rgb(193,193,193); stroke-width: 0; stroke-dasharray: none; stroke-linecap: butt; stroke-dashoffset: 0; stroke-linejoin: miter; stroke-miterlimit: 4; fill: rgb(81,50,40); fill-rule: nonzero; opacity: 1;" transform="matrix(1.42611 0 0 1.42611 519.96353 411.580096) matrix(1 0 0 1 -42.722001 -47.242792)  translate(-452.865317, -464.040539)" d="M 429.88 440.69 C 428.22 440.88 427.09 441.00 426.90 441.00 C 426.54 441.00 426.04 443.51 425.79 446.57 C 425.16 454.15 421.77 457.61 413.43 459.16 C 407.97 460.17 407.07 460.08 403.10 458.05 C 399.65 456.29 398.33 454.82 396.68 450.92 C 395.54 448.21 394.17 446.00 393.63 446.00 C 393.09 446.00 392.28 446.26 391.23 446.74 C 393.46 445.28 395.00 443.94 395.00 443.37 C 395.00 439.80 399.14 433.97 402.77 432.42 C 410.54 429.10 421.48 431.92 423.94 437.87 C 424.44 439.06 424.71 439.84 425.25 440.31 C 425.96 440.91 427.13 440.97 429.88 440.69 Z M 578.61 431.00 L 578.60 431.00 C 576.37 431.00 576.00 431.43 576.00 434.04 C 576.00 438.40 572.63 444.39 569.33 445.90 C 567.77 446.61 564.25 447.40 561.50 447.66 C 552.85 448.46 546.41 443.46 545.28 435.08 L 544.71 430.83 L 538.11 431.39 C 534.47 431.70 526.78 432.22 521.00 432.55 C 520.54 432.58 520.06 432.61 519.56 432.64 C 520.35 432.59 521.12 432.54 521.89 432.49 C 543.96 431.03 545.94 430.61 545.98 427.44 C 546.01 425.66 551.29 421.34 554.90 420.14 C 563.27 417.34 570.88 420.15 574.26 427.29 C 575.62 430.17 576.60 431.00 578.61 431.00 Z M 346.18 481.83 C 345.06 482.90 343.96 483.96 342.90 485.00 C 328.76 498.97 326.73 501.80 327.19 509.01 C 326.95 505.39 327.32 503.27 328.50 500.94 C 330.29 497.41 337.33 490.04 346.18 481.83 Z M 499.52 434.11 C 476.77 435.92 446.62 438.66 435.53 440.02 C 448.40 438.44 475.05 436.01 499.52 434.11 Z" stroke-linecap="round"/>
</g>
		<g id="f7330451-ee71-4188-b2af-2425debb71da-child-1">
<path style="stroke: rgb(193,193,193); stroke-width: 0; stroke-dasharray: none; stroke-linecap: butt; stroke-dashoffset: 0; stroke-linejoin: miter; stroke-miterlimit: 4; fill: rgb(227,72,12); fill-rule: nonzero; opacity: 1;" transform="matrix(1.42611 0 0 1.42611 519.96353 411.580096) matrix(1 0 0 1 0 0)  translate(-495.587318, -511.28333)" d="M 342.66 798.43 C 319.08 795.98 315.14 794.89 305.25 788.12 C 291.48 778.68 282.61 771.59 281.26 768.94 C 279.74 765.94 279.63 749.87 281.04 737.55 C 282.29 726.65 282.87 725.80 298.41 711.99 C 322.28 690.79 318.88 692.49 356.50 682.98 C 376.23 677.99 381.78 676.13 395.50 669.94 C 404.30 665.97 411.85 662.42 412.27 662.04 C 412.70 661.66 410.86 659.51 408.19 657.26 L 403.33 653.16 L 386.42 658.13 L 369.50 663.09 L 348.50 664.05 C 315.00 665.59 311.29 666.17 282.79 674.35 C 254.34 682.52 255.11 682.13 229.40 701.07 C 218.73 708.93 219.26 707.50 218.36 731.00 L 217.78 746.50 L 230.35 761.45 C 237.27 769.68 242.76 776.57 242.55 776.78 C 242.06 777.27 231.15 772.38 223.48 768.23 C 217.06 764.75 202.01 752.48 199.53 748.69 C 197.57 745.70 194.06 725.20 193.31 712.34 L 192.71 702.18 L 195.71 698.54 C 199.05 694.48 220.58 674.92 231.73 665.81 C 240.71 658.48 242.60 657.65 268.51 649.67 L 289.51 643.20 L 322.21 641.58 C 349.44 640.23 356.78 639.54 366.20 637.44 C 372.41 636.05 378.25 634.69 379.16 634.42 C 382.03 633.56 372.05 625.00 368.18 625.00 C 364.43 625.00 346.23 627.58 336.50 629.49 C 328.29 631.10 297.22 633.95 285.00 634.21 C 278.96 634.34 273.03 633.63 264.50 631.76 C 255.99 629.90 248.23 628.97 237.83 628.57 C 221.44 627.94 223.81 628.60 189.00 614.97 C 167.88 606.69 166.81 605.88 154.74 588.97 C 145.04 575.37 142.59 569.73 137.59 549.50 C 127.54 508.77 127.87 508.37 146.20 539.00 C 154.26 552.47 162.13 564.69 163.68 566.13 C 165.23 567.58 172.64 573.48 180.15 579.23 L 193.80 589.69 L 206.15 592.93 C 212.94 594.72 228.85 599.02 241.50 602.50 L 264.50 608.83 L 296.50 606.88 C 325.90 605.09 329.40 604.68 339.50 601.84 C 345.55 600.15 350.89 598.40 351.37 597.96 C 351.84 597.52 351.47 595.17 350.52 592.70 L 348.81 588.22 L 343.16 589.56 C 340.05 590.30 331.67 592.12 324.54 593.61 C 311.81 596.28 311.32 596.30 298.04 595.08 C 260.19 591.58 253.92 589.97 227.50 576.98 C 195.28 561.13 197.13 562.61 189.32 546.23 C 185.72 538.68 180.34 526.94 177.35 520.13 C 171.50 506.79 171.08 504.47 169.49 476.50 C 169.15 470.45 168.00 461.14 166.93 455.81 C 165.87 450.48 165.00 444.54 165.00 442.61 C 165.00 438.58 167.78 416.42 168.63 413.65 C 168.94 412.63 173.63 406.33 179.05 399.65 C 193.17 382.23 195.60 379.54 196.24 380.58 C 196.56 381.10 194.13 389.61 190.84 399.51 L 184.86 417.50 L 186.54 436.50 C 188.13 454.47 188.57 456.72 194.72 478.00 C 201.58 501.78 201.93 502.56 216.17 525.69 L 223.06 536.88 L 242.28 547.24 C 252.85 552.94 263.30 558.34 265.50 559.24 C 268.64 560.53 274.69 561.02 293.50 561.51 C 315.79 562.10 318.21 561.99 327.50 559.97 C 333.00 558.77 337.80 557.61 338.16 557.40 C 338.52 557.18 338.59 556.14 338.32 555.10 C 337.66 552.60 323.94 546.59 297.00 536.99 C 295.08 536.30 285.85 530.96 276.50 525.12 C 260.38 515.05 259.26 514.15 254.93 507.67 C 252.42 503.92 247.92 496.27 244.93 490.67 L 239.50 480.50 L 239.59 465.50 C 239.75 438.63 239.60 439.04 256.81 418.94 L 266.70 407.38 L 267.27 384.94 C 267.70 368.05 268.26 361.14 269.53 357.00 C 271.84 349.45 285.76 318.98 290.97 310.05 L 295.23 302.75 L 306.37 297.50 C 320.45 290.86 331.98 286.10 343.75 282.08 C 352.48 279.09 353.34 278.97 359.25 280.02 C 380.64 283.84 423.00 296.50 423.00 299.08 C 423.00 300.23 406.15 308.75 379.77 320.93 L 359.03 330.50 L 338.50 353.00 C 314.72 379.06 314.78 376.83 337.89 375.11 C 354.20 373.90 353.77 374.06 388.72 356.38 L 412.93 344.13 L 410.59 350.35 C 406.74 360.58 403.24 366.72 393.75 379.94 C 383.09 394.76 377.64 401.65 374.09 404.79 C 370.34 408.09 352.46 419.24 341.64 425.03 C 332.36 429.99 332.31 430.00 322.92 429.98 C 317.74 429.97 308.55 429.30 302.50 428.49 C 296.45 427.68 291.19 427.01 290.81 427.01 C 290.44 427.00 291.00 430.14 292.06 433.99 C 293.65 439.72 294.02 444.44 294.08 460.24 C 294.13 470.83 294.50 482.17 294.91 485.43 C 295.56 490.65 296.11 491.76 299.57 494.80 C 303.70 498.43 326.80 516.00 327.44 516.00 C 327.64 516.00 327.57 513.38 327.28 510.19 C 326.55 502.07 328.01 499.70 342.90 485.00 C 360.36 467.76 388.67 446.00 393.63 446.00 C 394.17 446.00 395.54 448.21 396.68 450.92 C 398.33 454.82 399.65 456.29 403.10 458.05 C 407.07 460.08 407.97 460.17 413.43 459.16 C 421.77 457.61 425.16 454.15 425.79 446.57 C 426.04 443.51 426.54 441.00 426.90 441.00 C 427.26 441.00 431.14 440.56 435.53 440.02 C 450.89 438.14 502.79 433.60 521.00 432.55 C 526.78 432.22 534.47 431.70 538.11 431.39 L 544.71 430.83 L 545.28 435.08 C 546.41 443.46 552.85 448.46 561.50 447.66 C 564.25 447.40 567.77 446.61 569.33 445.90 C 572.63 444.39 576.00 438.40 576.00 434.04 C 576.00 431.43 576.37 431.00 578.60 431.00 C 588.10 431.00 644.23 456.86 661.73 469.31 L 665.97 472.31 L 668.23 469.42 C 669.48 467.83 673.68 462.92 677.56 458.51 C 685.77 449.19 695.88 436.71 698.47 432.71 C 700.75 429.20 700.34 424.05 695.50 395.28 C 692.67 378.46 692.12 373.05 692.63 366.88 L 693.27 359.26 L 681.38 362.69 C 666.33 367.03 656.62 369.12 651.39 369.14 C 646.54 369.17 630.90 363.33 613.42 354.96 L 601.34 349.17 L 586.06 333.34 C 572.00 318.77 563.98 308.73 559.57 300.16 C 558.63 298.32 558.06 296.61 558.31 296.36 C 558.56 296.10 567.71 299.02 578.63 302.83 C 613.59 315.04 617.99 316.33 625.00 316.40 C 634.94 316.51 655.00 314.90 655.00 314.00 C 655.00 313.55 644.58 304.54 631.85 293.96 L 608.70 274.73 L 586.10 267.96 C 565.84 261.89 551.90 257.34 543.67 254.10 C 542.11 253.49 541.02 252.43 541.24 251.74 C 541.99 249.46 574.86 234.37 595.24 226.96 L 606.98 222.68 L 615.74 224.38 C 626.47 226.47 646.23 231.36 655.00 234.10 C 667.59 238.04 668.68 238.78 675.45 248.01 C 681.33 256.02 692.97 274.09 699.39 285.17 C 702.17 289.97 705.28 302.87 708.57 323.31 L 710.31 334.11 L 722.41 344.45 C 743.14 362.19 743.57 362.74 746.92 376.05 C 751.84 395.65 753.33 406.44 751.92 412.38 C 749.60 422.18 741.86 443.53 739.24 447.34 C 734.94 453.60 710.06 476.94 702.50 481.80 C 698.65 484.27 690.49 489.83 684.36 494.14 C 674.86 500.84 673.16 502.45 672.77 505.13 L 672.31 508.28 L 680.90 507.66 C 689.68 507.03 699.37 504.18 727.32 493.98 L 739.15 489.67 L 756.41 471.76 L 773.67 453.84 L 778.47 433.91 L 783.28 413.98 L 782.59 390.24 C 781.97 368.59 781.59 364.88 778.27 348.08 L 774.64 329.66 L 767.13 319.58 C 756.84 305.78 752.00 298.82 752.00 297.83 C 752.00 295.68 756.06 297.82 771.43 308.07 C 789.59 320.19 788.31 318.72 796.18 336.50 C 800.31 345.81 801.22 349.03 802.12 357.50 C 802.71 363.00 805.28 375.60 807.82 385.50 C 811.94 401.53 812.44 404.65 812.39 414.00 C 812.32 423.90 809.33 450.52 806.85 463.30 C 805.47 470.38 803.51 472.69 779.28 495.64 L 761.91 512.10 L 743.70 520.91 C 710.22 537.13 710.15 537.16 689.15 539.06 C 676.01 540.25 670.54 541.12 669.91 542.11 C 669.43 542.87 669.02 545.30 669.01 547.50 L 669.00 551.50 L 682.25 550.93 C 694.51 550.41 697.75 549.79 725.63 542.70 L 755.76 535.05 L 777.63 520.89 C 789.66 513.11 803.47 504.23 808.31 501.16 C 816.80 495.79 817.49 495.07 826.96 481.54 C 832.37 473.82 837.74 465.89 838.89 463.92 C 840.08 461.90 843.56 449.32 846.92 434.92 C 853.15 408.18 854.31 404.08 855.24 405.58 C 856.25 407.22 857.95 425.06 858.95 444.64 C 860.04 465.90 860.06 465.77 852.69 487.51 C 847.86 501.75 846.41 504.09 838.00 511.18 C 830.28 517.70 809.21 534.58 803.00 539.23 C 801.08 540.67 793.20 544.00 785.50 546.63 C 777.80 549.25 768.24 553.33 764.25 555.68 C 751.38 563.29 747.42 564.89 732.84 568.38 C 711.33 573.52 704.87 574.79 689.00 577.01 C 664.81 580.40 664.21 580.57 663.12 584.54 C 662.60 586.41 661.18 589.35 659.96 591.06 L 657.74 594.18 L 663.37 593.59 C 666.47 593.26 671.59 592.74 674.75 592.42 C 677.91 592.10 694.00 588.19 710.50 583.74 L 740.50 575.64 L 767.50 575.57 C 798.13 575.49 793.98 574.67 818.74 585.65 C 839.88 595.03 850.77 600.72 852.41 603.25 C 854.36 606.27 859.00 630.43 859.66 641.00 L 860.19 649.50 L 854.85 658.50 C 851.20 664.65 846.33 670.75 839.48 677.75 C 833.97 683.39 828.93 688.00 828.27 688.00 C 827.58 688.00 829.38 682.52 832.64 674.75 C 841.21 654.31 841.63 652.79 840.14 647.22 C 839.45 644.62 836.62 636.75 833.85 629.73 C 829.85 619.56 828.29 616.68 826.16 615.59 C 824.70 614.84 814.54 611.47 803.59 608.10 C 787.64 603.19 782.77 602.07 779.09 602.46 C 776.57 602.73 763.83 603.21 750.78 603.54 C 724.66 604.19 728.42 603.53 682.70 615.41 C 669.61 618.81 668.05 619.00 652.66 619.00 L 636.42 619.00 L 631.52 623.98 C 628.83 626.71 626.88 629.21 627.20 629.53 C 627.51 629.84 637.16 631.24 648.63 632.62 C 667.64 634.91 670.79 635.04 684.00 634.10 C 691.97 633.53 704.80 632.77 712.50 632.41 L 726.50 631.76 L 736.00 635.47 C 751.26 641.42 773.75 652.69 775.40 655.22 C 777.75 658.81 785.03 677.78 787.02 685.50 L 788.83 692.50 L 786.26 697.00 C 783.48 701.87 768.63 721.99 764.91 725.91 C 761.20 729.82 726.63 745.71 723.85 744.78 C 723.22 744.57 727.38 740.17 733.10 735.00 C 738.82 729.84 744.33 724.46 745.34 723.05 C 748.76 718.28 758.99 696.51 758.98 694.00 C 758.97 690.65 755.75 685.22 746.64 673.19 C 738.65 662.64 738.45 662.50 730.50 661.55 C 713.56 659.54 698.25 659.23 680.34 660.55 C 669.98 661.32 658.07 661.96 653.89 661.97 C 645.58 662.00 615.09 656.95 608.22 654.40 L 603.93 652.81 L 596.69 659.65 C 590.40 665.59 587.59 667.35 575.47 672.89 C 559.18 680.34 541.62 687.16 531.00 690.14 C 525.26 691.75 521.86 692.12 516.50 691.70 C 508.41 691.06 479.75 685.38 459.61 680.42 C 443.87 676.54 443.25 676.48 441.08 678.40 C 440.21 679.17 431.72 683.94 422.21 688.99 L 404.92 698.18 L 382.71 703.60 C 370.49 706.58 358.92 709.51 357.00 710.11 C 347.02 713.24 322.31 723.60 320.48 725.42 C 318.09 727.82 309.00 754.18 309.00 758.75 C 309.00 761.06 310.71 763.72 316.40 770.22 C 327.24 782.62 331.16 785.60 344.93 791.90 C 351.77 795.04 357.55 798.14 357.77 798.80 C 357.99 799.46 357.57 799.95 356.83 799.88 C 356.10 799.82 349.72 799.16 342.66 798.43 Z" stroke-linecap="round"/>
</g>
</g>
</g>

  </svg>