<svg xmlns="http://www.w3.org/2000/svg" xmlns:xlink="http://www.w3.org/1999/xlink" width="1033px" height="980px" viewBox="0 0 1033.2749254536084 980.7371142556476">
    <g id="f4b3cd5e-189c-412c-ab36-9d97c3d0d486">
<g style="">
		<g id="f4b3cd5e-189c-412c-ab36-9d97c3d0d486-child-0">
<path style="stroke: rgb(193,193,193); stroke-width: 0; stroke-dasharray: none; stroke-linecap: butt; stroke-dashoffset: 0; stroke-linejoin: miter; stroke-miterlimit: 4; fill: rgb(81,50,40); fill-rule: nonzero; opacity: 1;" transform="matrix(1.27485 0 0 1.27485 516.63729 490.368393) matrix(1 0 0 1 -25.384828 79.214762)  translate(-470.097308, -614.470448)" d="M 475.51 733.99 C 474.64 735.39 466.98 735.20 464.30 733.71 L 462.10 732.48 L 464.12 727.99 C 465.66 724.58 465.89 723.08 465.07 721.76 C 463.76 719.64 463.66 716.00 464.92 716.00 C 466.23 716.00 469.30 706.25 468.71 703.99 C 468.43 702.95 468.68 701.94 469.24 701.75 C 469.91 701.53 469.83 700.69 469.01 699.39 C 467.96 697.71 468.06 696.80 469.59 693.94 C 470.61 692.05 471.54 689.60 471.67 688.50 C 471.80 687.40 472.09 684.70 472.31 682.50 C 472.53 680.30 473.42 676.03 474.28 673.00 C 476.95 663.60 478.11 657.45 477.50 655.86 C 477.12 654.87 475.47 654.27 472.87 654.17 C 467.37 653.95 458.67 651.32 455.67 648.95 C 450.23 644.68 451.66 628.13 457.75 624.87 C 458.99 624.20 460.00 623.26 460.00 622.77 C 460.00 622.28 460.45 622.16 461.00 622.50 C 461.55 622.84 462.00 622.74 462.00 622.27 C 462.00 621.80 464.45 619.94 467.45 618.12 C 470.44 616.31 473.03 614.40 473.21 613.88 C 473.90 611.79 485.63 609.59 496.00 609.59 C 504.61 609.59 507.36 609.97 511.26 611.74 C 513.88 612.93 516.29 614.60 516.62 615.45 C 516.95 616.30 517.79 617.00 518.49 617.00 C 520.22 617.00 528.35 624.91 529.79 628.00 C 531.43 631.51 532.05 636.00 530.90 636.00 C 530.37 636.00 528.99 637.59 527.84 639.54 C 526.69 641.49 524.12 643.92 522.13 644.95 C 520.13 645.97 517.53 647.93 516.34 649.30 C 515.16 650.68 512.80 652.11 511.09 652.48 C 507.45 653.28 507.42 653.48 509.94 659.35 C 511.00 661.83 511.83 665.17 511.79 666.77 C 511.62 672.51 521.07 694.00 523.75 694.00 C 524.98 694.00 525.41 695.23 525.06 697.79 C 524.97 698.51 525.78 700.53 526.87 702.29 C 527.96 704.06 528.80 705.72 528.73 706.00 C 528.67 706.28 529.86 709.92 531.39 714.10 C 532.91 718.29 534.01 723.01 533.83 724.60 C 533.51 727.39 533.30 727.50 528.07 727.58 C 523.25 727.66 522.22 727.29 518.90 724.29 C 516.85 722.44 513.79 718.13 512.10 714.71 C 507.51 705.40 503.73 698.81 501.50 696.18 C 499.56 693.90 499.36 693.37 499.12 689.82 C 499.05 688.90 498.36 687.50 497.58 686.72 C 496.80 685.94 496.01 684.00 495.83 682.41 C 495.64 680.72 494.83 679.39 493.88 679.21 C 491.87 678.83 491.84 678.90 477.95 726.74 C 476.95 730.17 475.85 733.43 475.51 733.99 Z M 543.45 532.05 C 540.92 534.69 539.99 535.00 534.56 534.97 C 531.23 534.95 527.71 534.48 526.74 533.91 C 525.77 533.35 523.75 530.55 522.24 527.69 C 519.83 523.11 519.52 521.47 519.62 513.77 C 519.70 507.33 520.16 504.45 521.39 502.77 C 522.31 501.52 523.99 499.04 525.13 497.25 C 526.81 494.61 527.85 494.00 530.64 494.00 C 536.15 494.00 541.45 497.32 544.43 502.65 C 546.58 506.51 547.03 508.50 546.88 513.71 C 546.79 517.20 546.37 520.27 545.95 520.53 C 545.53 520.79 545.43 522.82 545.73 525.05 C 546.20 528.53 545.88 529.52 543.45 532.05 Z M 415.00 544.00 C 415.00 545.69 414.34 546.00 410.75 545.98 C 408.41 545.98 405.87 545.57 405.09 545.08 C 404.32 544.59 403.08 544.42 402.34 544.70 C 401.60 544.98 401.00 544.59 401.00 543.83 C 401.00 543.07 400.10 541.67 399.00 540.73 C 397.90 539.79 397.00 538.40 397.00 537.64 C 397.00 536.89 396.21 535.20 395.25 533.88 C 393.40 531.37 393.20 529.63 394.46 526.73 C 394.89 525.75 394.67 523.63 393.98 521.94 C 392.88 519.29 393.00 518.38 395.01 514.49 C 396.26 512.04 398.12 509.29 399.14 508.37 C 400.17 507.45 401.00 506.08 401.00 505.35 C 401.00 503.44 407.90 503.61 411.91 505.61 C 413.68 506.49 415.50 508.19 415.96 509.40 C 416.42 510.60 417.51 512.18 418.40 512.91 C 421.66 515.62 419.45 542.00 415.96 542.00 C 415.43 542.00 415.00 542.90 415.00 544.00 Z" stroke-linecap="round"/>
</g>
		<g id="f4b3cd5e-189c-412c-ab36-9d97c3d0d486-child-1">
<path style="stroke: rgb(193,193,193); stroke-width: 0; stroke-dasharray: none; stroke-linecap: butt; stroke-dashoffset: 0; stroke-linejoin: miter; stroke-miterlimit: 4; fill: rgb(210,182,27); fill-rule: nonzero; opacity: 1;" transform="matrix(1.27485 0 0 1.27485 516.63729 490.368393) matrix(1 0 0 1 1.139593 62.816898)  translate(-496.621729, -598.072584)" d="M 403.07 732.43 C 400.29 735.38 394.58 735.86 389.50 733.57 C 382.05 730.20 367.44 712.39 360.11 697.74 C 358.53 694.58 356.78 691.43 356.23 690.74 C 355.68 690.06 354.25 687.03 353.05 684.00 C 351.85 680.97 349.83 676.47 348.56 674.00 C 347.29 671.53 345.69 667.03 344.99 664.00 C 344.30 660.97 343.31 657.96 342.78 657.29 C 342.26 656.63 341.00 653.03 339.98 649.29 C 338.97 645.56 337.43 640.03 336.58 637.00 C 335.72 633.97 334.36 626.78 333.55 621.00 C 332.73 615.22 331.84 609.15 331.55 607.50 C 328.33 589.10 327.73 556.78 329.68 508.00 C 330.47 488.48 331.19 471.38 331.30 470.00 C 331.49 467.61 331.23 467.49 325.50 467.26 C 309.80 466.63 294.23 463.15 283.99 457.99 C 276.81 454.37 266.93 446.90 262.55 441.79 C 255.73 433.82 249.28 414.78 248.32 399.82 L 247.71 390.14 L 250.81 387.04 C 253.34 384.51 254.42 384.06 256.70 384.61 C 262.31 385.95 263.00 386.76 263.00 391.98 C 263.00 394.67 263.45 397.16 264.00 397.50 C 264.55 397.84 265.00 399.78 265.00 401.81 C 265.00 406.52 268.26 417.97 271.47 424.54 C 274.84 431.41 283.55 440.77 290.43 444.90 C 299.35 450.25 308.93 452.24 326.50 452.38 C 340.05 452.49 342.15 452.26 348.24 450.07 C 351.95 448.73 356.51 446.38 358.37 444.85 L 361.76 442.06 L 361.69 427.78 C 361.62 410.75 363.12 404.36 368.76 397.68 C 375.72 389.42 380.87 388.08 388.49 392.55 C 393.59 395.54 395.00 398.70 395.00 407.20 C 395.00 415.65 392.39 426.21 387.92 435.84 C 384.14 443.97 384.08 444.26 385.65 447.34 C 389.18 454.30 397.14 462.81 403.00 465.89 C 412.22 470.73 427.98 471.22 437.86 466.96 C 445.68 463.60 455.97 451.48 459.04 442.00 C 459.49 440.62 460.74 437.15 461.83 434.27 C 463.91 428.78 465.64 419.44 466.36 409.73 C 466.68 405.48 467.49 403.05 469.44 400.49 C 472.97 395.86 475.46 395.42 481.49 398.34 L 486.47 400.75 L 486.58 412.63 C 486.70 426.23 488.51 432.73 494.65 441.66 C 504.08 455.34 517.88 461.95 537.07 461.99 C 552.47 462.01 560.32 457.37 566.26 444.73 C 571.52 433.54 574.17 421.43 576.56 397.66 C 577.18 391.58 577.66 390.39 580.97 386.91 C 583.02 384.76 585.61 383.00 586.72 383.00 C 589.53 383.00 594.53 385.25 600.77 389.31 C 606.47 393.03 616.24 395.55 620.94 394.51 C 624.35 393.76 627.98 387.53 630.55 378.00 C 631.76 373.51 633.24 370.62 635.33 368.65 C 638.20 365.93 638.53 365.86 642.19 367.06 C 648.28 369.07 648.49 369.75 646.47 380.76 C 643.98 394.29 639.73 402.02 632.81 405.60 C 626.47 408.88 611.02 407.97 597.35 403.52 C 595.72 402.99 595.04 403.30 594.57 404.77 C 593.61 407.82 594.93 409.93 598.36 410.79 C 600.93 411.43 602.02 412.66 604.36 417.54 C 607.74 424.58 610.52 435.05 612.31 447.50 C 613.82 457.95 615.28 458.98 617.93 451.46 C 618.90 448.69 620.90 445.13 622.36 443.56 C 624.92 440.80 625.17 440.74 628.90 441.97 C 632.23 443.07 633.87 443.60 634.50 444.71 C 635.11 445.79 634.75 447.42 634.05 450.66 C 630.88 465.35 630.10 471.18 630.09 480.50 C 630.07 493.93 632.08 502.07 638.87 515.89 C 643.07 524.44 646.07 528.58 656.25 539.84 C 662.00 546.20 662.89 548.48 660.99 552.02 C 660.13 553.63 658.98 553.87 653.36 553.65 L 646.74 553.40 L 640.12 546.35 C 629.02 534.55 626.00 531.12 625.96 530.29 C 625.90 528.91 621.11 523.55 620.49 524.18 C 620.16 524.50 619.98 530.79 620.09 538.14 C 620.71 579.82 620.33 620.41 619.23 629.15 C 616.30 652.43 610.69 674.33 604.17 687.91 C 601.38 693.71 600.60 696.49 600.85 699.69 C 601.28 705.33 598.87 707.39 591.48 707.69 C 586.57 707.89 585.81 707.64 584.32 705.36 C 582.69 702.88 582.02 699.94 582.00 695.20 C 581.99 693.94 581.31 691.29 580.49 689.33 C 579.67 687.36 579.00 684.45 579.00 682.86 C 579.00 679.96 573.47 662.39 571.95 660.49 C 571.51 659.93 570.16 656.78 568.94 653.49 C 566.98 648.17 563.68 642.46 555.17 629.68 C 550.87 623.22 533.75 606.34 529.00 603.88 C 506.92 592.45 477.02 593.55 450.50 606.77 C 441.08 611.47 435.72 615.23 428.13 622.44 C 411.08 638.67 403.63 654.92 402.45 678.50 C 402.20 683.45 401.76 691.33 401.48 696.00 C 401.06 702.88 401.40 706.03 403.21 712.50 C 406.24 723.32 406.20 729.09 403.07 732.43 Z M 382.18 696.78 C 382.83 697.43 383.57 697.77 383.81 697.52 C 384.06 697.27 384.20 692.44 384.13 686.79 C 383.97 674.56 385.41 658.01 386.86 655.38 C 387.43 654.34 388.85 650.48 390.02 646.78 C 394.65 632.14 408.62 613.72 423.43 602.74 C 441.53 589.32 459.76 582.74 486.44 580.00 C 503.63 578.23 521.53 581.72 538.15 590.08 C 552.24 597.16 561.65 605.25 572.53 619.62 C 579.41 628.71 590.80 649.08 592.30 654.98 C 594.32 662.90 597.65 644.88 599.15 618.00 C 600.08 601.30 599.60 501.88 598.51 486.50 C 598.35 484.30 597.94 478.23 597.58 473.00 C 595.83 447.10 593.73 431.57 591.83 430.39 C 590.75 429.73 589.00 434.35 589.00 437.87 C 589.00 442.89 581.31 457.06 575.22 463.25 C 572.11 466.41 569.17 469.00 568.69 469.00 C 568.20 469.00 566.60 469.86 565.13 470.91 C 560.00 474.56 551.42 476.26 538.37 476.21 C 514.26 476.12 499.68 470.57 482.70 455.02 L 476.90 449.70 L 475.20 452.10 C 474.27 453.42 472.66 456.07 471.62 457.99 C 466.80 466.92 456.79 475.89 446.17 480.80 C 441.13 483.14 438.99 483.47 426.90 483.82 C 415.47 484.16 411.97 483.88 404.94 482.10 C 391.96 478.82 381.97 472.74 372.88 462.58 L 369.27 458.54 L 363.88 461.24 C 360.92 462.73 356.14 464.49 353.25 465.15 L 348.00 466.34 L 348.00 504.42 C 347.99 562.31 349.41 584.66 355.07 616.00 C 359.09 638.22 369.50 670.15 378.62 688.22 C 379.93 690.81 381.00 693.53 381.00 694.27 C 381.00 695.00 381.53 696.13 382.18 696.78 Z M 247.85 637.50 C 246.51 641.46 246.44 641.50 241.21 641.63 C 234.26 641.80 231.88 639.92 231.46 633.95 C 231.29 631.50 230.89 627.34 230.57 624.70 C 229.95 619.63 229.22 609.61 228.15 591.50 C 226.83 569.20 230.35 544.18 236.85 529.54 C 246.54 507.73 272.24 482.68 283.05 484.51 C 285.12 484.86 287.64 485.74 288.64 486.48 C 290.37 487.74 290.38 487.99 288.77 491.35 C 287.81 493.37 284.98 496.31 282.20 498.19 C 270.72 505.95 262.79 515.33 256.33 528.80 C 247.71 546.76 246.02 562.21 247.95 605.33 C 249.00 628.89 248.99 634.15 247.85 637.50 Z M 762.86 796.40 C 761.46 799.49 760.74 799.71 754.44 799.03 C 750.49 798.60 746.72 796.89 737.44 791.32 C 730.87 787.39 722.30 781.67 718.40 778.63 C 699.30 763.72 687.39 731.37 689.46 700.00 C 690.37 686.11 691.71 680.26 694.88 676.28 C 697.79 672.64 699.69 672.27 704.04 674.52 C 707.78 676.45 708.24 678.56 707.20 688.99 C 705.79 703.12 707.54 719.12 712.28 735.50 C 717.58 753.83 731.10 770.56 749.46 781.51 C 764.97 790.76 765.28 791.10 762.86 796.40 Z M 186.61 781.25 C 185.12 783.21 182.55 783.25 174.26 781.45 C 172.20 781.01 168.53 775.46 167.42 771.13 C 163.36 755.19 162.62 750.61 162.63 741.50 C 162.66 709.35 169.90 689.35 187.50 672.80 C 194.45 666.26 198.25 664.30 201.20 665.71 C 202.46 666.32 204.29 667.07 205.25 667.38 C 208.78 668.51 207.25 672.72 200.73 679.82 C 187.56 694.17 183.03 708.59 182.72 737.09 C 182.56 751.02 183.94 761.46 186.99 769.47 C 188.39 773.16 188.20 779.16 186.61 781.25 Z M 238.60 829.23 C 238.00 829.64 237.27 829.90 237.00 829.81 C 236.73 829.72 234.64 829.48 232.36 829.27 C 228.08 828.88 225.21 826.71 224.58 823.39 C 224.38 822.35 223.70 817.22 223.06 812.00 C 221.87 802.34 221.15 799.62 217.92 792.50 C 216.92 790.30 215.62 787.38 215.03 786.00 C 214.45 784.62 212.59 781.03 210.91 778.00 C 204.74 766.89 202.19 759.06 201.47 749.00 C 200.42 734.37 203.93 724.13 212.04 718.13 C 214.76 716.12 215.44 716.02 218.78 717.09 C 220.83 717.74 223.12 718.45 223.87 718.66 C 225.82 719.19 224.58 724.56 221.48 729.03 C 219.38 732.06 219.00 733.75 219.00 740.12 C 219.00 749.90 220.83 755.94 228.11 770.27 C 236.71 787.16 240.03 797.88 241.12 812.30 C 242.02 824.07 241.54 827.27 238.60 829.23 Z M 829.96 649.10 C 828.68 652.20 828.04 652.32 820.11 651.04 C 815.50 650.29 813.30 648.29 812.37 644.00 C 809.60 631.20 802.53 613.19 796.27 602.99 C 794.75 600.51 792.60 597.00 791.50 595.20 C 787.46 588.58 778.70 577.33 772.66 571.00 C 761.80 559.62 757.00 553.83 757.03 552.14 C 757.04 551.24 758.36 549.22 759.96 547.65 C 764.73 542.97 767.96 544.75 784.75 561.34 C 792.59 569.08 799.00 575.76 799.00 576.19 C 799.00 576.62 801.51 580.46 804.58 584.73 C 815.06 599.33 823.38 616.04 826.84 629.50 C 827.41 631.70 828.61 636.36 829.52 639.85 C 830.85 645.01 830.93 646.75 829.96 649.10 Z M 726.41 566.92 C 723.66 570.19 722.52 570.65 721.46 568.94 C 721.10 568.35 719.59 568.15 718.05 568.49 C 715.12 569.13 714.19 568.58 692.78 553.58 C 675.78 541.66 666.41 530.55 664.48 520.00 C 663.24 513.24 663.42 499.27 664.83 492.50 C 666.26 485.62 668.88 479.97 672.89 475.11 C 675.38 472.08 676.05 471.79 679.17 472.37 C 681.08 472.73 683.52 473.66 684.58 474.44 C 686.47 475.83 686.46 475.97 684.20 482.31 C 682.64 486.71 681.72 492.09 681.32 499.14 C 680.83 507.99 681.06 510.56 682.93 516.79 C 684.82 523.11 685.99 525.02 691.77 531.14 C 695.44 535.03 702.73 541.17 707.97 544.80 C 723.80 555.74 729.00 559.99 729.00 561.98 C 729.00 563.01 727.84 565.23 726.41 566.92 Z M 339.25 776.51 C 335.13 780.45 331.72 782.91 330.50 782.82 C 323.99 782.35 321.50 781.62 319.88 779.68 C 316.87 776.06 317.67 774.03 324.87 767.05 C 331.59 760.55 338.43 750.07 339.31 744.95 C 342.05 728.97 342.21 726.17 341.10 714.50 C 340.47 707.90 339.82 701.83 339.65 701.00 C 337.66 691.43 337.68 691.25 341.17 688.11 C 344.65 684.98 347.22 684.82 351.50 687.48 C 353.68 688.84 355.88 699.17 358.12 718.66 C 360.05 735.47 356.75 752.55 349.41 763.67 C 347.53 766.51 346.00 769.11 346.00 769.45 C 346.00 769.78 342.96 772.96 339.25 776.51 Z M 267.04 665.04 C 265.13 666.67 262.88 667.94 262.04 667.87 C 257.22 667.48 251.82 666.22 250.85 665.25 C 248.83 663.23 250.89 659.54 256.44 655.28 C 262.52 650.61 266.28 644.35 267.41 637.00 C 267.80 634.53 268.09 621.45 268.07 607.94 L 268.04 583.38 L 270.87 579.98 C 273.71 576.59 273.71 576.58 277.87 577.96 C 280.16 578.71 282.54 579.94 283.16 580.69 C 284.60 582.43 286.34 617.27 285.62 630.00 C 285.06 639.75 283.04 648.37 280.23 652.92 C 278.00 656.54 272.81 661.99 271.55 662.04 C 270.97 662.06 268.94 663.41 267.04 665.04 Z M 786.66 693.27 C 785.25 696.64 785.01 696.77 780.08 696.69 C 773.38 696.59 771.69 694.76 771.36 687.21 C 770.03 657.40 768.46 647.22 763.62 637.00 C 759.78 628.88 759.37 625.63 761.91 623.09 C 763.97 621.03 768.22 620.38 771.47 621.63 C 773.60 622.44 779.33 633.89 782.54 643.73 C 785.56 652.99 786.64 660.24 787.49 677.13 C 787.99 687.08 787.82 690.50 786.66 693.27 Z" stroke-linecap="round"/>
</g>
		<g id="f4b3cd5e-189c-412c-ab36-9d97c3d0d486-child-2">
<path style="stroke: rgb(193,193,193); stroke-width: 0; stroke-dasharray: none; stroke-linecap: butt; stroke-dashoffset: 0; stroke-linejoin: miter; stroke-miterlimit: 4; fill: rgb(255,233,113); fill-rule: nonzero; opacity: 1;" transform="matrix(1.27485 0 0 1.27485 516.63729 490.368393) matrix(1 0 0 1 1.689153 62.715303)  translate(-497.171289, -597.970988)" d="M 785.70 699.21 C 784.09 700.23 782.24 700.19 781.58 699.13 C 781.29 698.66 778.97 698.03 776.44 697.75 C 773.90 697.46 771.47 696.84 771.03 696.36 C 770.59 695.89 769.75 686.72 769.16 676.00 C 768.04 655.58 766.81 646.42 764.60 642.09 C 761.42 635.85 758.00 627.85 758.00 626.63 C 758.00 625.90 758.90 624.27 760.00 623.00 C 761.10 621.73 762.00 620.25 762.00 619.72 C 762.00 618.12 770.89 619.59 773.05 621.54 C 775.09 623.39 781.53 636.02 783.18 641.42 C 787.20 654.55 787.87 658.77 788.51 675.15 C 789.06 688.95 788.03 697.72 785.70 699.21 Z M 786.66 693.27 C 787.82 690.50 787.99 687.08 787.49 677.13 C 786.64 660.24 785.56 652.99 782.54 643.73 C 779.33 633.89 773.60 622.44 771.47 621.63 C 768.22 620.38 763.97 621.03 761.91 623.09 C 759.37 625.63 759.78 628.88 763.62 637.00 C 768.46 647.22 770.03 657.40 771.36 687.21 C 771.69 694.76 773.38 696.59 780.08 696.69 C 785.01 696.77 785.25 696.64 786.66 693.27 Z M 403.07 732.43 C 406.20 729.09 406.24 723.32 403.21 712.50 C 401.40 706.03 401.06 702.88 401.48 696.00 C 401.76 691.33 402.20 683.45 402.45 678.50 C 402.57 676.01 402.77 673.59 403.04 671.25 C 402.43 677.11 402.26 683.83 402.41 692.00 C 402.71 707.85 402.99 710.20 405.36 716.95 C 407.70 723.57 407.85 724.79 406.74 727.95 C 406.06 729.90 404.94 732.09 404.25 732.82 C 403.56 733.55 403.00 734.78 403.00 735.56 C 403.00 736.68 401.72 736.88 396.93 736.50 C 390.01 735.97 388.95 735.30 378.18 724.70 C 371.79 718.41 368.12 713.32 357.86 696.50 C 355.55 692.71 355.48 694.35 357.46 705.53 C 361.00 725.52 360.49 738.46 355.59 752.93 C 353.48 759.16 350.78 763.95 346.00 769.45 L 346.00 769.45 C 346.00 769.11 347.53 766.51 349.41 763.67 C 356.75 752.55 360.05 735.47 358.12 718.66 C 355.88 699.17 353.68 688.84 351.50 687.48 C 347.22 684.82 344.65 684.98 341.17 688.11 C 337.68 691.25 337.66 691.43 339.65 701.00 C 339.82 701.83 340.47 707.90 341.10 714.50 C 342.21 726.17 342.05 728.97 339.31 744.95 C 338.96 746.96 337.70 749.79 335.89 752.88 C 338.05 748.62 339.22 744.23 339.61 739.36 C 340.65 726.22 340.28 714.13 338.43 700.50 C 336.93 689.43 336.96 689.14 340.31 686.00 C 343.54 682.97 346.38 682.18 347.50 684.00 C 347.84 684.55 349.04 685.00 350.17 685.00 C 352.00 685.00 352.15 684.59 351.52 681.28 C 351.40 680.61 351.17 679.77 350.87 678.88 C 351.67 680.67 352.46 682.51 353.05 684.00 C 354.25 687.03 355.68 690.06 356.23 690.74 C 356.78 691.43 358.53 694.58 360.11 697.74 C 367.44 712.39 382.05 730.20 389.50 733.57 C 394.58 735.86 400.29 735.38 403.07 732.43 Z M 588.68 440.06 C 588.89 439.22 589.00 438.48 589.00 437.87 C 589.00 434.35 590.75 429.73 591.83 430.39 C 593.73 431.57 595.83 447.10 597.58 473.00 C 597.94 478.23 598.35 484.30 598.51 486.50 C 599.60 501.88 600.08 601.30 599.15 618.00 C 597.65 644.85 594.32 662.86 592.31 655.01 C 593.33 658.81 594.69 656.26 595.32 649.28 C 595.66 645.55 596.43 638.45 597.03 633.50 C 598.28 623.22 598.74 527.72 597.67 499.00 C 596.65 471.66 593.18 433.85 591.54 432.20 C 591.31 431.97 590.36 434.42 589.43 437.64 C 589.20 438.45 588.95 439.26 588.68 440.06 Z M 762.86 796.40 C 765.28 791.10 764.97 790.76 749.46 781.51 C 744.28 778.42 739.48 774.87 735.15 770.96 C 739.05 774.24 743.99 777.39 752.68 782.50 C 757.18 785.15 762.08 788.29 763.58 789.48 C 766.25 791.61 766.28 791.72 764.90 796.08 L 763.50 800.50 L 757.97 800.72 C 751.71 800.97 751.46 800.87 734.74 790.72 C 715.88 779.27 704.70 767.93 697.98 753.42 C 696.22 749.61 694.38 745.72 693.89 744.76 C 693.40 743.81 693.00 742.32 693.00 741.46 C 693.00 740.60 692.35 738.64 691.56 737.11 C 690.76 735.57 689.86 732.11 689.56 729.41 C 689.26 726.71 688.61 722.54 688.12 720.14 C 686.86 713.99 687.77 693.80 689.68 685.50 C 692.05 675.19 697.62 669.61 702.77 672.38 C 704.27 673.18 706.34 674.11 707.36 674.43 C 708.92 674.93 709.10 675.63 708.51 678.76 C 708.13 680.76 707.82 682.78 707.56 684.83 C 708.02 677.93 707.21 676.16 704.04 674.52 C 699.69 672.27 697.79 672.64 694.88 676.28 C 691.71 680.26 690.37 686.11 689.46 700.00 C 687.39 731.37 699.30 763.72 718.40 778.63 C 722.30 781.67 730.87 787.39 737.44 791.32 C 746.72 796.89 750.49 798.60 754.44 799.03 C 760.74 799.71 761.46 799.49 762.86 796.40 Z M 829.96 649.10 C 830.93 646.75 830.85 645.01 829.52 639.85 C 828.61 636.36 827.41 631.70 826.84 629.50 C 823.38 616.04 815.06 599.33 804.58 584.73 C 802.28 581.54 800.30 578.58 799.45 577.11 C 816.22 596.63 823.91 612.81 830.51 639.50 C 832.09 645.86 832.11 646.83 830.72 650.15 C 829.19 653.78 829.15 653.80 823.15 653.80 C 816.57 653.80 815.07 653.04 812.70 648.50 C 811.14 645.50 806.00 629.72 806.00 627.92 C 806.00 626.02 798.76 608.47 796.90 605.86 C 795.85 604.39 795.00 602.30 795.00 601.22 C 795.00 601.11 794.99 601.00 794.98 600.89 C 795.43 601.62 795.87 602.34 796.27 602.99 C 802.53 613.19 809.60 631.20 812.37 644.00 C 813.30 648.29 815.50 650.29 820.11 651.04 C 828.04 652.32 828.68 652.20 829.96 649.10 Z M 277.90 454.44 C 272.00 450.82 266.66 446.41 261.75 441.16 C 257.16 436.26 251.45 425.42 250.44 419.69 C 250.16 418.06 249.43 415.81 248.84 414.70 C 248.24 413.58 247.59 409.03 247.38 404.58 C 247.18 400.14 246.79 394.90 246.52 392.94 C 246.10 389.81 246.51 388.90 249.91 385.58 C 253.74 381.85 253.84 381.81 257.65 383.10 C 259.77 383.82 261.92 384.75 262.42 385.18 C 262.93 385.60 263.90 391.25 264.58 397.72 C 264.64 398.23 264.69 398.73 264.75 399.23 C 264.57 398.34 264.30 397.68 264.00 397.50 C 263.45 397.16 263.00 394.67 263.00 391.98 C 263.00 386.76 262.31 385.95 256.70 384.61 C 254.42 384.06 253.34 384.51 250.81 387.04 L 247.71 390.14 L 248.32 399.82 C 249.28 414.78 255.73 433.82 262.55 441.79 C 265.77 445.55 271.98 450.60 277.90 454.44 Z M 633.16 454.85 C 633.44 453.53 633.73 452.14 634.05 450.66 C 634.75 447.42 635.11 445.79 634.50 444.71 C 633.87 443.60 632.23 443.07 628.90 441.97 C 625.17 440.74 624.92 440.80 622.36 443.56 C 620.90 445.13 618.90 448.69 617.93 451.46 C 615.28 458.98 613.82 457.95 612.31 447.50 C 610.52 435.05 607.74 424.58 604.36 417.54 C 602.02 412.66 600.93 411.43 598.36 410.79 C 594.93 409.93 593.61 407.82 594.57 404.77 C 595.04 403.30 595.72 402.99 597.35 403.52 C 597.53 403.58 597.71 403.63 597.88 403.69 C 596.74 403.50 596.18 403.70 595.80 404.29 C 594.30 406.64 595.04 408.00 598.75 409.74 C 601.73 411.14 603.15 412.83 605.67 418.00 C 609.05 424.94 611.30 433.21 613.12 445.43 C 614.42 454.16 616.24 455.54 617.54 448.78 C 617.78 447.56 619.78 444.75 621.99 442.54 C 625.53 439.00 626.24 438.67 627.99 439.76 C 629.08 440.44 630.57 441.00 631.30 441.00 C 632.02 441.00 633.40 441.57 634.36 442.27 C 635.98 443.46 635.99 443.92 634.50 449.52 C 634.01 451.33 633.57 453.10 633.16 454.85 Z M 238.60 829.23 C 241.54 827.27 242.02 824.07 241.12 812.30 C 240.12 799.12 237.26 789.03 230.21 774.49 C 239.73 793.37 240.95 797.05 242.17 809.99 C 243.26 821.56 242.67 828.18 240.37 830.49 C 238.61 832.24 235.00 832.52 235.00 830.89 C 235.00 830.21 234.05 830.02 232.55 830.40 C 229.88 831.07 223.59 828.16 223.38 826.16 C 223.31 825.52 223.18 824.89 223.08 824.75 C 222.99 824.61 222.69 819.55 222.41 813.50 C 221.97 803.76 221.51 800.77 218.96 794.84 C 221.33 800.35 222.01 803.47 223.06 812.00 C 223.70 817.22 224.38 822.35 224.58 823.39 C 225.21 826.71 228.08 828.88 232.36 829.27 C 234.64 829.48 236.73 829.72 237.00 829.81 C 237.27 829.90 238.00 829.64 238.60 829.23 Z M 631.53 537.13 C 633.62 539.42 636.42 542.42 640.12 546.35 L 646.74 553.40 L 653.36 553.65 C 658.98 553.87 660.13 553.63 660.99 552.02 C 662.89 548.48 662.00 546.20 656.25 539.84 C 646.07 528.58 643.07 524.44 638.87 515.89 C 638.24 514.61 637.65 513.38 637.10 512.19 C 637.39 512.79 637.68 513.40 637.99 514.00 C 641.81 521.59 644.53 525.23 655.69 537.67 L 663.92 546.85 L 662.66 551.17 C 661.43 555.40 661.30 555.50 656.95 555.65 C 649.18 555.91 647.33 555.11 641.30 548.88 C 638.12 545.59 635.06 542.06 634.51 541.04 C 634.12 540.31 632.93 538.76 631.53 537.13 Z M 186.61 781.25 C 188.20 779.16 188.39 773.16 186.99 769.47 C 185.54 765.67 184.47 761.32 183.76 756.31 C 184.29 758.54 185.05 760.98 186.19 764.50 C 190.13 776.77 190.25 782.01 186.67 784.52 C 184.19 786.26 183.34 786.36 182.51 785.01 C 182.17 784.47 180.46 784.19 178.70 784.40 C 173.86 784.96 170.26 782.33 168.60 777.04 C 167.82 774.54 167.15 771.83 167.13 771.00 C 167.11 770.53 166.78 768.83 166.27 766.54 C 166.62 767.96 167.00 769.49 167.42 771.13 C 168.53 775.46 172.20 781.01 174.26 781.45 C 182.55 783.25 185.12 783.21 186.61 781.25 Z M 642.60 394.27 C 644.21 390.61 645.48 386.14 646.47 380.76 C 648.49 369.75 648.28 369.07 642.19 367.06 C 638.53 365.86 638.20 365.93 635.33 368.65 C 633.24 370.62 631.76 373.51 630.55 378.00 C 629.13 383.28 627.38 387.55 625.52 390.43 C 625.95 389.67 626.42 388.76 626.94 387.68 C 628.59 384.27 630.12 379.25 630.35 376.50 C 630.85 370.44 631.77 368.00 633.57 368.00 C 634.32 368.00 635.41 367.10 636.00 366.00 C 637.08 363.98 641.00 363.17 641.00 364.97 C 641.00 365.50 641.65 365.69 642.46 365.38 C 643.27 365.07 645.08 365.99 646.57 367.48 C 648.98 369.89 649.17 370.62 648.58 375.08 C 647.67 381.97 645.48 388.77 642.60 394.27 Z M 267.04 665.04 C 268.94 663.41 270.97 662.06 271.55 662.04 C 271.73 662.03 271.99 661.92 272.30 661.72 C 268.98 664.80 265.43 667.72 263.50 668.74 C 259.58 670.82 251.84 669.69 249.89 666.75 C 249.55 666.24 248.99 665.87 248.64 665.91 C 246.18 666.24 245.86 665.81 247.35 664.17 C 248.26 663.17 249.00 661.84 249.00 661.22 C 249.00 659.98 255.13 655.00 256.66 655.00 C 256.71 655.00 256.76 654.99 256.82 654.98 C 256.70 655.08 256.57 655.18 256.44 655.28 C 250.89 659.54 248.83 663.23 250.85 665.25 C 251.82 666.22 257.22 667.48 262.04 667.87 C 262.88 667.94 265.13 666.67 267.04 665.04 Z M 579.00 682.86 C 579.00 684.46 579.67 687.37 580.49 689.33 C 581.31 691.29 581.99 693.94 582.00 695.20 C 582.02 699.94 582.69 702.88 584.32 705.36 C 585.81 707.64 586.57 707.89 591.48 707.69 C 596.49 707.48 599.21 706.47 600.31 704.09 C 600.23 704.51 600.14 704.93 600.04 705.34 L 598.80 710.50 L 593.15 710.50 C 588.83 710.50 586.79 709.97 584.48 708.23 C 581.61 706.07 581.48 705.66 581.70 699.37 C 581.84 695.37 581.37 691.49 580.49 689.33 C 580.48 689.31 580.48 689.29 580.47 689.27 C 579.66 687.34 579.00 684.46 579.00 682.86 Z M 329.27 585.72 C 329.23 585.16 329.18 584.58 329.13 584.00 C 327.99 570.74 328.48 486.93 329.71 484.00 C 330.19 482.85 330.71 479.71 330.99 476.48 C 330.69 483.44 330.20 495.20 329.68 508.00 C 328.35 541.31 328.21 566.95 329.27 585.72 Z M 664.90 492.18 C 665.01 491.50 665.13 490.84 665.26 490.21 C 667.01 481.47 670.31 475.30 675.15 471.72 C 677.60 469.91 678.11 469.87 682.15 471.21 C 685.83 472.43 686.55 473.10 686.80 475.60 C 686.96 477.22 685.90 481.23 684.44 484.52 C 683.19 487.35 682.27 490.69 681.71 494.24 C 682.21 489.51 683.02 485.63 684.20 482.31 C 686.46 475.97 686.47 475.83 684.58 474.44 C 683.52 473.66 681.08 472.73 679.17 472.37 C 676.05 471.79 675.38 472.08 672.89 475.11 C 668.94 479.90 666.35 485.44 664.90 492.18 Z M 382.18 696.78 C 381.53 696.13 381.00 695.00 381.00 694.27 C 381.00 693.58 380.07 691.18 378.89 688.75 C 378.97 688.92 379.05 689.09 379.13 689.25 C 380.73 692.41 382.25 695.00 382.51 695.00 C 382.78 695.00 382.96 693.54 382.91 691.75 C 382.81 688.04 383.80 676.88 384.86 667.88 C 384.36 673.79 384.05 680.81 384.13 686.79 C 384.20 692.44 384.06 697.27 383.81 697.52 C 383.57 697.77 382.83 697.43 382.18 696.78 Z M 264.98 401.06 C 266.47 412.28 269.35 421.30 273.92 428.67 C 272.94 427.24 272.11 425.84 271.47 424.54 C 268.26 417.97 265.00 406.52 265.00 401.81 C 265.00 401.56 264.99 401.30 264.98 401.06 Z M 601.42 404.73 C 611.14 407.35 621.22 408.21 627.92 407.08 C 627.04 407.29 626.17 407.46 625.37 407.56 C 619.77 408.26 608.33 406.88 601.42 404.73 Z M 171.55 693.86 C 175.68 685.61 180.13 679.73 187.50 672.80 C 178.58 681.19 172.32 690.47 168.31 701.76 C 169.28 698.89 170.36 696.23 171.55 693.86 Z M 635.34 508.17 C 632.29 500.83 630.82 494.80 630.31 487.56 C 630.98 494.76 632.65 501.55 635.34 508.17 Z M 764.87 545.44 C 763.04 545.22 761.61 546.05 760.01 547.61 L 762.96 544.71 L 764.87 545.44 Z M 432.82 618.19 C 438.24 613.55 443.13 610.45 450.50 606.77 C 444.15 609.94 438.21 613.79 432.82 618.19 Z M 784.33 560.93 C 776.94 553.63 772.22 549.27 768.83 547.11 C 771.86 548.83 776.24 552.75 784.33 560.93 Z M 788.01 589.95 C 789.36 591.87 790.56 593.66 791.50 595.20 C 791.84 595.76 792.29 596.49 792.79 597.31 C 791.99 596.42 791.04 595.05 790.43 593.86 C 789.90 592.84 789.06 591.49 788.01 589.95 Z M 681.10 505.31 C 681.27 509.33 681.88 513.27 682.93 516.79 C 683.64 519.16 684.25 520.91 685.03 522.49 C 684.24 520.91 683.64 519.16 682.93 516.79 C 681.58 512.30 681.09 509.72 681.10 505.31 Z M 325.50 467.26 C 315.58 466.86 306.63 465.57 298.53 463.31 C 306.73 465.48 316.09 466.88 325.50 467.26 Z M 219.54 747.90 C 220.43 753.51 222.66 759.19 227.59 769.23 C 222.75 759.64 220.46 753.84 219.54 747.90 Z M 266.32 641.57 C 267.08 639.05 267.52 635.96 267.77 630.96 C 267.67 633.98 267.55 636.14 267.41 637.00 C 267.17 638.58 266.80 640.10 266.32 641.57 Z M 378.64 688.26 C 378.63 688.25 378.63 688.23 378.62 688.22 C 374.64 680.34 370.42 669.83 366.60 658.64 C 370.36 669.57 374.54 679.96 378.64 688.26 Z M 728.57 764.33 C 723.68 758.85 719.62 752.85 716.54 746.53 C 719.34 752.24 723.02 757.76 727.72 763.33 C 728.00 763.67 728.29 764.01 728.57 764.33 Z M 577.11 461.13 C 579.81 457.87 582.63 453.48 584.84 449.28 C 582.62 453.70 579.96 457.79 577.11 461.13 Z M 305.89 450.73 C 299.87 449.55 295.06 447.68 290.43 444.90 C 289.33 444.24 288.20 443.45 287.04 442.57 C 288.35 443.51 289.73 444.41 291.17 445.28 C 295.33 447.77 300.09 449.56 305.89 450.73 Z M 408.25 650.22 C 410.32 645.17 412.98 640.42 416.30 635.82 C 413.70 639.49 411.45 643.33 409.57 647.29 C 409.10 648.27 408.66 649.24 408.25 650.22 Z M 163.18 727.36 C 162.82 731.75 162.64 736.39 162.63 741.32 C 162.55 736.76 162.74 732.04 163.18 727.36 Z M 712.28 735.50 C 708.48 722.36 706.60 709.47 706.73 697.59 C 706.66 709.72 708.51 722.49 712.28 735.50 Z M 336.39 636.30 C 335.53 632.97 334.30 626.37 333.54 621.00 C 332.73 615.22 331.85 609.38 331.59 608.00 C 331.48 607.42 331.36 606.60 331.22 605.54 C 331.33 606.21 331.44 606.86 331.55 607.50 C 331.84 609.15 332.73 615.22 333.55 621.00 C 334.30 626.37 335.53 632.97 336.39 636.30 Z M 608.83 676.35 C 613.31 663.36 617.03 646.65 619.23 629.15 C 617.02 646.72 613.31 663.40 608.83 676.35 Z M 285.62 630.00 C 285.34 634.94 284.75 639.31 283.84 643.11 C 284.73 639.24 285.35 634.75 285.62 630.00 Z M 664.48 520.00 C 663.95 517.15 663.69 513.37 663.66 509.29 C 663.71 513.40 663.98 517.28 664.48 520.00 Z M 182.71 740.65 C 182.70 739.49 182.70 738.30 182.72 737.09 C 182.75 733.96 182.84 731.00 182.98 728.19 C 182.82 731.37 182.74 734.74 182.72 738.33 C 182.72 739.14 182.71 739.92 182.71 740.65 Z M 620.98 394.50 C 620.97 394.51 620.95 394.51 620.94 394.51 C 618.49 395.05 614.67 394.63 610.77 393.57 C 614.66 394.62 618.48 395.03 620.98 394.50 Z M 345.93 667.35 C 345.54 666.17 345.21 665.02 344.98 664.00 C 344.30 660.99 343.32 657.99 342.79 657.30 C 343.32 657.99 344.31 660.99 344.99 664.00 C 345.22 665.00 345.55 666.16 345.93 667.35 Z M 390.02 646.78 C 388.85 650.48 387.43 654.34 386.86 655.38 C 386.81 655.46 386.77 655.55 386.73 655.66 C 386.76 655.57 386.79 655.50 386.82 655.44 C 387.41 654.38 388.85 650.48 390.02 646.78 Z M 764.20 561.91 C 766.45 564.42 769.26 567.44 772.66 571.00 C 773.31 571.68 773.99 572.41 774.69 573.19 C 774.00 572.43 773.31 571.69 772.66 571.00 C 769.25 567.43 766.45 564.42 764.20 561.91 Z M 333.09 781.67 C 331.91 782.47 331.02 782.88 330.50 782.84 C 327.56 782.61 325.45 782.34 323.89 781.95 C 325.47 782.35 327.58 782.61 330.50 782.82 C 331.01 782.86 331.91 782.45 333.09 781.67 Z M 348.24 450.07 C 345.64 451.01 343.77 451.59 341.41 451.93 C 343.76 451.57 345.68 450.99 348.24 450.07 Z M 600.84 699.64 C 600.82 699.26 600.80 698.88 600.81 698.50 C 600.84 698.81 600.85 699.20 600.84 699.64 Z M 164.11 757.14 C 164.28 757.96 164.46 758.83 164.66 759.74 C 164.47 758.89 164.28 758.03 164.11 757.14 Z" stroke-linecap="round"/>
</g>
		<g id="f4b3cd5e-189c-412c-ab36-9d97c3d0d486-child-3">
<path style="stroke: rgb(193,193,193); stroke-width: 0; stroke-dasharray: none; stroke-linecap: butt; stroke-dashoffset: 0; stroke-linejoin: miter; stroke-miterlimit: 4; fill: rgb(255,233,113); fill-rule: nonzero; opacity: 1;" transform="matrix(1.27485 0 0 1.27485 516.63729 490.368393) matrix(1 0 0 1 0 0)  translate(-495.482137, -535.255686)" d="M 280.11 918.86 C 278.79 918.36 275.09 917.76 271.88 917.53 C 268.68 917.29 264.00 916.40 261.49 915.55 C 258.98 914.70 255.93 914.00 254.70 914.00 C 253.47 914.00 250.79 913.10 248.74 912.00 C 246.69 910.90 244.61 910.00 244.13 910.00 C 243.64 910.00 241.50 909.24 239.37 908.32 C 237.24 907.40 235.05 906.58 234.50 906.51 C 233.95 906.44 232.82 906.11 232.00 905.77 C 231.18 905.43 227.80 904.19 224.50 903.00 C 221.20 901.82 217.10 899.98 215.38 898.92 C 213.67 897.87 211.37 897.00 210.28 897.00 C 209.20 897.00 207.27 896.10 206.00 895.00 C 204.73 893.90 203.20 893.00 202.60 892.99 C 201.99 892.98 196.46 889.50 190.30 885.24 C 179.44 877.73 168.67 871.13 158.88 866.00 C 156.26 864.62 152.68 862.03 150.94 860.25 C 149.19 858.46 147.38 857.00 146.91 857.00 C 146.45 857.00 146.29 856.40 146.58 855.66 C 146.86 854.92 146.40 853.74 145.55 853.04 C 144.70 852.33 144.00 851.20 144.00 850.52 C 144.00 849.71 143.06 849.46 141.35 849.78 C 138.99 850.23 138.76 850.04 139.28 848.04 C 139.79 846.10 139.54 845.85 137.48 846.25 C 135.38 846.65 135.21 846.47 136.12 844.77 C 137.30 842.57 136.33 840.84 135.07 842.89 C 134.50 843.82 134.04 843.88 133.57 843.11 C 133.19 842.50 133.20 841.48 133.60 840.85 C 134.04 840.13 133.87 839.96 133.15 840.40 C 132.52 840.80 132.00 840.69 132.00 840.18 C 132.00 839.66 131.12 839.00 130.04 838.72 C 128.36 838.28 128.21 837.76 128.97 835.10 C 129.62 832.85 129.53 832.00 128.65 832.00 C 127.98 832.00 126.67 830.71 125.74 829.14 L 124.06 826.29 L 126.78 826.61 C 128.28 826.78 128.71 826.69 127.75 826.39 C 125.76 825.78 125.56 824.93 127.00 823.20 C 127.73 822.33 127.67 822.27 126.80 823.00 C 124.89 824.59 123.72 824.16 124.27 822.07 C 124.62 820.72 124.36 820.31 123.39 820.68 C 121.43 821.43 121.66 819.98 123.75 818.39 C 124.90 817.52 125.05 817.05 124.20 817.03 C 122.11 816.98 120.21 810.95 120.42 805.01 C 120.53 801.91 120.00 798.30 119.20 796.70 C 118.25 794.79 118.01 792.44 118.46 789.44 C 119.00 785.80 118.84 785.00 117.56 785.00 C 116.70 785.00 116.00 784.55 116.00 784.00 C 116.00 783.45 115.30 783.00 114.44 783.00 C 113.52 783.00 113.14 783.51 113.52 784.25 C 113.86 784.94 113.44 784.63 112.57 783.56 C 111.66 782.43 111.00 782.15 111.00 782.88 C 111.00 784.50 107.54 783.88 107.38 782.24 C 107.31 781.56 107.14 780.66 107.01 780.25 C 106.88 779.84 106.86 778.68 106.96 777.68 C 107.08 776.57 106.33 775.64 105.08 775.31 C 102.67 774.68 102.37 773.46 104.42 772.67 C 106.38 771.92 105.29 768.31 102.91 767.69 C 101.86 767.41 101.00 767.60 101.00 768.09 C 101.00 768.59 100.03 769.00 98.85 769.00 C 96.79 769.00 96.77 769.09 98.41 770.90 C 99.64 772.25 99.80 773.01 98.98 773.51 C 97.60 774.37 96.46 773.29 95.55 770.25 C 95.04 768.58 95.27 768.00 96.43 768.00 C 97.29 768.00 98.00 767.50 98.00 766.89 C 98.00 766.28 97.32 766.05 96.50 766.36 C 94.01 767.32 94.81 765.35 97.67 763.48 C 100.10 761.89 100.19 761.61 98.67 760.50 C 97.75 759.83 97.00 758.52 97.00 757.58 C 97.00 756.65 96.55 756.16 96.00 756.50 C 95.43 756.85 95.00 756.00 95.00 754.52 C 95.00 752.66 95.47 752.00 96.63 752.21 C 97.85 752.43 98.36 751.53 98.67 748.59 C 99.04 745.17 98.90 744.84 97.56 745.95 C 96.23 747.06 96.06 746.64 96.23 742.61 C 96.35 739.86 96.91 738.00 97.61 738.00 C 99.22 738.00 100.32 734.82 99.00 734.00 C 98.24 733.53 98.23 732.52 98.96 730.61 C 99.53 729.10 99.58 728.14 99.07 728.46 C 98.56 728.77 97.84 728.56 97.48 727.97 C 96.49 726.37 98.91 724.03 100.82 724.75 C 102.23 725.28 102.30 725.13 101.23 723.81 C 100.54 722.96 100.25 721.52 100.59 720.62 C 101.06 719.40 100.80 719.14 99.61 719.60 C 98.56 720.00 98.00 719.68 98.00 718.69 C 98.00 717.80 99.26 716.88 101.00 716.50 C 104.60 715.71 105.07 714.07 101.50 714.76 C 99.98 715.05 99.00 714.77 99.00 714.06 C 99.00 713.41 99.50 713.19 100.11 713.57 C 100.72 713.95 101.62 713.64 102.10 712.88 C 103.42 710.78 103.17 709.72 101.50 710.36 C 99.79 711.02 99.40 708.49 101.05 707.47 C 101.76 707.03 101.72 706.37 100.91 705.39 C 99.94 704.22 100.03 704.07 101.36 704.58 C 103.12 705.26 103.66 703.52 102.00 702.50 C 101.45 702.16 101.00 701.21 101.00 700.38 C 101.00 699.56 101.45 699.16 102.00 699.50 C 102.55 699.84 103.00 699.15 103.00 697.96 C 103.00 696.78 103.92 694.52 105.03 692.95 C 106.38 691.06 106.98 688.83 106.82 686.37 C 106.67 684.13 107.05 682.48 107.78 682.24 C 108.45 682.02 109.00 681.25 109.00 680.54 C 109.00 679.83 109.70 678.67 110.55 677.96 C 111.40 677.26 111.87 676.09 111.59 675.37 C 111.31 674.65 111.52 673.80 112.05 673.47 C 112.58 673.14 112.75 671.86 112.44 670.61 C 112.09 669.21 112.46 667.86 113.42 667.06 C 114.28 666.35 114.74 665.39 114.45 664.92 C 114.16 664.45 114.78 663.53 115.83 662.88 C 116.91 662.20 117.54 660.95 117.28 659.97 C 116.97 658.78 117.61 658.06 119.42 657.61 C 122.11 656.93 122.92 654.54 120.75 653.66 C 120.06 653.38 120.49 653.12 121.69 653.08 C 124.17 652.99 125.96 651.00 123.56 651.00 C 122.70 651.00 122.00 650.77 122.00 650.48 C 122.00 649.30 127.33 642.00 128.19 642.00 C 128.70 642.00 128.81 641.50 128.43 640.89 C 128.01 640.21 125.90 639.95 123.08 640.22 C 118.51 640.66 115.04 638.96 115.78 636.67 C 116.50 634.47 114.72 632.00 112.43 632.00 C 111.09 632.00 110.00 632.45 110.00 633.00 C 110.00 633.55 109.16 634.00 108.14 634.00 C 106.86 634.00 105.75 632.64 104.64 629.72 C 103.74 627.36 103.00 625.00 103.00 624.46 C 103.00 623.17 97.43 620.75 94.45 620.75 C 92.16 620.75 92.14 620.68 93.80 618.41 C 94.73 617.12 95.86 616.05 96.31 616.03 C 96.75 616.01 96.86 615.58 96.55 615.07 C 96.20 614.52 94.74 614.50 92.90 615.03 C 90.32 615.77 89.92 615.66 90.41 614.37 C 90.73 613.53 91.00 612.45 91.00 611.99 C 91.00 611.52 91.90 610.85 93.00 610.50 C 94.14 610.14 95.00 608.99 95.00 607.82 C 95.00 606.13 95.44 605.89 97.58 606.43 C 99.78 606.98 100.07 606.80 99.57 605.21 C 99.18 603.98 99.46 603.33 100.37 603.33 C 104.56 603.33 114.00 596.65 114.00 593.68 C 114.00 592.81 114.56 591.74 115.25 591.30 C 116.49 590.51 121.01 582.21 121.00 580.73 C 121.00 580.31 122.12 578.18 123.50 576.00 C 124.88 573.82 126.00 571.13 126.00 570.02 C 126.00 568.91 126.45 568.00 127.00 568.00 C 127.55 568.00 128.00 567.10 128.00 566.00 C 128.00 564.69 128.67 564.00 129.93 564.00 C 131.92 564.00 136.06 559.59 135.92 557.62 C 135.88 556.98 135.62 557.07 135.32 557.80 C 134.93 558.78 134.45 558.65 133.43 557.30 C 131.53 554.80 131.67 554.00 134.00 554.00 C 136.14 554.00 136.79 551.43 134.82 550.77 C 132.24 549.91 135.33 547.82 138.62 548.20 C 142.62 548.67 143.19 546.76 139.90 543.91 C 137.98 542.25 137.92 541.81 139.14 539.04 C 139.88 537.37 140.95 536.00 141.50 536.00 C 143.44 536.00 148.14 530.81 147.57 529.32 C 147.26 528.50 147.00 527.21 147.00 526.45 C 147.00 525.63 146.39 525.30 145.50 525.64 C 144.68 525.95 144.00 525.72 144.00 525.11 C 144.00 524.50 144.45 524.00 145.00 524.00 C 145.55 524.00 146.00 523.33 146.00 522.50 C 146.00 521.67 146.35 521.00 146.78 521.00 C 147.21 521.00 148.43 518.75 149.50 516.00 C 150.57 513.25 151.76 511.00 152.16 511.00 C 153.66 511.00 153.92 512.82 152.59 513.92 C 151.83 514.56 151.44 515.96 151.72 517.04 C 152.38 519.56 154.00 519.59 154.00 517.07 C 154.00 516.01 154.75 514.39 155.66 513.48 C 157.06 512.08 157.10 511.68 155.92 510.95 C 154.15 509.85 154.64 503.81 156.60 502.70 C 157.37 502.26 158.00 501.25 158.00 500.45 C 158.00 499.65 158.45 499.00 159.00 499.00 C 159.55 499.00 160.00 498.07 160.00 496.94 C 160.00 495.81 160.41 495.14 160.92 495.45 C 161.42 495.76 162.13 494.69 162.49 493.07 C 162.84 491.44 164.45 488.29 166.07 486.07 C 167.68 483.84 169.00 481.34 169.00 480.51 C 169.00 479.67 169.88 479.00 171.00 479.00 C 172.10 479.00 173.03 478.44 173.08 477.75 C 173.37 473.00 175.07 470.30 178.64 468.95 C 180.21 468.35 180.96 467.12 181.18 464.80 C 181.43 462.28 181.92 461.57 183.28 461.80 C 184.71 462.04 184.94 461.62 184.46 459.68 C 183.99 457.84 184.47 456.78 186.42 455.24 C 187.84 454.12 189.00 452.84 189.00 452.38 C 189.00 451.91 191.02 449.65 193.50 447.35 C 195.98 445.04 198.00 442.29 198.00 441.22 C 198.00 440.12 200.37 437.25 203.50 434.54 C 206.52 431.93 209.01 429.28 209.03 428.65 C 209.08 427.08 212.58 423.00 213.88 423.00 C 214.46 423.00 215.41 422.10 216.00 421.00 C 216.59 419.90 216.77 419.00 216.41 419.00 C 215.08 419.00 218.49 415.76 220.71 414.92 C 222.02 414.42 223.00 413.21 223.00 412.10 C 223.00 411.02 223.56 409.53 224.25 408.78 C 224.94 408.03 226.00 406.53 226.60 405.46 C 227.21 404.38 228.63 403.36 229.77 403.19 C 230.90 403.02 232.07 402.26 232.36 401.49 C 232.73 400.54 232.40 400.29 231.29 400.72 C 230.21 401.13 229.91 400.95 230.39 400.17 C 230.79 399.53 231.69 399.00 232.40 399.00 C 234.51 399.00 236.07 394.13 236.13 387.37 C 236.16 382.90 236.55 381.00 237.45 381.00 C 238.27 381.00 238.55 380.11 238.25 378.51 C 237.45 374.35 238.88 369.00 240.80 368.98 C 242.26 368.97 242.29 368.83 241.00 368.02 C 239.76 367.23 239.72 366.71 240.75 365.04 C 241.44 363.93 242.00 362.39 242.00 361.62 C 242.00 360.85 242.70 359.94 243.56 359.61 C 244.42 359.28 245.01 358.22 244.87 357.26 C 244.56 355.19 247.64 349.00 248.98 349.00 C 249.49 349.00 250.22 347.37 250.59 345.37 C 251.03 343.04 251.94 341.57 253.14 341.25 C 254.16 340.99 255.00 339.97 255.00 339.01 C 255.00 338.04 255.65 336.71 256.44 336.05 C 258.38 334.44 257.42 332.37 253.90 330.52 C 252.31 329.69 249.63 328.28 247.96 327.40 C 245.35 326.04 245.10 325.58 246.21 324.23 C 247.33 322.86 247.20 322.73 245.14 323.26 C 241.48 324.21 235.79 317.91 239.25 316.75 C 240.18 316.43 240.22 315.96 239.39 314.91 C 237.33 312.28 237.01 307.43 238.74 304.96 C 239.78 303.47 239.98 302.49 239.29 302.26 C 238.70 302.07 238.44 301.03 238.72 299.96 C 239.00 298.90 239.58 298.24 240.00 298.50 C 241.43 299.39 240.51 295.51 239.00 294.28 C 237.68 293.21 237.70 293.06 239.16 293.03 C 240.28 293.01 240.65 292.39 240.32 291.11 C 240.05 290.07 240.31 288.92 240.91 288.55 C 241.51 288.18 242.00 287.19 242.00 286.35 C 242.00 285.51 243.01 283.98 244.25 282.94 C 245.49 281.91 245.98 281.05 245.34 281.03 C 244.00 280.99 244.77 277.00 246.12 277.00 C 246.60 277.00 247.00 276.09 247.00 274.97 C 247.00 273.85 247.68 272.68 248.50 272.36 C 249.32 272.05 250.00 271.26 250.00 270.61 C 250.00 269.04 253.21 265.03 260.75 257.19 C 264.19 253.62 267.00 249.86 267.00 248.85 C 267.00 247.83 267.45 247.00 268.00 247.00 C 268.55 247.00 269.00 246.47 269.00 245.82 C 269.00 243.90 273.10 236.00 274.09 236.00 C 274.59 236.00 275.00 235.51 275.00 234.92 C 275.00 232.76 282.04 223.31 287.70 217.86 C 303.33 202.83 306.85 199.85 312.50 196.84 C 320.61 192.51 330.04 189.63 336.50 189.50 C 339.80 189.44 342.76 189.76 343.08 190.23 C 343.40 190.70 344.93 190.60 346.47 190.01 C 348.00 189.43 350.04 189.20 350.99 189.50 C 352.22 189.89 354.13 188.37 357.58 184.27 C 363.26 177.54 373.00 167.94 378.00 164.16 C 379.92 162.70 381.86 160.95 382.30 160.26 C 382.74 159.57 383.94 159.00 384.97 159.00 C 385.99 159.00 386.98 158.66 387.17 158.25 C 388.03 156.30 397.90 152.78 403.50 152.42 C 405.15 152.31 408.98 151.89 412.00 151.48 C 418.54 150.60 431.06 150.29 431.50 151.00 C 431.67 151.27 436.77 151.42 442.83 151.32 C 451.78 151.18 453.95 151.43 454.41 152.64 C 454.73 153.46 455.48 153.82 456.09 153.45 C 456.69 153.07 458.51 153.74 460.12 154.93 C 461.73 156.12 463.48 156.82 464.02 156.49 C 464.56 156.15 465.00 156.40 465.00 157.04 C 465.00 158.59 470.86 164.00 472.55 164.00 C 473.28 164.00 474.14 164.41 474.45 164.92 C 475.18 166.11 481.54 164.39 485.62 161.90 C 487.34 160.85 490.94 159.73 493.62 159.41 C 496.30 159.09 499.17 158.58 500.00 158.26 C 504.68 156.50 513.78 155.90 514.37 157.32 C 514.68 158.09 515.13 158.15 515.67 157.50 C 516.64 156.33 519.96 156.24 521.73 157.34 C 522.41 157.75 524.66 157.76 526.73 157.36 C 531.87 156.35 532.92 156.45 537.29 158.39 C 539.38 159.31 541.45 159.84 541.90 159.56 C 542.35 159.28 544.13 159.46 545.86 159.96 C 548.11 160.61 549.01 160.53 549.03 159.68 C 549.05 158.96 549.54 159.09 550.28 160.04 C 550.95 160.88 552.36 161.40 553.40 161.18 C 554.45 160.97 555.72 161.53 556.22 162.43 C 556.92 163.67 557.96 163.91 560.57 163.42 C 563.90 162.80 564.62 163.40 564.08 166.37 C 563.99 166.85 564.58 166.99 565.39 166.68 C 567.56 165.85 572.92 168.17 573.57 170.22 C 573.88 171.20 574.72 172.00 575.43 172.00 C 577.42 172.00 583.33 178.02 585.98 182.75 C 587.42 185.31 589.09 187.00 590.18 187.00 C 591.35 187.00 592.00 187.74 592.00 189.06 C 592.00 190.19 592.45 190.84 593.00 190.50 C 593.55 190.16 594.47 191.14 595.05 192.69 C 595.62 194.24 596.63 195.95 597.30 196.50 C 598.71 197.67 604.99 209.77 605.03 211.39 C 605.04 212.00 606.32 214.02 607.86 215.88 L 610.67 219.27 L 615.94 217.92 C 620.71 216.70 621.33 216.73 622.47 218.28 C 623.82 220.13 626.53 220.57 627.45 219.09 C 628.26 217.76 634.00 220.16 634.00 221.83 C 634.00 222.78 634.73 223.03 636.34 222.63 C 638.11 222.19 639.41 222.82 641.72 225.27 C 643.40 227.05 645.39 229.04 646.14 229.70 C 649.01 232.24 651.72 236.50 657.76 248.00 C 659.92 252.12 664.40 259.61 667.71 264.64 C 671.01 269.67 674.33 275.86 675.08 278.39 C 675.82 280.93 676.76 283.00 677.16 283.00 C 677.55 283.00 678.18 285.03 678.55 287.51 C 678.93 289.99 679.63 292.27 680.12 292.57 C 681.61 293.49 681.10 294.97 679.50 294.36 C 677.55 293.61 677.59 294.98 679.61 297.86 C 680.76 299.50 681.05 301.29 680.61 304.02 C 680.27 306.14 680.35 308.10 680.79 308.37 C 681.75 308.96 681.65 336.69 680.68 337.65 C 679.63 338.71 679.88 342.81 681.04 343.53 C 681.61 343.88 681.84 344.92 681.55 345.85 C 680.43 349.37 679.97 358.14 680.93 357.54 C 682.33 356.68 690.94 361.24 690.97 362.87 C 690.99 363.77 691.82 364.08 693.42 363.77 C 695.22 363.43 695.98 363.81 696.36 365.28 C 696.70 366.58 697.42 367.05 698.45 366.66 C 699.41 366.29 700.50 366.84 701.26 368.09 C 701.94 369.20 703.92 370.80 705.66 371.63 C 707.40 372.46 709.08 374.18 709.40 375.44 C 709.74 376.81 711.30 378.29 713.24 379.09 C 715.03 379.82 717.30 381.43 718.28 382.66 C 719.26 383.89 721.62 385.46 723.53 386.15 C 725.52 386.87 727.00 388.08 727.00 389.00 C 727.00 389.88 727.50 391.10 728.12 391.72 C 728.73 392.33 729.77 393.88 730.43 395.17 C 731.22 396.71 732.37 397.42 733.84 397.26 C 735.40 397.09 736.33 397.75 737.00 399.51 C 737.52 400.88 738.42 402.00 739.00 402.00 C 739.57 402.00 740.56 403.12 741.18 404.50 C 741.81 405.88 742.92 407.00 743.66 407.00 C 744.40 407.00 745.00 407.90 745.00 409.00 C 745.00 410.33 745.67 411.00 747.00 411.00 C 748.11 411.00 749.00 411.67 749.00 412.50 C 749.00 413.33 749.79 414.83 750.75 415.84 C 751.71 416.85 753.01 418.54 753.64 419.59 C 754.26 420.64 755.50 421.44 756.39 421.36 C 757.85 421.24 758.44 422.22 758.12 424.25 C 758.05 424.66 758.64 425.00 759.43 425.00 C 760.22 425.00 761.14 425.86 761.47 426.91 C 761.80 427.96 762.73 429.07 763.54 429.38 C 764.34 429.68 765.00 430.80 765.00 431.85 C 765.00 432.90 765.67 434.32 766.50 435.00 C 767.33 435.68 768.00 436.86 768.00 437.62 C 768.00 439.21 771.52 443.00 773.00 443.00 C 773.55 443.00 774.00 444.12 774.00 445.50 C 774.00 446.96 774.57 448.00 775.39 448.00 C 776.15 448.00 777.52 449.58 778.43 451.50 C 779.35 453.42 780.68 455.00 781.39 455.00 C 782.11 455.00 783.40 455.79 784.27 456.75 C 785.88 458.52 786.00 458.86 786.00 461.43 C 786.00 462.22 786.80 463.12 787.78 463.43 C 788.76 463.74 790.43 465.46 791.48 467.25 C 793.89 471.36 799.78 477.06 803.58 478.97 C 807.56 480.97 811.89 485.02 813.05 487.81 C 813.59 489.13 814.75 490.05 815.75 489.95 C 820.88 489.43 822.85 490.06 823.67 492.51 L 824.50 495.01 L 828.14 492.43 L 831.78 489.84 L 835.38 492.17 C 837.36 493.45 838.98 495.06 838.99 495.75 C 838.99 496.44 839.64 497.00 840.43 497.00 C 841.22 497.00 842.15 497.90 842.50 499.00 C 842.85 500.10 843.61 501.00 844.20 501.00 C 844.86 501.00 845.04 502.34 844.69 504.50 C 844.22 507.40 844.43 508.00 845.90 508.00 C 848.49 508.00 848.99 508.90 847.94 511.67 C 847.11 513.84 847.58 514.70 851.93 518.93 C 858.84 525.66 862.01 534.00 857.65 534.00 C 856.88 534.00 855.68 533.33 855.00 532.50 C 853.67 530.90 849.00 530.41 849.00 531.88 C 849.00 532.36 849.67 533.32 850.50 534.00 C 851.33 534.68 852.00 535.55 852.00 535.92 C 852.00 536.53 846.84 536.61 846.25 536.00 C 846.11 535.86 845.59 535.69 845.08 535.62 C 844.58 535.56 843.83 535.16 843.42 534.75 C 843.00 534.34 841.60 534.00 840.30 534.00 C 839.00 534.00 837.67 533.30 837.34 532.44 C 837.01 531.59 836.16 531.11 835.45 531.38 C 834.74 531.65 832.97 530.78 831.53 529.44 C 826.13 524.44 823.05 528.11 828.30 533.29 C 830.09 535.05 835.11 542.58 839.44 550.00 C 843.77 557.42 848.37 564.89 849.66 566.59 C 850.95 568.30 852.00 570.38 852.00 571.22 C 852.00 572.07 852.67 573.32 853.50 574.00 C 854.33 574.68 855.00 575.62 855.00 576.07 C 855.00 576.53 856.11 578.10 857.48 579.57 C 858.84 581.04 860.24 583.88 860.60 585.87 C 860.95 587.87 862.45 591.53 863.93 594.00 C 867.10 599.28 868.39 602.17 868.12 603.36 C 868.02 603.83 868.47 604.86 869.14 605.66 C 869.80 606.46 870.45 608.16 870.59 609.44 C 870.73 610.72 871.78 613.62 872.94 615.88 C 874.09 618.14 875.20 621.23 875.40 622.75 C 875.60 624.26 876.35 626.85 877.08 628.50 C 877.80 630.15 878.43 631.95 878.47 632.50 C 878.52 633.05 878.89 634.03 879.29 634.68 C 879.70 635.33 879.58 636.14 879.02 636.49 C 878.46 636.84 878.03 637.88 878.07 638.81 C 878.13 640.21 878.27 640.17 878.90 638.57 C 879.45 637.16 879.87 636.97 880.42 637.88 C 880.85 638.56 880.66 640.40 880.01 641.97 C 878.98 644.46 879.10 645.10 880.91 646.91 C 882.06 648.06 883.00 650.25 883.00 651.78 C 883.00 653.31 883.61 655.44 884.35 656.53 C 885.09 657.61 885.96 660.15 886.28 662.17 C 886.59 664.20 887.72 666.72 888.77 667.77 C 890.74 669.74 892.10 675.35 892.36 682.50 C 892.45 685.15 892.96 686.49 893.87 686.50 C 894.73 686.50 895.91 689.04 897.00 693.23 C 897.96 696.94 898.36 699.72 897.88 699.42 C 897.39 699.13 897.00 700.46 897.00 702.38 C 897.00 704.31 897.47 706.17 898.05 706.53 C 898.77 706.98 898.75 707.60 897.98 708.53 C 897.18 709.49 897.16 710.44 897.93 711.87 C 899.29 714.40 899.32 719.00 897.98 719.00 C 897.43 719.00 897.07 720.35 897.20 722.00 C 897.32 723.65 897.84 725.00 898.34 725.00 C 898.84 725.00 898.99 726.28 898.68 727.85 C 898.37 729.42 898.58 731.18 899.15 731.75 C 899.86 732.46 899.86 733.40 899.13 734.76 C 898.55 735.85 898.28 736.95 898.54 737.20 C 898.80 737.46 899.16 740.33 899.35 743.59 C 899.54 746.84 900.04 750.29 900.46 751.25 C 900.99 752.47 900.76 753.00 899.73 753.00 C 898.91 753.00 897.65 753.71 896.93 754.59 C 896.04 755.65 894.69 755.99 892.81 755.61 C 890.75 755.20 890.00 755.44 890.00 756.53 C 890.00 758.49 889.00 758.39 887.44 756.25 C 886.46 754.91 886.44 754.17 887.33 753.08 C 888.30 751.90 888.10 751.76 886.13 752.26 C 883.20 753.02 880.00 751.14 880.00 748.65 C 880.00 747.40 879.50 746.98 878.50 747.36 C 877.67 747.68 877.00 747.40 877.00 746.75 C 877.00 745.99 876.47 746.11 875.49 747.08 C 874.19 748.38 874.12 750.05 875.01 758.55 C 875.93 767.43 875.86 768.63 874.37 769.72 C 873.00 770.72 872.93 771.21 873.97 772.47 C 874.99 773.69 874.99 774.30 874.00 775.50 C 873.05 776.64 873.01 778.00 873.84 781.25 C 874.52 783.92 874.56 785.62 873.96 785.83 C 873.43 786.02 873.00 787.21 873.00 788.48 C 873.00 789.75 872.30 791.06 871.44 791.39 C 870.58 791.72 870.16 792.45 870.51 793.01 C 870.85 793.57 871.48 793.82 871.91 793.56 C 873.09 792.82 872.41 799.11 870.90 802.75 C 870.10 804.70 868.85 806.00 867.78 806.00 C 866.49 806.00 866.00 806.78 866.00 808.86 C 866.00 811.88 861.83 817.00 859.36 817.00 C 858.61 817.00 858.00 817.66 858.00 818.47 C 858.00 819.33 857.41 819.71 856.57 819.39 C 855.58 819.01 855.29 819.39 855.62 820.67 C 855.91 821.81 855.29 822.99 853.96 823.81 C 852.14 824.93 851.27 824.82 847.89 823.06 C 844.50 821.29 843.86 821.21 843.36 822.50 C 843.02 823.38 843.76 824.83 845.14 825.99 L 847.50 827.97 L 843.64 831.49 C 841.52 833.42 838.97 835.00 837.97 835.00 C 836.98 835.00 836.00 835.51 835.79 836.12 C 835.59 836.74 834.21 837.25 832.73 837.25 C 831.25 837.25 829.52 837.87 828.90 838.62 C 828.27 839.38 827.14 840.00 826.38 840.00 C 825.62 840.00 825.00 840.90 825.00 842.00 C 825.00 844.04 824.76 844.14 819.50 844.37 C 817.85 844.44 816.05 844.76 815.50 845.07 C 814.95 845.39 812.59 846.25 810.25 846.98 C 807.91 847.72 806.00 848.60 806.00 848.94 C 806.00 849.28 804.21 849.38 802.03 849.17 C 799.22 848.91 797.56 849.30 796.34 850.52 C 794.70 852.15 794.57 852.15 793.88 850.37 C 793.46 849.32 793.11 849.10 793.07 849.87 C 793.03 850.73 792.26 851.04 791.00 850.71 C 789.63 850.35 789.00 850.68 789.00 851.76 C 789.00 852.63 788.70 853.04 788.34 852.68 C 787.98 852.31 787.03 852.56 786.22 853.23 C 785.25 854.03 781.73 854.36 775.88 854.18 C 769.37 853.99 767.00 854.25 767.00 855.15 C 767.00 855.83 766.34 855.51 765.53 854.44 C 764.72 853.37 764.05 853.03 764.03 853.69 C 764.01 854.48 762.85 854.69 760.51 854.31 C 758.40 853.97 756.43 854.23 755.53 854.98 C 754.41 855.91 753.28 855.94 750.91 855.12 C 749.18 854.52 747.41 854.25 746.97 854.52 C 746.53 854.79 744.94 854.55 743.44 853.98 C 741.39 853.20 740.33 853.28 739.11 854.30 C 738.22 855.05 735.71 855.76 733.53 855.88 C 731.35 856.00 729.32 856.41 729.03 856.81 C 728.37 857.71 722.99 858.02 723.29 857.14 C 723.40 856.79 723.05 856.50 722.50 856.50 C 721.95 856.50 721.63 856.89 721.79 857.37 C 721.95 857.85 721.35 857.96 720.45 857.62 C 716.17 855.98 714.00 855.82 714.00 857.14 C 714.00 858.12 712.69 858.44 709.25 858.29 C 701.53 857.95 693.48 858.02 691.28 858.45 C 690.15 858.66 687.60 858.47 685.61 858.03 C 683.63 857.58 682.00 857.59 682.00 858.04 C 682.00 859.34 657.04 858.67 656.21 857.36 C 655.82 856.74 653.03 855.92 650.00 855.53 C 643.72 854.71 640.30 852.85 633.85 846.75 C 632.83 845.79 632.00 845.27 632.00 845.59 C 632.00 845.91 630.62 845.01 628.92 843.59 C 627.23 842.16 625.41 841.00 624.88 841.00 C 623.91 841.00 618.68 837.54 616.24 835.29 C 615.52 834.62 613.59 833.28 611.96 832.32 C 610.33 831.36 609.00 830.22 609.00 829.78 C 609.00 829.35 608.33 829.00 607.50 829.00 C 606.67 829.00 606.00 828.30 606.00 827.44 C 606.00 826.58 605.55 826.16 605.00 826.50 C 604.45 826.84 604.00 826.39 604.00 825.49 C 604.00 824.32 603.44 824.04 602.00 824.50 C 600.58 824.95 600.00 824.68 600.00 823.55 C 600.00 821.86 598.36 818.58 596.13 815.79 C 595.37 814.85 595.02 813.40 595.34 812.57 C 595.65 811.74 595.47 810.79 594.94 810.46 C 594.41 810.13 594.19 809.51 594.45 809.08 C 594.72 808.65 594.29 807.44 593.50 806.40 C 592.71 805.35 592.05 803.66 592.03 802.64 C 592.00 800.72 590.05 800.69 584.25 802.52 C 582.31 803.14 582.00 802.87 582.00 800.62 C 582.00 799.12 581.49 798.11 580.81 798.25 C 580.15 798.39 579.43 797.60 579.19 796.50 C 578.96 795.40 578.26 794.15 577.63 793.73 C 576.86 793.21 577.25 792.33 578.86 790.98 C 581.93 788.41 581.16 784.51 577.39 783.56 C 575.95 783.20 574.52 783.15 574.22 783.45 C 573.91 783.75 574.39 784.00 575.27 784.00 C 578.54 784.00 577.69 785.50 574.35 785.62 C 571.68 785.72 570.97 785.38 571.21 784.12 C 571.37 783.23 572.53 782.05 573.77 781.51 C 575.01 780.96 575.81 779.95 575.55 779.26 C 574.80 777.33 576.03 775.01 577.86 774.88 C 578.76 774.82 578.15 774.46 576.50 774.09 L 573.50 773.41 L 576.50 771.75 C 578.45 770.67 578.91 770.07 577.81 770.04 C 576.26 770.00 576.04 768.56 576.89 763.87 C 576.95 763.52 577.90 763.00 579.00 762.71 C 580.34 762.36 580.80 761.65 580.40 760.59 C 580.06 759.71 580.29 759.00 580.93 759.00 C 581.55 759.00 582.44 757.99 582.90 756.75 C 583.52 755.06 583.27 754.18 581.90 753.22 C 580.36 752.14 580.25 751.54 581.23 749.40 C 582.16 747.35 582.11 746.68 580.94 745.94 C 578.87 744.63 576.89 744.79 577.07 746.25 C 577.43 748.96 576.91 749.87 574.85 750.18 C 573.67 750.36 572.21 751.36 571.60 752.42 C 569.58 755.95 567.57 758.00 566.14 758.00 C 565.37 758.00 563.69 759.12 562.42 760.49 C 561.12 761.90 559.48 762.74 558.65 762.42 C 557.74 762.07 556.93 762.63 556.53 763.89 C 556.11 765.22 554.68 766.16 552.44 766.58 C 549.92 767.05 549.00 767.74 549.00 769.16 C 549.00 770.42 547.81 771.60 545.62 772.51 C 543.76 773.29 541.98 774.62 541.65 775.46 C 541.33 776.31 539.96 777.00 538.60 777.00 C 537.16 777.00 536.01 777.66 535.82 778.60 C 535.48 780.29 529.04 782.96 525.25 782.98 C 524.01 782.99 523.00 783.43 523.00 783.95 C 523.00 784.48 521.44 784.71 519.54 784.47 C 517.07 784.15 515.83 784.48 515.19 785.63 C 514.69 786.52 513.21 787.38 511.89 787.56 C 510.58 787.73 507.36 788.29 504.75 788.80 C 502.14 789.32 499.99 789.46 499.97 789.12 C 499.95 788.78 499.52 789.21 499.02 790.08 C 498.24 791.41 497.38 791.49 493.55 790.60 C 491.05 790.02 489.00 789.20 489.00 788.77 C 489.00 788.35 488.52 788.00 487.93 788.00 C 487.32 788.00 487.14 788.85 487.50 790.00 C 488.03 791.68 487.68 792.00 485.32 791.99 C 483.77 791.98 480.02 791.32 477.00 790.51 C 473.62 789.61 471.37 789.42 471.17 790.02 C 470.63 791.60 466.99 791.14 466.33 789.41 C 465.88 788.25 464.90 787.98 462.61 788.40 C 458.88 789.09 451.97 785.82 441.50 778.43 C 437.65 775.72 433.21 772.83 431.63 772.01 C 430.05 771.20 427.80 769.52 426.63 768.28 C 425.46 767.05 423.44 766.03 422.14 766.02 C 419.64 766.00 419.61 766.35 421.56 774.25 C 422.08 776.40 421.88 777.00 420.62 777.00 C 418.56 777.00 418.58 777.27 421.00 781.23 C 422.09 783.03 422.99 785.29 423.00 786.25 C 423.00 787.21 423.50 788.00 424.12 788.00 C 424.78 788.00 424.54 789.06 423.51 790.63 C 422.56 792.07 422.19 793.53 422.68 793.88 C 423.17 794.22 423.63 795.62 423.70 797.00 C 423.88 800.36 424.63 804.71 425.81 809.26 C 426.40 811.50 426.43 813.24 425.88 813.57 C 425.38 813.88 425.24 814.58 425.57 815.11 C 425.90 815.65 425.65 816.72 425.00 817.50 C 424.36 818.27 424.13 819.83 424.48 820.95 C 424.86 822.14 424.69 823.00 424.07 823.00 C 423.48 823.00 423.00 823.60 423.00 824.33 C 423.00 825.07 422.31 825.67 421.46 825.67 C 420.61 825.67 420.12 825.12 420.38 824.45 C 420.69 823.66 420.17 823.40 418.93 823.73 C 417.16 824.19 416.03 827.21 417.75 826.84 C 419.01 826.57 422.41 828.23 424.07 829.92 C 425.49 831.38 425.47 831.69 423.89 833.36 C 422.93 834.37 422.37 835.81 422.66 836.56 C 423.54 838.85 421.00 845.00 419.17 845.02 C 417.97 845.03 417.85 845.25 418.75 845.82 C 420.89 847.18 418.00 852.11 415.50 851.37 C 413.87 850.89 413.73 851.02 414.75 852.09 C 416.66 854.10 416.24 855.83 413.75 856.18 C 412.25 856.39 411.60 857.08 411.79 858.25 C 411.96 859.21 411.62 860.00 411.04 860.00 C 410.47 860.00 409.99 859.44 409.98 858.75 C 409.98 857.98 409.69 857.88 409.23 858.50 C 408.83 859.05 407.72 859.56 406.78 859.63 C 405.41 859.74 405.25 859.39 406.03 857.95 C 407.40 855.38 407.27 855.00 405.00 855.00 C 403.90 855.00 403.00 855.45 403.00 856.00 C 403.00 856.55 401.88 857.00 400.50 857.00 C 398.94 857.00 398.00 856.43 398.00 855.50 C 398.00 854.67 397.55 854.00 397.00 854.00 C 396.45 854.00 396.00 854.69 396.00 855.53 C 396.00 856.38 394.66 858.38 393.01 859.99 C 391.11 861.85 390.25 863.49 390.64 864.51 C 391.06 865.59 390.61 866.29 389.29 866.64 C 388.20 866.92 386.71 868.69 385.97 870.58 C 385.23 872.46 384.04 874.00 383.31 874.00 C 382.59 874.00 382.00 874.75 382.00 875.67 C 382.00 876.58 381.70 877.04 381.34 876.67 C 380.97 876.31 379.88 877.79 378.90 879.97 C 377.71 882.63 376.29 884.14 374.56 884.57 C 373.15 884.93 372.00 885.84 372.00 886.61 C 372.00 887.37 371.55 888.00 371.00 888.00 C 370.45 888.00 369.99 888.56 369.97 889.25 C 369.93 890.77 366.07 895.10 363.43 896.58 C 362.37 897.18 361.06 898.64 360.51 899.83 C 359.97 901.02 359.06 902.00 358.48 902.00 C 357.91 902.00 356.78 902.93 355.97 904.07 C 354.22 906.55 346.37 910.35 344.90 909.44 C 344.33 909.09 343.62 909.74 343.32 910.90 C 342.95 912.29 341.96 913.00 340.38 913.00 C 339.07 913.00 338.00 913.45 338.00 914.00 C 338.00 914.55 337.17 915.00 336.15 915.00 C 335.14 915.00 332.89 915.71 331.16 916.57 C 328.40 917.95 324.95 918.50 315.00 919.16 C 313.62 919.25 309.89 919.03 306.70 918.67 C 302.42 918.19 301.08 918.33 301.61 919.18 C 302.11 919.99 301.75 920.11 300.41 919.59 C 299.36 919.18 296.70 918.67 294.50 918.46 C 292.30 918.24 288.84 917.87 286.81 917.62 C 284.32 917.32 283.01 917.59 282.81 918.46 C 282.59 919.39 281.83 919.50 280.11 918.86 Z M 339.65 776.08 C 348.66 767.35 352.69 761.50 355.59 752.93 C 360.49 738.46 361.00 725.52 357.46 705.53 C 355.48 694.35 355.55 692.71 357.86 696.50 C 368.12 713.32 371.79 718.41 378.18 724.70 C 388.95 735.30 390.01 735.97 396.93 736.50 C 401.72 736.88 403.00 736.68 403.00 735.56 C 403.00 734.78 403.56 733.55 404.25 732.82 C 404.94 732.09 406.06 729.90 406.74 727.95 C 407.85 724.79 407.70 723.57 405.36 716.95 C 402.99 710.20 402.71 707.85 402.41 692.00 C 402.01 670.77 403.84 659.36 409.57 647.29 C 417.54 630.48 432.35 615.82 450.50 606.77 C 477.02 593.55 506.92 592.45 529.00 603.88 C 533.75 606.34 550.87 623.22 555.17 629.68 C 563.68 642.46 566.98 648.17 568.94 653.49 C 570.16 656.78 571.51 659.93 571.95 660.49 C 573.47 662.39 579.00 679.96 579.00 682.86 C 579.00 684.45 579.66 687.34 580.47 689.27 C 581.37 691.42 581.84 695.33 581.70 699.37 C 581.48 705.66 581.61 706.07 584.48 708.23 C 586.79 709.97 588.83 710.50 593.15 710.50 L 598.80 710.50 L 600.04 705.34 C 600.72 702.50 601.03 699.24 600.73 698.09 C 600.40 696.82 601.66 693.01 603.98 688.26 C 610.58 674.75 616.26 652.75 619.23 629.15 C 620.33 620.41 620.71 579.82 620.09 538.14 C 619.98 530.79 620.16 524.50 620.49 524.18 C 621.11 523.55 625.90 528.91 625.96 530.29 C 625.98 530.73 627.69 532.91 629.75 535.13 C 631.81 537.35 633.95 540.01 634.51 541.04 C 635.06 542.06 638.12 545.59 641.30 548.88 C 647.33 555.11 649.18 555.91 656.95 555.65 C 661.30 555.50 661.43 555.40 662.66 551.17 L 663.92 546.85 L 655.69 537.67 C 644.53 525.23 641.81 521.59 637.99 514.00 C 628.56 495.27 627.50 475.68 634.50 449.52 C 635.99 443.92 635.98 443.46 634.36 442.27 C 633.40 441.57 632.02 441.00 631.30 441.00 C 630.57 441.00 629.08 440.44 627.99 439.76 C 626.24 438.67 625.53 439.00 621.99 442.54 C 619.78 444.75 617.78 447.56 617.54 448.78 C 616.24 455.54 614.42 454.16 613.12 445.43 C 611.30 433.21 609.05 424.94 605.67 418.00 C 603.15 412.83 601.73 411.14 598.75 409.74 C 595.04 408.00 594.30 406.64 595.80 404.29 C 596.39 403.36 597.46 403.39 600.53 404.44 C 607.32 406.76 619.52 408.29 625.37 407.56 C 628.41 407.18 632.38 405.87 634.20 404.66 C 640.87 400.19 646.90 387.79 648.58 375.08 C 649.17 370.62 648.98 369.89 646.57 367.48 C 645.08 365.99 643.27 365.07 642.46 365.38 C 641.65 365.69 641.00 365.50 641.00 364.97 C 641.00 363.17 637.08 363.98 636.00 366.00 C 635.41 367.10 634.32 368.00 633.57 368.00 C 631.77 368.00 630.85 370.44 630.35 376.50 C 630.12 379.25 628.59 384.27 626.94 387.68 C 624.53 392.65 623.38 393.98 621.04 394.49 C 616.25 395.54 606.52 393.06 600.77 389.31 C 594.53 385.25 589.53 383.00 586.72 383.00 C 585.61 383.00 583.02 384.76 580.97 386.91 C 577.66 390.39 577.18 391.58 576.56 397.66 C 574.17 421.43 571.52 433.54 566.26 444.73 C 560.32 457.37 552.47 462.01 537.07 461.99 C 517.88 461.95 504.08 455.34 494.65 441.66 C 488.51 432.73 486.70 426.23 486.58 412.63 L 486.47 400.75 L 481.49 398.34 C 475.46 395.42 472.97 395.86 469.44 400.49 C 467.49 403.05 466.68 405.48 466.36 409.73 C 465.64 419.44 463.91 428.78 461.83 434.27 C 460.74 437.15 459.49 440.62 459.04 442.00 C 455.97 451.48 445.68 463.60 437.86 466.96 C 427.98 471.22 412.22 470.73 403.00 465.89 C 397.14 462.81 389.18 454.30 385.65 447.34 C 384.08 444.26 384.14 443.97 387.92 435.84 C 392.39 426.21 395.00 415.65 395.00 407.20 C 395.00 398.70 393.59 395.54 388.49 392.55 C 380.87 388.08 375.72 389.42 368.76 397.68 C 363.12 404.36 361.62 410.75 361.69 427.78 L 361.76 442.06 L 358.37 444.85 C 356.51 446.38 351.95 448.73 348.24 450.07 C 342.31 452.21 339.83 452.50 327.50 452.49 C 310.47 452.48 299.59 450.32 291.17 445.28 C 275.07 435.62 267.06 421.29 264.58 397.72 C 263.90 391.25 262.93 385.60 262.42 385.18 C 261.92 384.75 259.77 383.82 257.65 383.10 C 253.84 381.81 253.74 381.85 249.91 385.58 C 246.51 388.90 246.10 389.81 246.52 392.94 C 246.79 394.90 247.18 400.14 247.38 404.58 C 247.59 409.03 248.24 413.58 248.84 414.70 C 249.43 415.81 250.16 418.06 250.44 419.69 C 251.45 425.42 257.16 436.26 261.75 441.16 C 277.40 457.89 297.55 466.14 325.50 467.26 L 331.50 467.50 L 331.13 474.50 C 330.93 478.34 330.29 482.62 329.71 484.00 C 328.48 486.93 327.99 570.74 329.13 584.00 C 330.29 597.54 331.09 605.31 331.59 608.00 C 331.85 609.38 332.73 615.22 333.54 621.00 C 334.35 626.78 335.72 633.97 336.58 637.00 C 337.43 640.03 338.97 645.56 339.98 649.29 C 341.00 653.03 342.26 656.63 342.78 657.29 C 343.31 657.96 344.30 660.97 344.98 664.00 C 345.66 667.03 347.26 671.31 348.53 673.53 C 349.79 675.75 351.14 679.23 351.52 681.28 C 352.15 684.59 352.00 685.00 350.17 685.00 C 349.04 685.00 347.84 684.55 347.50 684.00 C 346.38 682.18 343.54 682.97 340.31 686.00 C 336.96 689.14 336.93 689.43 338.43 700.50 C 340.28 714.13 340.65 726.22 339.61 739.36 C 338.80 749.62 334.47 757.76 324.87 767.05 C 317.67 774.03 316.87 776.06 319.88 779.68 C 321.50 781.62 323.86 782.32 330.50 782.84 C 331.75 782.93 335.19 780.39 339.65 776.08 Z M 379.13 689.25 C 369.46 670.02 359.19 638.76 355.07 616.00 C 349.41 584.66 347.99 562.31 348.00 504.42 L 348.00 466.34 L 353.25 465.15 C 356.14 464.49 360.92 462.73 363.88 461.24 L 369.27 458.54 L 372.88 462.58 C 381.97 472.74 391.96 478.82 404.94 482.10 C 411.97 483.88 415.47 484.16 426.90 483.82 C 438.99 483.47 441.13 483.14 446.17 480.80 C 456.79 475.89 466.80 466.92 471.62 457.99 C 472.66 456.07 474.27 453.42 475.20 452.10 L 476.90 449.70 L 482.70 455.02 C 499.68 470.57 514.26 476.12 538.37 476.21 C 551.42 476.26 560.00 474.56 565.13 470.91 C 566.60 469.86 568.20 469.00 568.69 469.00 C 569.17 469.00 572.09 466.41 575.19 463.25 C 581.22 457.08 586.63 447.36 589.43 437.64 C 590.36 434.42 591.31 431.97 591.54 432.20 C 593.18 433.85 596.65 471.66 597.67 499.00 C 598.74 527.72 598.28 623.22 597.03 633.50 C 596.43 638.45 595.66 645.55 595.32 649.28 C 594.68 656.35 593.29 658.88 592.27 654.85 C 590.80 649.07 579.34 628.61 572.53 619.62 C 561.65 605.25 552.24 597.16 538.15 590.08 C 521.53 581.72 503.63 578.23 486.44 580.00 C 459.76 582.74 441.53 589.32 423.43 602.74 C 408.62 613.72 394.65 632.14 390.02 646.78 C 388.85 650.48 387.41 654.38 386.82 655.44 C 385.76 657.36 382.74 685.42 382.91 691.75 C 382.96 693.54 382.78 695.00 382.51 695.00 C 382.25 695.00 380.73 692.41 379.13 689.25 Z M 462.56 736.82 C 463.97 737.97 466.48 738.50 470.56 738.50 L 476.50 738.50 L 480.30 727.50 C 482.39 721.45 485.65 710.65 487.54 703.50 C 489.44 696.35 491.52 688.53 492.16 686.12 C 493.25 682.05 493.43 681.87 494.74 683.62 C 496.04 685.36 496.12 685.28 495.82 682.51 C 495.70 681.42 495.37 680.50 494.90 679.91 C 495.37 680.49 495.71 681.38 495.83 682.41 C 496.00 683.93 496.73 685.76 497.47 686.60 C 497.37 686.70 497.28 686.94 497.20 687.31 C 497.00 688.30 497.08 689.77 497.38 690.56 C 498.57 693.65 499.87 691.92 498.74 688.75 C 498.60 688.36 498.47 688.02 498.35 687.73 C 498.77 688.43 499.07 689.22 499.12 689.82 C 499.36 693.37 499.56 693.90 501.50 696.18 C 501.65 696.35 501.80 696.54 501.95 696.74 C 501.34 696.02 501.00 695.88 501.00 696.46 C 501.00 696.79 502.64 700.31 504.64 704.28 C 506.64 708.25 509.56 714.08 511.12 717.24 C 514.42 723.87 520.80 730.69 524.17 731.18 C 525.45 731.37 528.58 731.62 531.12 731.75 L 535.74 731.99 L 536.41 727.00 C 536.95 722.92 536.58 720.78 534.39 715.26 C 530.48 705.37 525.76 696.31 525.26 697.75 C 525.05 698.38 525.62 700.12 526.57 701.79 C 525.64 700.16 524.98 698.44 525.06 697.79 C 525.41 695.23 524.98 694.00 523.75 694.00 C 523.73 694.00 523.72 694.00 523.70 694.00 C 524.04 693.36 523.28 690.49 521.08 685.75 C 518.98 681.21 516.12 674.87 514.74 671.66 C 513.47 668.70 512.21 666.57 511.79 666.61 C 511.78 664.96 510.97 661.75 509.94 659.35 C 507.42 653.48 507.45 653.28 511.09 652.48 C 512.79 652.11 515.15 650.68 516.34 649.31 C 516.12 649.63 516.00 649.93 516.00 650.17 C 516.00 651.49 525.21 646.51 527.68 643.85 C 528.88 642.56 530.34 640.26 530.91 638.75 C 532.07 635.69 531.16 635.26 529.55 637.10 C 530.13 636.42 530.63 636.00 530.90 636.00 C 531.57 636.00 531.64 634.50 531.27 632.55 C 531.45 632.83 531.71 633.00 532.00 633.00 C 532.55 633.00 533.00 631.46 533.00 629.58 C 533.00 626.77 532.17 625.43 528.25 621.95 C 523.50 617.73 518.13 614.01 516.78 614.00 C 516.39 614.00 516.32 614.66 516.63 615.47 C 516.62 615.46 516.62 615.46 516.62 615.45 C 516.29 614.60 513.88 612.93 511.26 611.74 C 507.36 609.97 504.61 609.59 496.00 609.59 C 485.63 609.59 473.90 611.79 473.21 613.88 C 473.09 614.24 471.77 615.29 469.97 616.51 C 474.40 613.48 473.75 612.59 467.80 615.60 C 455.54 621.81 448.21 631.34 449.55 639.32 C 449.94 641.58 450.75 644.23 451.36 645.21 C 451.98 646.20 452.64 647.00 452.84 647.00 C 452.98 647.00 452.94 645.54 452.75 643.44 C 453.27 645.83 454.23 647.82 455.67 648.95 C 458.67 651.32 467.37 653.95 472.87 654.17 C 473.96 654.21 474.89 654.34 475.62 654.55 C 475.44 654.92 475.31 655.48 475.26 656.25 C 475.06 658.94 471.40 678.74 470.00 684.76 C 469.45 687.11 469.01 690.26 469.03 691.76 C 469.06 694.34 469.13 694.38 470.26 692.50 C 470.33 692.40 470.39 692.29 470.45 692.17 C 470.18 692.78 469.89 693.38 469.59 693.94 C 468.06 696.80 467.96 697.71 469.01 699.39 C 469.01 699.40 469.02 699.40 469.02 699.40 C 468.75 699.16 468.42 699.00 468.08 699.00 C 467.63 699.00 466.98 700.91 466.62 703.25 C 466.26 705.59 465.58 709.41 465.12 711.75 C 464.67 713.98 464.63 715.83 465.00 715.99 C 464.97 716.00 464.95 716.00 464.92 716.00 C 463.76 716.00 463.75 719.10 464.79 721.25 C 463.64 719.88 463.42 720.13 462.89 723.10 C 462.56 724.97 461.94 727.74 461.53 729.25 C 460.48 733.11 461.88 732.63 463.60 729.16 L 462.10 732.48 L 464.02 733.55 C 461.38 732.64 460.07 734.79 462.56 736.82 Z M 247.85 637.50 C 248.99 634.15 249.00 628.89 247.95 605.33 C 246.02 562.21 247.71 546.76 256.33 528.80 C 262.79 515.33 270.72 505.95 282.20 498.19 C 284.98 496.31 287.81 493.37 288.77 491.35 C 290.38 487.99 290.37 487.74 288.64 486.48 C 287.64 485.74 285.12 484.86 283.05 484.51 C 272.24 482.68 246.54 507.73 236.85 529.54 C 230.35 544.18 226.83 569.20 228.15 591.50 C 229.22 609.61 229.95 619.63 230.57 624.70 C 230.89 627.34 231.29 631.50 231.46 633.95 C 231.88 639.92 234.26 641.80 241.21 641.63 C 246.44 641.50 246.51 641.46 247.85 637.50 Z M 764.90 796.08 C 766.28 791.72 766.25 791.61 763.58 789.48 C 762.08 788.29 757.18 785.15 752.68 782.50 C 738.01 773.88 734.02 770.82 727.72 763.33 C 720.08 754.26 715.12 745.32 712.28 735.50 C 706.50 715.54 705.22 696.16 708.51 678.76 C 709.10 675.63 708.92 674.93 707.36 674.43 C 706.34 674.11 704.27 673.18 702.77 672.38 C 697.62 669.61 692.05 675.19 689.68 685.50 C 687.77 693.80 686.86 713.99 688.12 720.14 C 688.61 722.54 689.26 726.71 689.56 729.41 C 689.86 732.11 690.76 735.57 691.56 737.11 C 692.35 738.64 693.00 740.60 693.00 741.46 C 693.00 742.32 693.40 743.81 693.89 744.76 C 694.38 745.72 696.22 749.61 697.98 753.42 C 704.70 767.93 715.88 779.27 734.74 790.72 C 751.46 800.87 751.71 800.97 757.97 800.72 L 763.50 800.50 Z M 186.67 784.52 C 190.25 782.01 190.13 776.77 186.19 764.50 C 182.76 753.83 182.65 753.05 182.72 738.33 C 182.86 709.08 187.39 694.36 200.73 679.82 C 207.25 672.72 208.78 668.51 205.25 667.38 C 204.29 667.07 202.46 666.32 201.20 665.71 C 198.25 664.30 194.45 666.26 187.50 672.80 C 180.13 679.73 175.68 685.61 171.55 693.86 C 163.19 710.56 160.10 741.32 164.85 760.50 C 166.07 765.45 167.10 770.17 167.13 771.00 C 167.15 771.83 167.82 774.54 168.60 777.04 C 170.26 782.33 173.86 784.96 178.70 784.40 C 180.46 784.19 182.17 784.47 182.51 785.01 C 183.34 786.36 184.19 786.26 186.67 784.52 Z M 830.72 650.15 C 832.11 646.83 832.09 645.86 830.51 639.50 C 822.37 606.59 812.59 589.67 786.16 562.77 C 775.32 551.75 770.59 547.63 767.32 546.38 L 762.96 544.71 L 760.01 547.61 C 758.38 549.20 757.04 551.24 757.03 552.14 C 757.00 553.83 761.77 559.58 772.66 571.00 C 779.21 577.88 788.02 589.20 790.43 593.86 C 791.22 595.39 792.57 597.23 793.43 597.95 C 794.30 598.66 795.00 600.13 795.00 601.22 C 795.00 602.30 795.85 604.39 796.90 605.86 C 798.76 608.47 806.00 626.02 806.00 627.92 C 806.00 629.72 811.14 645.50 812.70 648.50 C 815.07 653.04 816.57 653.80 823.15 653.80 C 829.15 653.80 829.19 653.78 830.72 650.15 Z M 240.37 830.49 C 242.67 828.18 243.26 821.56 242.17 809.99 C 240.94 796.94 239.71 793.31 229.97 774.00 C 220.79 755.82 219.00 750.28 219.00 740.12 C 219.00 733.75 219.38 732.06 221.48 729.03 C 224.58 724.56 225.82 719.19 223.87 718.66 C 223.12 718.45 220.83 717.74 218.78 717.09 C 215.44 716.02 214.76 716.12 212.04 718.13 C 203.93 724.13 200.42 734.37 201.47 749.00 C 202.19 759.06 204.74 766.89 210.91 778.00 C 212.59 781.03 214.45 784.62 215.03 786.00 C 215.62 787.38 216.92 790.30 217.92 792.50 C 221.39 800.14 221.91 802.56 222.41 813.50 C 222.69 819.55 222.99 824.61 223.08 824.75 C 223.18 824.89 223.31 825.52 223.38 826.16 C 223.59 828.16 229.88 831.07 232.55 830.40 C 234.05 830.02 235.00 830.21 235.00 830.89 C 235.00 832.52 238.61 832.24 240.37 830.49 Z M 726.41 566.92 C 727.84 565.23 729.00 563.01 729.00 561.98 C 729.00 559.99 723.80 555.74 707.97 544.80 C 702.73 541.17 695.44 535.03 691.77 531.14 C 685.99 525.01 684.82 523.11 682.93 516.79 C 679.93 506.76 680.57 493.27 684.44 484.52 C 685.90 481.23 686.96 477.22 686.80 475.60 C 686.55 473.10 685.83 472.43 682.15 471.21 C 678.11 469.87 677.60 469.91 675.15 471.72 C 670.31 475.30 667.01 481.47 665.26 490.21 C 663.48 499.06 663.13 512.62 664.48 520.00 C 666.41 530.55 675.78 541.66 692.78 553.58 C 714.19 568.58 715.12 569.13 718.05 568.49 C 719.59 568.15 721.10 568.35 721.46 568.94 C 722.52 570.65 723.66 570.19 726.41 566.92 Z M 263.50 668.74 C 267.27 666.74 277.27 657.50 279.55 653.90 C 283.01 648.45 285.02 640.52 285.62 630.00 C 286.34 617.27 284.60 582.43 283.16 580.69 C 282.54 579.94 280.16 578.71 277.87 577.96 C 273.71 576.58 273.71 576.59 270.87 579.98 L 268.04 583.38 L 268.07 607.94 C 268.11 634.80 267.69 639.52 264.75 645.50 C 262.62 649.83 258.21 655.00 256.66 655.00 C 255.13 655.00 249.00 659.98 249.00 661.22 C 249.00 661.84 248.26 663.17 247.35 664.17 C 245.86 665.81 246.18 666.24 248.64 665.91 C 248.99 665.87 249.55 666.24 249.89 666.75 C 251.84 669.69 259.58 670.82 263.50 668.74 Z M 785.70 699.21 C 788.03 697.72 789.06 688.95 788.51 675.15 C 787.87 658.77 787.20 654.55 783.18 641.42 C 781.53 636.02 775.09 623.39 773.05 621.54 C 770.89 619.59 762.00 618.12 762.00 619.72 C 762.00 620.25 761.10 621.73 760.00 623.00 C 758.90 624.27 758.00 625.90 758.00 626.63 C 758.00 627.85 761.42 635.85 764.60 642.09 C 766.81 646.42 768.04 655.58 769.16 676.00 C 769.75 686.72 770.59 695.89 771.03 696.36 C 771.47 696.84 773.90 697.46 776.44 697.75 C 778.97 698.03 781.29 698.66 781.58 699.13 C 782.24 700.19 784.09 700.23 785.70 699.21 Z M 525.88 535.57 C 530.46 538.67 540.79 539.08 543.14 536.25 C 546.55 532.13 547.65 528.04 548.52 516.24 C 549.07 508.82 548.88 507.42 546.65 502.55 C 544.03 496.81 538.79 492.51 533.04 491.36 C 529.52 490.65 523.51 494.57 520.08 499.79 C 517.49 503.74 515.59 513.96 516.51 519.00 C 517.62 525.11 522.07 532.98 525.88 535.57 Z M 415.00 544.00 C 415.00 542.90 415.43 542.00 415.96 542.00 C 415.43 542.00 415.00 542.92 415.00 544.04 C 415.00 545.75 415.31 545.90 416.96 545.02 C 419.93 543.43 423.00 532.29 423.00 523.14 C 423.00 515.92 422.79 515.20 419.19 510.00 C 415.12 504.12 410.49 501.13 405.33 501.05 C 402.75 501.01 401.39 501.89 398.10 505.74 C 394.40 510.08 392.06 515.40 393.32 516.65 C 393.50 516.83 393.96 516.35 394.50 515.49 C 392.99 518.57 392.98 519.53 393.98 521.94 C 393.98 521.95 393.98 521.96 393.99 521.97 C 393.69 521.51 393.34 521.29 392.97 521.52 C 391.89 522.19 391.67 526.97 392.61 529.42 C 392.94 530.29 393.44 531.00 393.71 531.00 C 393.74 531.00 393.76 531.00 393.78 530.99 C 393.97 531.83 394.39 532.67 395.05 533.61 C 394.85 533.35 394.66 533.13 394.48 532.99 C 391.70 530.67 393.73 539.26 396.56 541.75 C 397.96 542.99 399.54 544.00 400.06 544.00 C 400.55 544.00 400.84 543.78 400.94 543.46 C 400.98 543.59 401.00 543.72 401.00 543.83 C 401.00 544.59 401.60 544.98 402.34 544.70 C 403.08 544.42 404.32 544.59 405.09 545.08 C 405.87 545.57 408.41 545.98 410.75 545.98 C 414.34 546.00 415.00 545.69 415.00 544.00 Z M 124.00 637.17 C 124.00 636.00 119.14 633.53 118.36 634.31 C 117.34 635.33 120.06 638.00 122.12 638.00 C 123.16 638.00 124.00 637.63 124.00 637.17 Z M 136.53 627.25 C 135.75 624.15 135.25 623.42 134.45 624.22 C 133.59 625.07 135.10 630.00 136.22 630.00 C 136.81 630.00 136.93 628.88 136.53 627.25 Z M 105.00 758.12 C 105.00 757.64 104.37 756.72 103.59 756.07 C 102.02 754.77 100.42 756.25 101.50 758.00 C 102.26 759.23 105.00 759.33 105.00 758.12 Z M 244.83 320.12 C 245.83 319.49 245.58 319.12 243.83 318.65 C 240.24 317.69 239.65 317.87 241.00 319.50 C 242.42 321.21 242.97 321.30 244.83 320.12 Z M 583.28 770.30 C 582.61 768.53 580.00 768.65 580.00 770.44 C 580.00 771.23 580.85 771.81 581.89 771.73 C 582.99 771.65 583.57 771.05 583.28 770.30 Z M 106.35 736.47 C 106.04 735.66 105.16 735.00 104.38 735.00 C 103.25 735.00 103.21 735.37 104.19 736.94 C 105.55 739.11 107.22 738.74 106.35 736.47 Z M 865.42 798.87 C 864.63 797.59 863.00 798.81 863.00 800.68 C 863.00 801.95 863.28 802.01 864.49 801.01 C 865.31 800.33 865.73 799.37 865.42 798.87 Z M 99.00 775.00 C 99.00 774.45 99.45 774.00 100.00 774.00 C 100.55 774.00 101.00 774.45 101.00 775.00 C 101.00 775.55 100.55 776.00 100.00 776.00 C 99.45 776.00 99.00 775.55 99.00 775.00 Z M 169.00 489.00 C 169.00 488.45 168.55 488.00 168.00 488.00 C 167.45 488.00 167.00 488.45 167.00 489.00 C 167.00 489.55 167.45 490.00 168.00 490.00 C 168.55 490.00 169.00 489.55 169.00 489.00 Z M 527.36 624.63 C 524.38 621.17 519.78 617.03 518.50 617.00 C 520.42 617.03 524.41 620.78 527.36 624.63 Z M 518.35 686.11 C 516.13 681.55 513.87 675.91 512.67 671.66 C 513.93 675.72 516.16 681.49 518.35 686.11 Z M 393.67 529.58 C 393.40 528.83 393.64 527.76 394.20 527.20 C 394.25 527.15 394.29 527.11 394.32 527.05 C 393.94 527.99 393.72 528.81 393.67 529.58 Z M 457.74 624.87 C 454.73 626.49 452.86 631.37 452.40 636.41 C 452.77 631.10 454.82 626.44 457.74 624.87 Z M 533.83 724.60 C 534.01 723.01 532.91 718.28 531.39 714.10 C 529.86 709.92 528.67 706.28 528.73 706.00 C 528.74 705.96 528.73 705.88 528.70 705.77 C 528.83 706.09 528.91 706.35 528.92 706.50 C 528.95 707.05 530.15 710.70 531.57 714.60 C 532.99 718.51 534.01 723.01 533.83 724.60 Z M 399.74 541.46 C 399.68 541.43 399.61 541.41 399.55 541.38 C 399.09 541.21 398.52 540.56 398.00 539.70 C 398.30 540.06 398.64 540.42 399.00 540.73 C 399.26 540.95 399.51 541.20 399.74 541.46 Z M 475.20 734.28 C 473.70 735.24 468.15 735.19 465.44 734.18 C 468.42 735.13 473.74 735.21 475.20 734.28 Z M 396.99 537.46 C 396.56 536.18 395.87 534.80 395.24 533.87 C 395.24 533.88 395.24 533.88 395.25 533.88 C 396.14 535.10 396.88 536.64 396.99 537.46 Z M 527.81 639.60 C 526.67 641.50 524.41 643.72 522.72 644.61 C 524.58 643.47 526.76 641.35 527.81 639.60 Z M 395.83 512.98 C 396.77 511.22 398.13 509.28 399.07 508.44 C 400.13 507.48 401.00 506.09 401.00 505.35 C 401.00 506.09 400.16 507.45 399.14 508.37 C 398.33 509.11 396.98 511.01 395.83 512.98 Z M 477.47 655.78 C 477.48 655.81 477.49 655.83 477.50 655.86 C 477.89 656.89 477.55 659.82 476.54 664.29 C 477.54 659.85 477.86 656.98 477.47 655.78 Z M 468.71 703.99 C 469.00 705.09 468.41 707.98 467.59 710.64 C 468.40 707.95 468.98 705.04 468.71 703.99 Z M 530.98 631.32 C 530.81 630.67 530.60 630.00 530.36 629.34 C 530.70 630.09 530.92 630.76 530.98 631.32 Z M 505.00 701.37 C 506.99 704.71 509.41 709.24 512.10 714.71 C 509.47 709.37 506.96 704.70 505.00 701.37 Z M 465.13 725.48 C 464.96 726.01 464.73 726.61 464.43 727.29 C 464.72 726.60 464.95 726.00 465.13 725.48 Z" stroke-linecap="round"/>
</g>
		<g id="f4b3cd5e-189c-412c-ab36-9d97c3d0d486-child-4">
<path style="stroke: rgb(193,193,193); stroke-width: 0; stroke-dasharray: none; stroke-linecap: butt; stroke-dashoffset: 0; stroke-linejoin: miter; stroke-miterlimit: 4; fill: rgb(255,233,113); fill-rule: nonzero; opacity: 1;" transform="matrix(1.27485 0 0 1.27485 516.63729 490.368393) matrix(1 0 0 1 -25.083547 79.632702)  translate(-470.398589, -614.888388)" d="M 462.56 736.82 C 459.83 734.59 461.68 732.22 464.83 733.91 C 467.40 735.28 474.67 735.34 475.51 733.99 C 475.85 733.43 476.95 730.17 477.95 726.74 C 491.84 678.90 491.87 678.83 493.88 679.21 C 494.85 679.39 495.63 680.72 495.82 682.51 C 496.12 685.28 496.04 685.36 494.74 683.62 C 493.43 681.87 493.25 682.05 492.16 686.12 C 491.52 688.53 489.44 696.35 487.54 703.50 C 485.65 710.65 482.39 721.45 480.30 727.50 L 476.50 738.50 L 470.56 738.50 C 466.48 738.50 463.97 737.97 462.56 736.82 Z M 461.53 729.25 C 461.94 727.74 462.56 724.97 462.89 723.10 C 463.43 720.07 463.65 719.88 464.86 721.33 C 466.01 722.72 465.93 723.64 464.36 727.48 C 462.33 732.41 460.33 733.66 461.53 729.25 Z M 524.17 731.18 C 520.80 730.69 514.42 723.87 511.12 717.24 C 509.56 714.08 506.64 708.25 504.64 704.28 C 502.64 700.31 501.00 696.79 501.00 696.46 C 501.00 694.21 506.23 702.81 512.10 714.71 C 513.79 718.13 516.85 722.44 518.90 724.29 C 522.22 727.29 523.25 727.66 528.07 727.58 C 533.30 727.50 533.51 727.39 533.83 724.60 C 534.01 723.01 533.00 718.51 531.57 714.60 C 530.15 710.70 528.95 707.05 528.92 706.50 C 528.88 705.95 527.95 704.04 526.84 702.25 C 525.74 700.46 525.03 698.43 525.26 697.75 C 525.76 696.31 530.48 705.37 534.39 715.26 C 536.58 720.78 536.95 722.92 536.41 727.00 L 535.74 731.99 L 531.12 731.75 C 528.58 731.62 525.45 731.37 524.17 731.18 Z M 465.12 711.75 C 465.58 709.41 466.26 705.59 466.62 703.25 C 466.98 700.91 467.63 699.00 468.08 699.00 C 469.40 699.00 470.44 701.35 469.28 701.74 C 468.69 701.94 468.43 702.95 468.71 703.99 C 469.27 706.12 466.26 716.00 465.05 716.00 C 464.62 716.00 464.65 714.09 465.12 711.75 Z M 469.03 691.76 C 469.01 690.26 469.45 687.11 470.00 684.76 C 471.40 678.74 475.06 658.94 475.26 656.25 C 475.46 653.59 476.52 653.31 477.44 655.69 C 478.10 657.44 477.02 663.36 474.28 673.00 C 473.42 676.03 472.53 680.30 472.31 682.50 C 472.09 684.70 471.81 687.40 471.69 688.50 C 471.57 689.60 470.92 691.40 470.26 692.50 C 469.13 694.38 469.06 694.34 469.03 691.76 Z M 519.15 687.75 C 515.32 680.14 510.98 667.85 511.70 666.68 C 511.99 666.21 513.36 668.45 514.74 671.66 C 516.12 674.87 518.98 681.21 521.08 685.75 C 525.67 695.64 524.00 697.37 519.15 687.75 Z M 497.38 690.56 C 497.08 689.77 497.00 688.30 497.20 687.31 C 497.48 685.98 497.89 686.36 498.74 688.75 C 499.87 691.92 498.57 693.65 497.38 690.56 Z M 516.00 650.17 C 516.00 648.97 518.93 646.53 522.63 644.66 C 524.35 643.79 526.70 641.48 527.85 639.54 C 530.38 635.25 532.44 634.72 530.91 638.75 C 530.34 640.26 528.88 642.56 527.68 643.85 C 525.21 646.51 516.00 651.49 516.00 650.17 Z M 451.36 645.21 C 450.75 644.23 449.94 641.58 449.55 639.32 C 448.21 631.34 455.54 621.81 467.80 615.60 C 474.68 612.11 474.47 613.86 467.50 618.09 C 464.48 619.92 462.00 621.80 462.00 622.27 C 462.00 622.74 461.55 622.84 461.00 622.50 C 460.45 622.16 460.00 622.28 460.00 622.77 C 460.00 623.26 458.99 624.20 457.75 624.87 C 453.99 626.88 451.68 633.98 452.50 641.00 C 452.88 644.30 453.04 647.00 452.84 647.00 C 452.64 647.00 451.98 646.20 451.36 645.21 Z M 531.00 631.61 C 531.00 627.84 521.72 617.00 518.48 617.00 C 517.78 617.00 516.95 616.33 516.64 615.50 C 516.32 614.67 516.39 614.00 516.78 614.00 C 518.13 614.01 523.50 617.73 528.25 621.95 C 532.17 625.43 533.00 626.77 533.00 629.58 C 533.00 631.46 532.55 633.00 532.00 633.00 C 531.45 633.00 531.00 632.38 531.00 631.61 Z M 415.00 544.04 C 415.00 542.92 415.43 542.00 415.96 542.00 C 419.45 542.00 421.66 515.62 418.40 512.91 C 417.51 512.18 416.42 510.60 415.96 509.40 C 415.50 508.19 413.68 506.49 411.91 505.61 C 407.90 503.61 401.00 503.44 401.00 505.35 C 401.00 506.08 400.13 507.48 399.07 508.44 C 398.01 509.40 396.40 511.75 395.49 513.67 C 394.57 515.59 393.60 516.93 393.32 516.65 C 392.06 515.40 394.40 510.08 398.10 505.74 C 401.39 501.89 402.75 501.01 405.33 501.05 C 410.49 501.13 415.12 504.12 419.19 510.00 C 422.79 515.20 423.00 515.92 423.00 523.14 C 423.00 532.29 419.93 543.43 416.96 545.02 C 415.31 545.90 415.00 545.75 415.00 544.04 Z M 396.56 541.75 C 393.73 539.26 391.70 530.67 394.48 532.99 C 395.26 533.63 396.39 535.66 397.00 537.49 C 397.60 539.32 398.75 541.07 399.55 541.38 C 401.16 542.00 401.54 544.00 400.06 544.00 C 399.54 544.00 397.96 542.99 396.56 541.75 Z M 525.88 535.57 C 522.07 532.98 517.62 525.11 516.51 519.00 C 515.59 513.96 517.49 503.74 520.08 499.79 C 523.51 494.57 529.52 490.65 533.04 491.36 C 538.79 492.51 544.03 496.81 546.65 502.55 C 548.88 507.42 549.07 508.82 548.52 516.24 C 547.65 528.04 546.55 532.13 543.14 536.25 C 540.79 539.08 530.46 538.67 525.88 535.57 Z M 543.45 532.05 C 545.88 529.52 546.20 528.53 545.73 525.05 C 545.43 522.82 545.53 520.79 545.95 520.53 C 546.37 520.27 546.79 517.20 546.88 513.71 C 547.03 508.50 546.58 506.51 544.43 502.65 C 541.45 497.32 536.15 494.00 530.64 494.00 C 527.85 494.00 526.81 494.61 525.13 497.25 C 523.99 499.04 522.31 501.52 521.39 502.77 C 520.16 504.45 519.70 507.33 519.62 513.77 C 519.52 521.47 519.83 523.11 522.24 527.69 C 523.75 530.55 525.77 533.35 526.74 533.91 C 527.71 534.48 531.23 534.95 534.56 534.97 C 539.99 535.00 540.92 534.69 543.45 532.05 Z M 392.61 529.42 C 391.67 526.97 391.89 522.19 392.97 521.52 C 394.34 520.67 395.48 525.92 394.20 527.20 C 393.63 527.77 393.39 528.86 393.69 529.62 C 393.98 530.38 393.99 531.00 393.71 531.00 C 393.44 531.00 392.94 530.29 392.61 529.42 Z" stroke-linecap="round"/>
</g>
</g>
</g>

  </svg>