<svg xmlns="http://www.w3.org/2000/svg" xmlns:xlink="http://www.w3.org/1999/xlink" width="828px" height="534px" viewBox="0 0 828.2341078272311 534.1439172849969">
    <g id="d7ba4dde-4006-4497-bc3c-c25d6efce828">
<g style="">
		<g id="d7ba4dde-4006-4497-bc3c-c25d6efce828-child-0">
<path style="stroke: rgb(193,193,193); stroke-width: 0; stroke-dasharray: none; stroke-linecap: butt; stroke-dashoffset: 0; stroke-linejoin: miter; stroke-miterlimit: 4; fill: rgb(255,233,113); fill-rule: nonzero; opacity: 1;" transform="matrix(0.486927 0 0 0.48723 418.899446 85.800719) matrix(1 0 0 1 0 0)  translate(-460.5, -177.476101)" d="M 511.00 353.34 C 503.08 352.61 481.79 349.03 472.50 346.88 C 448.17 341.25 428.51 333.79 399.17 319.05 C 381.55 310.20 376.11 307.81 366.33 304.57 C 349.92 299.14 332.89 298.40 315.00 302.35 C 298.56 305.98 284.92 307.18 273.62 306.01 C 262.62 304.87 262.88 304.95 252.13 299.71 C 246.33 296.88 241.73 293.67 237.13 289.23 C 233.48 285.71 229.38 282.24 228.00 281.52 C 226.06 280.50 217.49 277.78 216.27 277.79 C 215.93 277.79 200.95 274.23 197.00 273.21 C 174.13 267.26 143.00 244.14 143.00 233.09 C 143.00 227.63 147.85 226.15 166.62 225.89 C 178.53 225.73 186.39 223.40 197.46 216.74 C 205.43 211.94 210.07 207.96 228.50 190.08 C 248.72 170.48 259.22 163.57 275.00 159.50 C 285.05 156.90 286.26 155.19 280.20 152.10 C 275.19 149.54 269.82 148.54 262.50 148.80 C 249.96 149.25 237.69 155.83 218.61 172.35 C 195.09 192.71 172.94 202.36 144.50 204.63 C 136.56 205.26 123.84 203.21 115.97 200.02 C 113.24 198.91 108.64 197.06 105.75 195.91 C 91.09 190.06 73.83 178.81 71.26 173.43 C 69.75 170.26 69.77 169.92 71.47 168.03 C 73.20 166.12 74.44 166.03 96.39 166.14 C 109.10 166.20 121.30 165.98 123.50 165.64 C 144.36 162.45 158.68 157.90 174.15 149.53 C 198.51 136.35 218.08 128.03 236.00 123.22 C 244.17 121.03 247.68 120.66 261.00 120.61 C 275.41 120.55 277.05 120.74 284.27 123.27 C 296.83 127.68 308.06 136.02 315.53 146.49 C 320.56 153.54 323.70 156.63 324.76 155.58 C 326.21 154.13 325.51 140.52 323.70 135.00 C 321.60 128.58 317.83 121.00 316.75 121.00 C 316.34 121.00 316.00 120.40 316.00 119.66 C 316.00 117.86 304.62 107.04 299.00 103.49 C 293.09 99.76 278.17 94.47 270.00 93.21 C 261.34 91.87 247.09 92.41 238.67 94.40 C 231.43 96.11 220.72 100.79 191.50 115.06 C 171.40 124.87 153.46 132.27 138.50 136.93 C 133.00 138.64 127.15 140.46 125.50 140.98 C 119.20 142.94 101.19 145.00 90.57 144.97 C 77.77 144.92 68.90 143.51 53.50 139.06 C 28.50 131.83 1.00 114.69 1.00 106.33 C 1.00 100.70 5.36 98.90 22.50 97.42 C 27.45 96.99 31.73 96.57 32.00 96.49 C 32.28 96.42 34.75 95.99 37.50 95.56 C 63.63 91.43 92.47 78.02 134.50 50.46 C 174.23 24.41 202.33 10.79 227.00 5.62 C 231.12 4.75 236.98 3.51 240.00 2.86 C 243.02 2.21 254.50 1.57 265.50 1.43 C 281.43 1.23 287.73 1.56 296.45 3.06 C 323.44 7.70 349.83 19.82 374.50 38.87 C 385.64 47.48 404.72 67.57 414.59 81.09 C 422.04 91.28 437.00 115.58 437.00 117.47 C 437.00 117.74 438.75 121.68 440.90 126.23 C 450.19 145.92 453.28 152.71 454.49 156.00 C 457.02 162.93 475.29 200.75 481.29 211.50 C 484.11 216.54 488.59 223.49 498.00 237.40 C 498.83 238.62 502.42 243.16 506.00 247.47 C 509.58 251.79 512.35 255.81 512.17 256.41 C 511.98 257.01 512.16 257.17 512.56 256.77 C 512.96 256.38 516.02 258.58 519.36 261.67 C 537.20 278.19 553.60 287.76 578.89 296.43 C 598.84 303.26 617.95 307.03 650.50 310.56 C 660.06 311.60 663.82 315.30 660.48 320.39 C 658.43 323.52 642.59 333.15 632.89 337.16 C 617.90 343.36 598.86 348.72 584.00 350.93 C 579.88 351.54 574.92 352.31 573.00 352.62 C 568.72 353.33 517.25 353.92 511.00 353.34 Z M 533.45 314.15 C 532.93 313.68 528.00 310.00 522.50 305.97 C 500.65 289.95 474.30 265.37 461.88 249.43 C 455.54 241.29 444.64 225.30 440.29 217.75 C 432.20 203.70 426.92 192.94 427.59 191.85 C 428.02 191.17 427.87 190.96 427.25 191.35 C 426.64 191.73 425.33 190.19 424.19 187.75 C 423.10 185.41 420.40 179.68 418.21 175.00 C 412.13 162.06 408.98 155.00 406.83 149.50 C 403.61 141.29 392.32 120.40 386.07 111.11 C 366.25 81.62 342.88 60.35 315.13 46.53 C 302.79 40.38 299.18 39.08 284.40 35.44 C 267.81 31.36 245.13 31.63 226.00 36.14 C 212.09 39.41 188.81 49.30 174.15 58.16 C 170.65 60.27 167.66 62.00 167.50 62.00 C 167.33 62.00 164.34 63.78 160.85 65.96 C 154.44 69.95 151.86 71.53 135.50 81.48 C 124.67 88.07 110.21 95.58 100.00 99.93 C 95.88 101.68 91.60 103.51 90.50 104.00 C 89.40 104.48 85.47 105.86 81.76 107.07 C 67.69 111.65 72.61 114.01 92.47 112.21 C 116.23 110.06 129.89 105.23 176.14 82.62 C 185.85 77.88 194.17 74.00 194.64 74.00 C 195.11 74.00 197.30 73.12 199.50 72.04 C 203.81 69.93 214.01 66.30 223.23 63.59 C 232.30 60.93 251.45 58.87 261.00 59.53 C 284.08 61.12 299.93 66.42 319.00 78.92 C 328.08 84.87 346.28 102.29 354.08 112.50 C 368.34 131.16 386.18 162.06 399.39 191.00 C 403.16 199.27 412.07 214.14 423.29 230.91 C 426.39 235.54 428.64 239.77 428.31 240.32 C 427.97 240.86 428.17 241.01 428.76 240.65 C 429.37 240.27 432.10 243.13 435.08 247.24 C 437.97 251.23 440.59 254.73 440.92 255.00 C 441.24 255.27 443.02 257.30 444.88 259.50 C 468.74 287.75 496.13 305.98 525.38 313.07 C 534.05 315.17 534.68 315.25 533.45 314.15 Z M 438.92 308.75 C 437.71 306.96 430.10 298.75 422.01 290.50 C 413.93 282.25 401.49 268.98 394.37 261.00 C 372.40 236.39 360.46 226.09 346.00 219.28 C 341.88 217.34 337.78 215.40 336.90 214.96 C 336.03 214.53 331.01 213.25 325.76 212.11 C 313.94 209.55 304.05 209.99 293.42 213.56 C 289.30 214.94 285.42 215.76 284.81 215.38 C 284.17 214.98 283.97 215.14 284.35 215.75 C 284.72 216.35 282.54 218.20 279.27 220.04 C 270.84 224.80 261.59 234.51 257.82 242.57 C 255.18 248.22 254.68 250.44 254.72 256.54 C 254.76 262.72 255.24 264.67 257.97 269.78 C 261.55 276.51 266.26 281.57 267.96 280.53 C 268.58 280.14 268.79 278.92 268.44 277.81 C 266.87 272.86 266.29 264.10 267.19 259.05 C 271.46 235.35 306.80 224.32 334.26 238.12 C 346.63 244.34 363.49 257.36 386.74 278.66 C 388.03 279.84 390.94 282.32 393.21 284.16 C 395.47 286.00 400.27 289.91 403.86 292.84 C 417.16 303.72 431.58 311.70 438.32 311.91 L 441.14 312.00 L 438.92 308.75 Z M 327.66 146.75 C 327.38 146.06 327.16 146.62 327.16 148.00 C 327.16 149.38 327.38 149.94 327.66 149.25 C 327.94 148.56 327.94 147.44 327.66 146.75 Z M 634.00 295.22 C 628.82 294.81 605.90 290.19 600.33 288.43 C 597.67 287.59 594.38 286.69 593.00 286.42 C 591.62 286.16 586.22 284.32 581.00 282.34 C 551.64 271.22 528.01 253.37 511.99 230.19 C 505.74 221.14 503.72 217.18 504.42 215.36 C 504.73 214.54 504.54 214.16 503.99 214.51 C 502.77 215.26 500.73 210.25 501.65 208.76 C 502.02 208.16 501.84 207.98 501.24 208.35 C 499.84 209.22 494.72 193.40 492.47 181.29 C 490.12 168.61 490.80 142.39 493.81 129.45 C 498.26 110.33 508.50 87.15 517.86 75.00 C 519.34 73.07 521.29 70.38 522.18 69.00 C 524.54 65.38 540.65 49.08 546.50 44.41 C 564.82 29.78 588.59 19.10 613.50 14.31 C 624.72 12.15 657.87 11.86 668.50 13.82 C 688.74 17.56 706.09 22.59 716.28 27.68 C 726.88 32.96 742.58 43.71 776.00 68.58 C 797.11 84.29 814.15 95.45 823.37 99.62 C 825.09 100.39 827.17 101.43 828.00 101.93 C 828.83 102.43 831.92 103.81 834.88 105.00 C 855.30 113.23 873.29 116.55 899.50 116.91 C 917.19 117.16 920.00 117.95 920.00 122.68 C 920.00 126.76 912.87 135.85 904.07 143.00 C 901.70 144.93 899.24 147.00 898.59 147.61 C 896.09 149.99 880.21 159.45 873.53 162.55 C 851.46 172.80 834.09 178.71 807.00 185.18 C 787.44 189.85 768.42 190.13 753.50 185.97 C 751.85 185.51 748.47 184.60 746.00 183.95 C 743.53 183.30 740.60 182.44 739.50 182.03 C 724.99 176.65 701.94 174.86 690.91 178.25 C 672.91 183.77 666.15 207.58 678.25 222.80 C 684.69 230.90 695.37 237.16 705.27 238.63 C 707.34 238.93 710.16 239.48 711.54 239.85 C 715.30 240.86 737.02 239.31 743.82 237.55 C 761.79 232.89 764.66 238.39 752.64 254.50 C 742.60 267.97 723.90 279.95 701.22 287.45 C 696.66 288.95 692.27 289.93 691.47 289.63 C 690.66 289.32 690.00 289.47 690.00 289.96 C 690.00 291.16 680.38 293.12 665.03 295.05 C 657.56 295.99 644.52 296.06 634.00 295.22 Z M 667.50 252.00 C 665.85 250.86 661.12 248.14 657.00 245.96 C 648.11 241.25 642.07 235.81 635.90 226.97 C 628.90 216.94 626.31 209.81 625.37 198.00 C 623.63 176.16 635.68 156.40 657.50 145.30 C 664.51 141.73 666.33 141.10 674.50 139.44 C 691.69 135.94 708.98 136.64 723.16 141.42 C 731.40 144.20 731.87 143.20 725.25 136.90 C 719.08 131.03 714.26 127.89 704.76 123.58 C 683.29 113.82 663.97 113.85 642.14 123.66 C 624.76 131.48 608.48 149.33 602.16 167.50 C 594.36 189.92 600.68 218.13 617.07 234.00 C 620.76 237.58 626.64 242.19 630.13 244.26 C 636.14 247.81 638.22 248.69 648.90 252.18 C 651.32 252.97 657.17 253.72 661.90 253.85 L 670.50 254.08 L 667.50 252.00 Z M 565.02 233.05 C 548.91 201.12 548.57 166.75 564.07 134.58 C 570.87 120.47 585.37 104.04 599.50 94.46 C 616.31 83.05 638.97 75.69 659.00 75.12 C 684.24 74.40 706.69 82.07 736.69 101.66 C 741.54 104.83 746.59 108.01 747.92 108.74 C 749.26 109.47 752.52 111.62 755.18 113.53 C 757.83 115.44 760.19 117.00 760.42 117.00 C 760.65 117.00 764.13 118.93 768.17 121.30 C 780.51 128.54 792.84 133.77 802.97 136.09 C 815.11 138.86 842.97 140.38 846.11 138.43 C 847.45 137.60 845.43 135.26 842.66 134.44 C 838.00 133.05 814.72 120.87 801.96 113.12 C 786.46 103.72 772.55 94.17 747.16 75.50 C 722.41 57.30 711.63 52.12 686.50 46.35 C 672.79 43.20 654.02 42.46 639.50 44.50 C 607.58 48.97 579.32 64.85 561.64 88.26 C 556.94 94.48 547.64 110.55 545.29 116.50 C 543.98 119.80 542.52 123.40 542.03 124.50 C 537.44 134.83 534.50 151.45 534.50 167.00 C 534.50 186.79 537.65 199.75 545.94 214.14 C 548.18 218.01 549.71 221.66 549.35 222.25 C 548.97 222.85 549.16 223.02 549.80 222.63 C 551.08 221.83 553.27 225.36 552.21 226.53 C 551.82 226.96 551.96 227.06 552.51 226.75 C 553.07 226.43 556.41 229.06 559.93 232.59 C 563.46 236.11 566.72 239.00 567.19 239.00 C 567.65 239.00 566.68 236.32 565.02 233.05 Z" stroke-linecap="round"/>
</g>
</g>
</g>
<g style="" id="117368a2-f10f-4e54-9dff-493312e80c19">
<g style=""><path d="M-61.45914 0.75034C-59.80746 1.53345 -57.82915 4.16440 -55.81302 5.64720C-53.07209 6.81346 -49.50075 6.86455 -48.20118 4.31186C-45.19911 -1.62791 -52.87680 -13.85939 -46.95820 -23.94330C-42.93011 -30.80140 -35.25452 -34.27549 -28.40613 -30.79556C-23.46473 -28.66351 -21.72823 -24.17001 -24.07953 -18.55420C-24.29472 -18.06615 -25.51760 -16.40578 -26.73070 -16.28306C-27.70147 -16.64687 -29.27015 -19.47449 -30.69182 -20.05831C-33.11151 -21.09744 -35.00360 -20.76136 -36.14564 -18.48291C-40.77079 -9.30520 -31.84384 1.26982 -35.79255 10.59734C-39.23786 18.57406 -49.42734 20.88164 -59.13484 17.14559C-62.16367 15.90736 -69.58274 12.09534 -67.70658 8.93997L-62.81223 0.70857C-62.52673 0.22841 -62.03476 0.47114 -61.45914 0.75034Z" fill="rgb(255, 233, 113)" transform="matrix(2.314215 0 0 2.314215 612.413495 459.71008)"/><path d="M-33.05102 14.21613C-32.51899 12.87431 -31.54784 10.40019 -30.34388 7.28424L-22.29502 -13.85055C-21.14458 -16.98328 -20.13657 -19.52448 -19.62728 -20.79322L-17.96234 -25.03304L-16.88791 -25.16144L-7.92313 -22.74310L-7.28641 -21.60341C-8.64637 -17.26182 -14.66028 1.51445 -16.05393 5.84409C-16.36940 6.77861 -17.65879 12.68233 -18.13702 14.12235C-18.61264 15.56283 -18.79357 18.15691 -16.46511 18.67109C-14.60058 19.05239 -12.22838 17.42470 -11.79543 15.96804L-1.49397 -20.58512L-0.20672 -21.39958L8.96595 -20.73202C9.94025 -20.70935 9.69086 -19.22370 9.61289 -18.77803C9.49212 -18.25883 9.31435 -17.29340 9.31435 -17.29340C9.02440 -15.80843 8.47589 -13.06126 7.72080 -9.64667L2.46729 13.23269C1.64633 16.64943 1.03474 19.39829 0.70267 20.88401C-2.77143 27.70731 -10.34878 31.48493 -19.27460 29.88887C-29.40696 27.38071 -34.09467 21.82807 -33.05102 14.21613Z" fill="rgb(255, 233, 113)" transform="matrix(2.314215 0 0 2.314215 612.413495 459.71008)"/><path d="M12.97837 -19.15725C13.09287 -19.67618 13.26463 -20.64068 14.22907 -20.62314L31.31729 -20.45491C38.59986 -20.44911 40.40722 -11.00480 40.33430 -5.45741C40.25562 -0.51056 35.75193 3.47679 35.56559 7.96062L35.52812 8.93203C37.10793 13.97109 41.65728 23.05580 43.47810 29.10350C43.47810 29.10350 43.47437 29.55366 43.46952 30.07892C43.46952 30.07892 43.45923 31.57952 42.86712 31.56277L31.84646 31.27240C26.05129 31.13798 26.59897 12.29249 23.05446 12.23453C21.92739 12.21649 21.19409 13.17245 21.12306 13.69228L19.09040 30.02979L17.70746 30.97247L5.42224 30.81330L4.26650 30.28507C4.26650 30.28507 10.27779 -3.87018 12.92196 -18.71166L12.97837 -19.15725ZM25.45593 -10.58716C24.93178 -10.59251 23.79786 -9.63709 23.75585 -9.11675L22.83288 -0.71957C22.69575 0.32053 23.25293 0.32810 24.33932 0.34242C25.42351 0.35679 27.10335 -0.14301 27.24345 -1.63115L27.81294 -8.10625C27.88928 -9.07393 26.46366 -10.57719 25.45593 -10.58716Z" fill="rgb(255, 233, 113)" transform="matrix(2.314215 0 0 2.314215 612.413495 459.71008)"/><path d="M47.00998 -20.48163L65.49946 -20.68811C66.00965 -20.69679 67.18420 -19.17533 67.25066 -18.71378C67.32819 -18.17530 67.62696 -16.09832 67.62696 -16.09832C67.99050 -13.55975 68.20137 -13.02247 67.75053 -11.47928L67.35296 -11.01535L60.63101 -10.98940L59.77748 -9.46277L60.16464 -5.34760C60.35626 -3.36674 66.04609 -4.87254 66.30707 -2.80293L67.28479 4.86257C67.53579 6.93198 61.18494 5.32008 61.36590 7.30079L63.58306 31.21853L62.33867 32.16376L48.20385 31.71725Z" fill="rgb(255, 233, 113)" transform="matrix(2.314215 0 0 2.314215 612.413495 459.71008)"/></g></g>
<g style="" id="5ee2ad30-ff90-4ea9-bd60-3280a69d3926">
<g style=""><path d="M-96.30043 25.01250C-99.75935 10.27280 -84.68201 -47.57260 -73.60525 -44.92128C-70.27595 -44.16856 -66.37234 -40.78385 -65.45806 -36.28215L-65.05769 -34.32686C-64.26309 -25.31693 -64.15059 -17.10925 -62.26430 -7.91286C-61.46852 -4.00285 -59.38281 -1.39883 -58.63715 2.45832C-57.97601 5.73641 -60.91773 6.29138 -60.77172 9.61950C-60.42558 13.54334 -56.07655 27.63382 -60.44470 28.11543C-64.35615 28.59341 -68.24387 26.35382 -69.40891 20.78646C-70.32766 16.65631 -70.73716 12.48644 -71.46965 9.07922C-72.17305 5.67564 -73.88129 4.93576 -76.35787 4.93504C-95.12960 5.17359 -83.25321 31.59244 -88.77494 32.71241C-91.09626 33.22947 -95.34923 29.06592 -96.30043 25.01250ZM-82.19142 -7.99804C-81.77829 -6.05427 -80.20425 -5.75587 -79.20162 -5.69829C-78.11285 -5.63774 -74.71405 -6.16244 -74.19893 -6.13501C-70.97565 -9.95647 -73.43105 -19.48771 -74.74780 -25.63586L-76.34530 -25.88061C-77.92043 -26.12321 -82.84738 -10.91594 -82.19142 -7.99804Z" fill="rgb(255, 233, 113)" transform="matrix(4.277866 0 0 4.277866 414.117008 265.203624)"/><path d="M-33.43532 17.80635C-34.93482 9.05462 -28.72809 2.28521 -30.07081 -5.74552C-30.24724 -6.95792 -30.89294 -7.51159 -31.95168 -7.57618L-33.08215 -7.64516C-40.09592 0.10054 -43.01933 12.57157 -46.03210 23.65489C-46.66086 25.56497 -47.52634 26.28565 -48.98987 26.39787C-50.96767 26.56582 -53.76897 24.88072 -54.29001 22.30903C-55.05906 18.48954 -54.16969 15.28485 -53.78758 12.02773C-53.60086 10.41981 -53.19538 6.27031 -52.68532 1.59851L-51.61892 -7.96569C-51.08316 -12.49921 -50.57157 -16.45315 -50.30943 -17.96746C-50.10203 -19.75273 -48.70666 -20.85307 -47.08277 -20.65908C-45.44359 -20.47078 -41.44596 -18.79663 -41.02190 -16.46903C-40.37594 -12.89303 -42.38700 -9.52450 -41.62576 -5.30073C-36.82375 -5.01012 -34.82137 -18.14224 -26.64491 -17.46033C-22.78194 -17.19391 -19.61367 -14.23374 -19.02331 -10.26196C-17.85308 -2.41886 -24.41759 3.01774 -23.19989 10.93205C-22.94969 12.63266 -21.13058 14.33415 -19.58313 14.34287C-12.35196 14.38733 -12.15471 -0.02572 -7.36012 0.02549C-5.79965 0.02767 -5.11661 0.52645 -4.91641 2.18855C-3.94549 10.50219 -16.37463 26.09250 -24.45071 26.24934C-28.95134 26.39305 -32.54599 23.03776 -33.43532 17.80635Z" fill="rgb(255, 233, 113)" transform="matrix(4.277866 0 0 4.277866 414.117008 265.203624)"/><path d="M-12.31785 42.73250C-12.81071 38.82307 -12.55235 36.64872 -10.40125 34.36992C-8.54508 33.27567 0.39039 29.44296 2.31519 28.40545C3.25361 27.84695 8.99916 25.78279 8.71407 22.40067C8.68931 21.89798 8.20146 21.87757 7.71148 21.86398C5.66809 21.80360 3.86904 23.43156 1.83441 23.38415C-5.17494 23.30017 -8.65009 16.06525 -9.41008 9.99183C-11.08501 -2.83999 -2.99403 -16.10451 10.13887 -16.32581C18.36278 -16.58389 23.66185 -9.86685 24.12132 -1.72418C24.29786 2.88114 22.93609 6.33439 23.20142 10.93911L24.25042 10.97186C27.78612 11.08491 28.90020 0.01307 34.15053 0.03657C35.18876 0.03713 35.78148 1.20466 35.76194 2.36831C36.03024 12.65709 20.31692 22.93593 16.26649 30.16349C11.00518 38.90809 8.20026 53.31385 -3.48338 52.67030C-8.27460 52.64357 -11.72824 47.71899 -12.31785 42.73250ZM1.23448 11.69588C1.84367 13.36965 2.96416 13.88344 4.51526 13.90617C11.62277 14.04871 16.42310 1.71437 15.88822 -5.69619C15.72220 -7.99064 14.05960 -8.47312 11.97407 -8.43920C3.85547 -8.33404 0.03831 0.52265 0.85827 8.35774C0.92519 8.85796 1.15775 11.11141 1.23448 11.69588ZM-3.45815 39.94310C-3.23542 41.61071 -2.79578 41.61834 -1.31824 41.65136C-0.31235 41.67938 1.50997 41.15761 1.42382 39.48518C1.27707 38.39426 0.30240 38.36375 -0.20738 38.34805C-1.65336 38.31223 -3.55039 38.27850 -3.45815 39.94310Z" fill="rgb(255, 233, 113)" transform="matrix(4.277866 0 0 4.277866 414.117008 265.203624)"/><path d="M31.07124 11.20367C30.57294 -3.51160 40.38077 -17.59706 53.89046 -18.39243C58.19785 -18.67506 63.54308 -17.06023 63.33982 -10.41930C62.93069 2.20389 52.05599 8.33222 44.39522 10.55874Q43.34346 11.16356 43.29855 12.36182C43.33869 15.42345 47.44010 16.33497 49.38351 16.47342C59.86506 17.26183 67.62695 0.25801 71.18432 0.29607C72.61800 0.31351 73.21420 1.04724 73.11381 3.02287C67.32930 17.88812 58.51534 30.32269 46.28093 28.77808C38.00894 27.88326 31.39846 21.36306 31.07124 11.20367ZM41.70499 2.44656C41.73436 4.28316 41.75045 5.56965 43.29017 5.60738C47.43546 5.71402 53.72562 -1.20427 53.78314 -6.28114C53.80055 -8.19277 52.19307 -8.81285 50.63682 -8.77549C45.86090 -8.64805 41.66476 -2.41278 41.70499 2.44656Z" fill="rgb(255, 233, 113)" transform="matrix(4.277866 0 0 4.277866 414.117008 265.203624)"/><path d="M66.91100 17.13250C67.85968 -5.21696 78.07458 -29.07930 87.60975 -50.35063C88.21253 -51.86923 89.91316 -52.23615 91.09626 -52.49434C93.92947 -53.12293 97.16553 -52.41487 96.77188 -47.87447C96.64391 -46.39886 96.57499 -45.60430 95.87995 -44.02136C89.77891 -28.28681 78.20048 -3.86702 77.13505 13.76259C76.97522 16.63742 77.31843 18.05769 79.31093 18.24865C86.17595 18.93011 87.58472 0.50478 93.67414 0.61216C94.73048 0.63165 95.05628 2.13452 94.92428 3.62912C93.83780 15.93088 81.74996 33.24434 73.53673 31.89490C68.26289 31.09294 66.61713 23.96601 66.91100 17.13250Z" fill="rgb(255, 233, 113)" transform="matrix(4.277866 0 0 4.277866 414.117008 265.203624)"/></g></g>

  </svg>