<svg xmlns="http://www.w3.org/2000/svg" xmlns:xlink="http://www.w3.org/1999/xlink" width="935px" height="359px" viewBox="0 0 934.8140288532741 358.58568257226034">
    <g id="b41bd706-bfd7-4154-b6c8-f075fc4bf0a5">
<g style="">
		<g id="b41bd706-bfd7-4154-b6c8-f075fc4bf0a5-child-0">
<path style="stroke: rgb(193,193,193); stroke-width: 0; stroke-dasharray: none; stroke-linecap: butt; stroke-dashoffset: 0; stroke-linejoin: miter; stroke-miterlimit: 4; fill: rgb(255,228,191); fill-rule: nonzero; opacity: 1;" transform="matrix(1.090306 0 0 1.089965 467.406828 179.292841) matrix(1 0 0 1 0 0)  translate(-429.950524, -165.644259)" d="M 545.50 329.89 C 494.30 325.95 481.62 320.74 408.72 273.67 C 403.88 270.55 399.76 268.00 399.55 268.00 C 399.34 268.00 395.87 266.08 391.83 263.73 C 385.72 260.17 371.53 253.55 362.28 249.94 C 354.41 246.86 342.33 244.96 330.77 244.97 C 324.02 244.98 316.70 245.20 314.50 245.47 C 312.30 245.73 295.65 246.23 277.50 246.56 C 259.35 246.89 242.81 247.60 240.74 248.12 C 238.68 248.65 235.41 250.65 233.49 252.58 C 230.37 255.70 223.63 268.42 218.43 281.00 C 214.09 291.51 204.58 308.78 201.23 312.24 C 197.05 316.56 190.98 319.17 186.09 318.76 C 181.51 318.36 178.83 314.71 178.83 308.83 C 178.83 304.14 183.58 290.29 189.53 277.60 C 194.77 266.41 197.03 260.82 197.94 256.76 C 199.66 249.14 195.62 247.17 168.63 242.46 C 142.46 237.90 127.87 233.80 113.50 226.95 C 104.07 222.46 89.42 213.56 86.28 210.42 C 85.50 209.64 84.53 209.00 84.13 209.00 C 83.73 209.00 79.35 205.06 74.40 200.25 C 64.47 190.59 55.43 179.07 47.37 165.77 C 37.97 150.28 35.74 143.33 38.49 138.03 C 41.37 132.44 47.01 134.18 60.29 144.75 C 70.19 152.64 84.75 163.00 85.93 163.00 C 86.43 163.00 86.98 163.40 87.17 163.89 C 87.35 164.38 92.45 167.49 98.50 170.79 C 107.82 175.88 113.76 178.71 128.50 185.09 C 132.04 186.62 156.19 193.44 163.50 194.97 C 165.70 195.43 171.77 196.76 177.00 197.93 C 182.23 199.10 192.10 201.18 198.94 202.55 C 213.28 205.42 227.06 208.67 230.28 209.95 C 239.90 213.77 272.01 221.00 279.33 221.00 C 283.11 221.00 283.28 220.89 281.47 219.63 C 280.39 218.87 276.12 216.45 272.00 214.26 C 267.88 212.06 258.54 206.62 251.26 202.17 C 225.24 186.25 213.11 181.82 170.00 172.52 C 142.85 166.66 131.71 163.04 115.50 154.81 C 86.24 139.95 59.23 119.61 38.00 96.43 C 21.66 78.60 8.89 57.79 3.67 40.50 C -2.99 18.44 4.71 10.68 19.74 24.31 C 33.96 37.20 38.95 40.84 52.00 47.80 C 73.48 59.26 100.47 64.83 142.50 66.47 C 181.61 68.00 184.59 68.22 209.37 71.51 C 216.08 72.39 229.11 75.98 240.46 80.06 C 251.20 83.92 255.42 84.71 257.58 83.23 C 259.23 82.11 264.00 74.70 264.00 73.26 C 264.00 72.08 267.31 63.10 273.69 47.00 C 280.09 30.83 286.73 20.02 295.61 11.32 C 302.52 4.55 308.48 1.89 318.13 1.26 C 340.26 -0.19 352.50 12.50 367.04 52.00 C 368.76 56.67 373.05 67.95 376.58 77.06 C 380.11 86.17 383.00 94.07 383.00 94.63 C 383.00 95.18 384.12 97.96 385.50 100.81 C 386.88 103.66 388.00 106.30 388.00 106.68 C 388.00 107.05 389.41 110.99 391.14 115.43 C 392.87 119.87 394.60 124.40 395.00 125.50 C 395.39 126.60 396.68 129.46 397.86 131.84 C 399.04 134.23 400.00 136.81 400.00 137.57 C 400.00 138.33 400.86 140.87 401.92 143.22 C 405.82 151.89 407.00 154.83 407.00 155.82 C 407.00 156.38 407.66 158.11 408.47 159.67 C 410.34 163.25 412.11 167.45 416.00 177.50 C 417.70 181.90 419.72 186.85 420.47 188.50 C 421.23 190.15 422.84 194.20 424.05 197.50 C 446.05 257.39 492.79 289.78 557.74 290.17 C 569.67 290.24 587.32 288.30 594.75 286.10 C 596.54 285.57 598.00 285.42 598.00 285.77 C 598.00 286.12 598.54 285.86 599.20 285.20 C 599.86 284.54 601.10 284.00 601.95 283.99 C 604.65 283.97 621.71 274.65 625.72 271.00 C 627.83 269.08 630.39 265.75 631.40 263.61 C 633.51 259.12 633.80 251.39 631.98 247.90 C 627.52 239.30 616.90 229.63 604.79 223.13 C 601.66 221.45 598.28 219.61 597.29 219.05 C 588.62 214.12 566.01 206.53 545.00 201.49 C 536.79 199.52 524.77 194.92 514.62 189.86 C 485.40 175.30 463.84 149.03 457.90 120.75 C 450.26 84.35 464.17 48.08 494.30 25.77 C 503.76 18.77 509.70 15.70 522.90 10.99 C 538.35 5.48 552.79 3.59 573.50 4.35 C 605.13 5.52 627.23 14.06 666.39 40.24 C 667.43 40.93 669.45 42.44 670.89 43.58 C 673.96 46.03 692.44 59.23 708.31 70.31 C 756.94 104.24 794.88 117.76 831.00 114.00 C 837.33 113.34 844.75 112.61 847.50 112.37 C 860.57 111.23 862.36 120.50 851.72 134.14 C 840.65 148.32 825.47 158.87 805.56 166.23 C 796.29 169.65 793.98 170.28 781.00 172.94 C 767.56 175.69 760.34 176.35 745.50 176.19 C 722.83 175.94 710.82 174.37 690.21 168.93 C 673.56 164.54 648.85 153.96 639.01 147.02 C 631.46 141.70 614.86 132.66 608.44 130.38 C 602.48 128.27 599.78 127.84 594.40 128.19 C 588.24 128.58 587.49 128.89 584.37 132.29 C 580.13 136.92 580.06 139.97 584.01 147.65 C 588.48 156.35 598.78 165.40 614.79 174.71 C 628.82 182.87 644.09 192.48 648.05 195.64 C 652.14 198.90 665.00 212.06 665.00 212.97 C 665.00 213.46 665.65 214.51 666.45 215.31 C 669.45 218.31 675.33 230.40 677.13 237.26 C 683.39 261.08 672.68 283.86 646.42 302.60 C 639.83 307.29 617.68 319.00 615.37 319.00 C 614.60 319.00 613.19 319.43 612.24 319.96 C 609.59 321.42 594.49 325.64 585.41 327.45 C 575.12 329.51 555.85 330.68 545.50 329.89 Z M 399.00 222.50 C 399.00 220.86 396.93 216.83 392.78 210.37 C 387.82 202.65 385.06 201.79 361.00 200.48 C 341.42 199.41 328.09 196.25 316.03 189.80 C 303.77 183.25 292.36 172.70 281.00 157.43 C 268.46 140.58 253.08 124.41 243.70 118.23 C 232.95 111.15 216.22 105.10 203.00 103.52 C 199.98 103.15 196.15 102.68 194.50 102.46 C 192.85 102.24 180.25 101.83 166.50 101.55 C 112.81 100.46 102.14 99.60 79.86 94.61 C 76.56 93.87 75.68 95.62 78.15 98.00 C 80.01 99.78 90.54 108.28 96.50 112.80 C 109.13 122.37 134.45 132.87 157.50 138.09 C 162.45 139.21 169.20 140.74 172.50 141.49 C 175.80 142.24 181.20 143.37 184.50 143.99 C 187.80 144.62 192.75 145.74 195.50 146.49 C 198.25 147.24 201.85 148.07 203.50 148.33 C 210.91 149.51 226.83 154.29 234.31 157.57 C 243.25 161.50 262.22 172.12 271.12 178.17 C 274.21 180.28 277.10 182.00 277.54 182.00 C 277.98 182.00 279.05 182.62 279.92 183.37 C 280.79 184.13 284.20 186.22 287.50 188.04 C 290.80 189.85 295.08 192.20 297.00 193.26 C 302.64 196.38 307.25 198.70 311.00 200.28 C 312.92 201.10 316.08 202.48 318.00 203.35 C 324.10 206.10 340.11 209.75 351.45 210.96 C 357.47 211.60 362.65 212.29 362.97 212.48 C 363.28 212.68 365.56 213.13 368.02 213.49 C 373.38 214.28 384.41 217.90 392.00 221.37 C 398.56 224.37 399.00 224.44 399.00 222.50 Z M 570.00 179.09 C 570.00 178.60 566.90 175.89 563.11 173.09 C 555.13 167.17 547.69 159.37 541.97 150.95 C 534.28 139.63 530.90 129.32 531.13 117.84 C 531.30 108.78 533.80 102.91 540.32 96.21 C 553.01 83.17 580.83 79.98 606.00 88.68 C 620.13 93.56 626.99 97.24 651.50 113.00 C 681.21 132.12 691.82 137.66 707.36 142.18 C 720.84 146.10 739.50 148.14 756.79 147.57 C 770.77 147.11 775.95 146.28 775.98 144.50 C 776.00 143.41 774.28 142.83 757.00 138.04 C 726.64 129.63 709.10 119.94 670.00 90.00 C 616.08 48.72 598.68 40.53 566.00 41.11 C 540.14 41.56 518.87 49.45 506.55 63.16 C 498.15 72.49 493.00 85.95 493.00 98.53 C 493.00 104.17 495.56 119.17 496.99 121.86 C 497.47 122.76 498.86 125.75 500.08 128.50 C 508.49 147.45 526.73 165.46 545.00 172.88 C 548.03 174.10 551.40 175.53 552.50 176.05 C 555.32 177.37 565.07 179.86 567.75 179.93 C 568.99 179.97 570.00 179.59 570.00 179.09 Z M 364.58 168.00 C 365.91 168.00 367.95 167.05 369.11 165.89 C 371.80 163.20 371.25 157.96 367.08 146.50 C 365.48 142.10 363.38 136.25 362.40 133.50 C 361.42 130.75 358.75 123.55 356.46 117.50 C 354.17 111.45 349.48 99.07 346.04 90.00 C 342.61 80.93 337.59 67.95 334.90 61.16 C 332.20 54.37 330.00 48.38 330.00 47.85 C 330.00 46.23 325.87 37.61 324.14 35.61 C 321.22 32.26 316.93 30.98 313.87 32.57 C 311.68 33.70 305.00 42.72 305.00 44.55 C 305.00 44.83 301.85 51.59 298.00 59.57 C 294.15 67.55 291.00 74.65 291.00 75.34 C 291.00 76.03 290.62 77.03 290.16 77.55 C 287.97 80.02 283.99 94.28 283.83 100.25 C 283.61 108.07 284.99 110.63 296.07 123.00 C 315.29 144.46 330.17 157.47 342.89 163.95 C 347.61 166.35 358.66 169.11 360.83 168.42 C 361.56 168.19 363.25 168.00 364.58 168.00 Z" stroke-linecap="round"/>
</g>
</g>
</g>

  </svg>