<svg xmlns="http://www.w3.org/2000/svg" xmlns:xlink="http://www.w3.org/1999/xlink" width="724px" height="726px" viewBox="0 0 724.0442724335153 725.6718435309267">
    <g id="8eaf056f-9dc8-476d-bbd4-badf18d6f987">
<g style="">
		<g id="8eaf056f-9dc8-476d-bbd4-badf18d6f987-child-0">
<path style="stroke: rgb(193,193,193); stroke-width: 0; stroke-dasharray: none; stroke-linecap: butt; stroke-dashoffset: 0; stroke-linejoin: miter; stroke-miterlimit: 4; fill: rgb(210,182,27); fill-rule: nonzero; opacity: 1;" transform="matrix(1.279308 0 0 1.279301 362.022033 362.83583) matrix(1 0 0 1 0 0)  translate(-538.017299, -505.190107)" d="M 388.50 788.13 C 374.99 784.56 369.04 773.94 369.01 753.35 C 368.98 729.07 378.97 691.57 401.47 631.50 C 405.18 621.60 409.72 609.09 411.56 603.70 C 414.58 594.84 414.74 593.84 413.20 593.29 C 406.26 590.81 400.24 588.14 384.97 580.78 C 340.23 559.22 296.71 530.12 274.47 506.89 C 246.14 477.31 248.69 458.73 282.72 446.55 C 311.15 436.38 362.34 430.05 416.58 430.02 C 428.18 430.01 437.85 429.81 438.08 429.59 C 438.31 429.36 438.18 420.47 437.79 409.84 C 436.96 387.27 438.33 343.32 440.52 322.47 C 447.60 255.05 464.90 221.46 492.50 221.57 C 497.86 221.59 500.79 222.20 505.00 224.15 C 524.82 233.34 545.22 262.35 565.93 310.82 C 571.88 324.74 586.06 364.22 587.46 370.74 C 587.84 372.52 588.48 374.18 588.87 374.42 C 589.27 374.67 593.99 371.94 599.35 368.37 C 622.34 353.07 656.06 335.24 680.46 325.49 C 714.80 311.77 747.91 307.32 762.50 314.46 C 768.84 317.56 773.31 322.53 775.47 328.87 C 777.47 334.75 777.46 349.82 775.44 359.79 C 769.65 388.35 746.46 436.25 715.43 483.76 L 707.34 496.14 L 728.42 517.32 C 788.77 577.94 821.00 625.21 821.00 653.10 C 821.00 667.36 813.85 676.09 797.50 681.81 C 788.11 685.10 768.86 685.92 754.92 683.63 C 726.23 678.91 699.67 668.17 634.50 634.93 C 606.66 620.73 579.36 608.21 578.47 609.23 C 578.34 609.38 576.32 613.33 573.98 618.00 C 564.74 636.47 545.54 665.24 527.80 687.22 C 511.83 706.99 485.25 734.43 467.00 749.95 C 434.80 777.35 404.15 792.26 388.50 788.13 Z M 416.77 714.25 C 417.62 715.21 419.10 716.00 420.06 716.00 C 422.81 716.00 433.65 707.43 444.03 697.04 C 465.12 675.92 481.79 650.82 511.01 596.16 C 519.14 580.95 529.33 562.21 533.65 554.52 C 537.97 546.83 544.15 535.26 547.39 528.81 L 553.27 517.08 L 557.89 519.69 C 560.42 521.13 569.03 526.24 577.00 531.04 C 597.53 543.40 638.69 567.68 651.05 574.71 C 656.80 577.99 672.04 586.88 684.92 594.48 C 718.41 614.23 743.24 625.95 760.59 630.19 C 769.56 632.38 772.00 631.90 772.00 627.93 C 772.00 623.75 746.63 608.51 704.00 587.06 C 671.01 570.46 649.42 558.28 580.33 517.26 L 564.04 507.59 L 573.07 501.79 C 597.32 486.22 646.60 448.64 688.00 414.14 C 716.60 390.32 722.78 384.23 726.93 375.80 C 730.36 368.82 730.23 366.35 726.36 365.38 C 723.08 364.55 718.92 367.47 705.50 380.00 C 699.45 385.65 689.55 394.54 683.50 399.76 C 670.34 411.12 613.54 456.88 597.14 469.34 C 585.05 478.53 557.60 498.00 556.75 498.00 C 556.48 498.00 555.95 495.19 555.58 491.75 C 552.39 462.30 540.41 402.87 530.45 367.00 C 527.93 357.92 523.68 342.62 521.02 333.00 C 517.02 318.59 511.63 300.75 503.86 276.21 C 502.47 271.81 499.10 269.63 495.70 270.93 C 490.64 272.85 490.67 274.45 496.09 292.63 C 498.85 301.91 502.02 313.33 503.12 318.00 C 504.22 322.67 508.88 340.67 513.46 358.00 C 518.05 375.33 523.46 396.48 525.49 405.00 C 527.52 413.52 531.15 428.78 533.56 438.91 C 537.29 454.55 545.00 496.60 545.00 501.31 C 545.00 502.59 543.99 502.54 537.75 500.92 C 525.24 497.67 499.48 494.15 472.50 492.00 C 458.20 490.86 433.00 488.60 416.50 486.99 C 380.67 483.50 351.00 481.33 326.44 480.40 C 306.69 479.66 304.00 480.15 304.00 484.51 C 304.00 489.07 306.70 489.67 333.00 490.91 C 363.66 492.36 394.24 494.94 441.00 500.03 C 474.52 503.68 538.97 511.90 539.89 512.64 C 540.11 512.81 537.51 516.54 534.12 520.93 C 525.59 531.95 517.93 545.17 504.48 572.03 C 474.87 631.22 455.67 661.27 426.64 693.84 C 413.22 708.90 412.82 709.74 416.77 714.25 Z" stroke-linecap="round"/>
</g>
		<g id="8eaf056f-9dc8-476d-bbd4-badf18d6f987-child-1">
<path style="stroke: rgb(193,193,193); stroke-width: 0; stroke-dasharray: none; stroke-linecap: butt; stroke-dashoffset: 0; stroke-linejoin: miter; stroke-miterlimit: 4; fill: none; fill-rule: nonzero; opacity: 1;" transform="matrix(1.279308 0 0 1.279301 362.022033 362.83583) matrix(1 0 0 1 -0.017299 -11.911548)  translate(-538, -493.278559)" d="M 416.77 714.25 C 412.82 709.74 413.22 708.90 426.64 693.84 C 455.67 661.27 474.87 631.22 504.48 572.03 C 517.93 545.17 525.59 531.95 534.12 520.93 C 537.51 516.54 540.11 512.81 539.89 512.64 C 538.97 511.90 474.52 503.68 441.00 500.03 C 394.24 494.94 363.66 492.36 333.00 490.91 C 306.70 489.67 304.00 489.07 304.00 484.51 C 304.00 480.15 306.69 479.66 326.44 480.40 C 351.00 481.33 380.67 483.50 416.50 486.99 C 433.00 488.60 458.20 490.86 472.50 492.00 C 499.48 494.15 525.24 497.67 537.75 500.92 C 543.99 502.54 545.00 502.59 545.00 501.31 C 545.00 496.60 537.29 454.55 533.56 438.91 C 531.15 428.78 527.52 413.52 525.49 405.00 C 523.46 396.48 518.05 375.33 513.46 358.00 C 508.88 340.67 504.22 322.67 503.12 318.00 C 502.02 313.33 498.85 301.91 496.09 292.63 C 490.67 274.45 490.64 272.85 495.70 270.93 C 499.10 269.63 502.47 271.81 503.86 276.21 C 511.63 300.75 517.02 318.59 521.02 333.00 C 523.68 342.62 527.93 357.92 530.45 367.00 C 540.41 402.87 552.39 462.30 555.58 491.75 C 555.95 495.19 556.48 498.00 556.75 498.00 C 557.60 498.00 585.05 478.53 597.14 469.34 C 613.54 456.88 670.34 411.12 683.50 399.76 C 689.55 394.54 699.45 385.65 705.50 380.00 C 718.92 367.47 723.08 364.55 726.36 365.38 C 730.23 366.35 730.36 368.82 726.93 375.80 C 722.78 384.23 716.60 390.32 688.00 414.14 C 646.60 448.64 597.32 486.22 573.07 501.79 L 564.04 507.59 L 580.33 517.26 C 649.42 558.28 671.01 570.46 704.00 587.06 C 746.63 608.51 772.00 623.75 772.00 627.93 C 772.00 631.90 769.56 632.38 760.59 630.19 C 743.24 625.95 718.41 614.23 684.92 594.48 C 672.04 586.88 656.80 577.99 651.05 574.71 C 638.69 567.68 597.53 543.40 577.00 531.04 C 569.03 526.24 560.42 521.13 557.89 519.69 L 553.27 517.08 L 547.39 528.81 C 544.15 535.26 537.97 546.83 533.65 554.52 C 529.33 562.21 519.14 580.95 511.01 596.16 C 481.79 650.82 465.12 675.92 444.03 697.04 C 433.65 707.43 422.81 716.00 420.06 716.00 C 419.10 716.00 417.62 715.21 416.77 714.25 Z" stroke-linecap="round"/>
</g>
</g>
</g>

  </svg>