<svg xmlns="http://www.w3.org/2000/svg" xmlns:xlink="http://www.w3.org/1999/xlink" width="1697px" height="1327px" viewBox="0 0 1697.411070020129 1327.2557895699974">
    <g id="1db3154a-4b39-4f7c-a34e-9b669ad1874e">
<g style="">
		<g id="1db3154a-4b39-4f7c-a34e-9b669ad1874e-child-0">
<path style="stroke: rgb(193,193,193); stroke-width: 0; stroke-dasharray: none; stroke-linecap: butt; stroke-dashoffset: 0; stroke-linejoin: miter; stroke-miterlimit: 4; fill: rgb(39,168,44); fill-rule: nonzero; opacity: 1;" transform="matrix(5.307728 0 0 5.307685 848.705609 663.627859) matrix(1 0 0 1 0 0)  translate(-161.100018, -126.138405)" d="M 179.00 249.68 C 174.02 247.09 177.97 238.11 187.12 231.19 C 195.02 225.23 214.16 205.60 216.08 201.50 C 221.56 189.81 214.58 187.03 198.70 194.56 C 194.73 196.45 186.99 199.16 181.49 200.58 C 172.35 202.95 170.31 203.13 157.50 202.64 C 149.80 202.35 140.96 201.56 137.86 200.87 C 130.67 199.29 122.79 200.86 118.04 204.82 C 116.13 206.42 112.17 212.39 108.62 219.02 C 101.62 232.10 100.89 232.68 85.00 238.09 C 68.63 243.67 49.25 243.21 38.71 236.99 C 34.07 234.25 33.32 231.83 35.86 227.73 C 41.38 218.84 53.48 212.19 72.72 207.47 C 91.21 202.93 94.95 200.33 94.99 191.97 C 95.01 187.07 93.04 184.74 86.31 181.70 C 82.83 180.12 78.49 176.99 75.50 173.90 C 68.14 166.30 66.11 165.69 50.56 166.48 C 40.80 166.97 35.60 166.76 30.00 165.66 C 21.97 164.07 11.40 160.45 10.48 158.97 C 9.53 157.42 13.67 154.19 18.69 152.57 C 21.33 151.72 28.00 149.59 33.50 147.85 C 46.62 143.68 52.91 140.83 56.14 137.59 C 57.59 136.14 61.53 130.04 64.89 124.04 C 74.79 106.35 74.69 106.26 48.70 107.83 L 29.50 108.99 L 20.48 104.56 C 12.23 100.52 7.75 96.90 2.17 89.79 C -0.32 86.62 1.77 84.18 10.94 79.58 C 22.79 73.64 33.63 71.58 48.00 72.54 C 53.78 72.93 60.08 73.83 62.00 74.54 C 63.92 75.25 67.45 76.11 69.84 76.44 C 72.23 76.78 76.00 77.98 78.22 79.11 C 87.49 83.84 98.54 85.41 102.60 82.57 C 103.72 81.78 111.36 78.31 119.57 74.85 L 134.50 68.56 L 157.50 68.53 C 177.29 68.50 180.94 68.26 183.63 66.79 C 188.84 63.93 189.25 60.20 185.52 49.50 C 182.62 41.21 178.55 37.09 170.10 33.94 C 167.02 32.79 162.25 30.13 159.50 28.03 C 152.08 22.36 145.14 18.19 142.00 17.50 C 137.97 16.61 135.62 13.66 136.42 10.47 C 136.92 8.47 138.62 7.14 143.67 4.77 C 149.22 2.18 151.82 1.61 159.95 1.22 C 172.54 0.61 178.49 2.31 191.50 10.20 C 204.37 18.01 204.90 18.44 210.77 26.11 C 219.86 37.96 220.09 39.08 217.46 57.95 C 216.10 67.76 216.09 69.28 217.43 71.87 C 219.68 76.21 232.73 87.65 239.00 90.77 C 243.87 93.19 245.58 93.49 254.00 93.43 C 261.94 93.38 265.04 92.85 272.88 90.18 C 280.21 87.70 283.93 87.00 289.88 87.01 C 309.93 87.04 321.00 95.16 321.00 109.82 C 321.00 116.71 319.33 121.00 316.65 121.00 C 315.47 121.00 312.48 122.83 310.00 125.06 C 302.80 131.55 289.24 137.59 277.91 139.35 C 266.53 141.12 263.48 142.33 255.37 148.32 C 248.42 153.45 246.00 158.40 246.00 167.43 C 246.00 175.01 247.23 178.12 255.21 190.85 C 261.87 201.45 262.50 202.89 262.45 207.60 C 262.38 214.82 257.78 222.22 246.00 234.03 C 237.21 242.85 235.97 243.73 229.50 245.75 C 213.77 250.65 185.17 252.87 179.00 249.68 Z M 209.11 242.96 C 217.39 240.17 221.91 237.12 227.63 230.45 C 230.31 227.33 235.12 221.83 238.31 218.22 C 247.82 207.49 248.92 203.69 245.68 192.82 C 243.62 185.91 239.76 181.00 236.39 181.00 C 233.55 181.00 232.67 182.67 230.59 192.00 C 228.28 202.36 225.01 207.09 213.93 216.06 C 200.46 226.96 192.49 234.47 189.87 238.72 C 187.73 242.17 187.72 242.32 189.52 243.64 C 192.27 245.65 202.15 245.31 209.11 242.96 Z M 67.49 233.97 C 79.55 231.30 84.93 228.52 87.73 223.50 C 90.26 218.98 90.74 211.85 88.63 210.11 C 87.15 208.88 83.13 209.96 67.05 215.91 C 57.54 219.43 55.64 220.51 51.16 225.00 C 47.31 228.84 47.17 231.20 50.63 233.93 C 53.88 236.48 56.10 236.49 67.49 233.97 Z M 168.50 181.46 C 178.50 178.99 181.88 172.87 182.72 155.67 C 183.11 147.82 182.91 143.70 182.08 142.14 C 180.12 138.50 175.05 136.01 169.57 136.00 C 159.21 136.00 149.75 143.74 142.56 158.10 C 134.27 174.66 135.40 180.44 147.41 182.94 C 150.54 183.59 163.59 182.68 168.50 181.46 Z M 126.44 175.07 C 130.70 170.36 132.47 157.55 129.46 153.25 C 126.29 148.72 116.93 148.13 110.45 152.07 C 106.42 154.51 101.01 162.15 100.33 166.36 C 99.14 173.71 104.04 176.90 116.60 176.96 C 123.36 176.99 124.98 176.68 126.44 175.07 Z M 208.65 172.62 C 217.57 169.58 219.66 168.25 221.18 164.57 C 223.84 158.14 221.53 126.04 217.98 120.21 C 217.05 118.68 214.28 116.37 211.83 115.06 C 203.47 110.63 199.29 113.75 193.50 128.76 C 190.00 137.80 189.67 139.61 188.82 153.87 C 187.99 168.00 188.06 169.41 189.71 171.24 C 193.64 175.61 198.75 175.99 208.65 172.62 Z M 83.98 166.52 C 85.73 164.42 86.83 153.49 85.85 148.07 C 84.32 139.67 75.62 135.04 67.62 138.39 C 63.07 140.29 61.58 143.72 63.00 149.01 C 64.17 153.33 71.42 163.67 75.07 166.21 C 78.11 168.32 82.37 168.47 83.98 166.52 Z M 49.77 157.69 C 51.93 156.24 52.95 154.82 52.77 153.50 C 52.37 150.53 43.68 150.25 35.70 152.94 C 32.35 154.07 28.89 155.00 28.00 155.00 C 25.84 155.00 22.31 157.65 23.24 158.57 C 26.34 161.67 44.75 161.06 49.77 157.69 Z M 105.25 149.57 C 109.51 145.52 113.00 141.48 113.00 140.60 C 113.00 138.05 109.26 135.00 106.14 135.00 C 103.88 135.00 97.83 138.08 95.07 140.63 C 94.83 140.85 94.48 144.63 94.29 149.02 C 93.98 156.14 94.13 157.00 95.72 156.97 C 96.70 156.95 100.99 153.62 105.25 149.57 Z M 238.30 147.76 C 239.82 145.43 241.54 141.72 242.13 139.52 C 243.68 133.77 242.77 125.33 240.35 122.91 C 238.56 121.11 238.01 121.05 234.47 122.21 C 228.26 124.26 227.32 126.93 228.91 138.10 C 231.03 153.12 233.31 155.46 238.30 147.76 Z M 141.05 143.14 C 146.60 139.57 152.91 133.27 154.15 130.08 C 157.00 122.67 146.41 112.00 136.20 112.00 C 132.73 112.00 131.66 112.69 126.16 118.41 C 120.64 124.16 120.00 125.26 120.00 128.96 C 120.00 135.79 123.97 141.35 131.01 144.41 C 135.71 146.45 135.96 146.42 141.05 143.14 Z M 96.51 132.07 C 107.06 129.14 109.90 124.28 103.75 119.66 C 97.97 115.32 88.24 111.00 84.25 111.00 C 79.50 111.00 76.54 113.03 73.99 118.03 C 70.17 125.50 72.24 129.77 80.98 132.47 C 87.07 134.34 88.43 134.31 96.51 132.07 Z M 186.74 130.18 C 187.42 129.75 189.62 125.59 191.62 120.95 C 193.61 116.30 195.58 112.05 195.99 111.50 C 196.40 110.95 197.27 108.85 197.92 106.84 C 199.38 102.30 197.53 97.05 193.55 94.44 C 190.28 92.30 182.16 90.37 172.62 89.48 C 163.16 88.59 160.22 90.04 154.94 98.21 C 150.01 105.84 149.67 110.41 153.75 114.14 C 157.52 117.59 169.50 126.03 174.44 128.70 C 178.53 130.93 184.45 131.64 186.74 130.18 Z M 294.33 127.85 C 301.42 125.32 306.00 122.45 306.00 120.54 C 306.00 118.00 302.72 117.98 297.25 120.48 C 291.27 123.22 288.88 123.54 285.97 121.98 C 283.44 120.63 284.55 118.00 287.65 118.00 C 288.98 118.00 291.97 117.00 294.29 115.78 C 297.67 114.00 300.18 113.55 307.00 113.53 L 315.50 113.50 L 315.80 108.84 C 316.29 101.24 314.04 97.38 307.28 94.21 C 302.48 91.96 300.21 91.52 293.90 91.60 C 286.92 91.70 285.44 92.12 275.70 96.81 C 269.87 99.62 261.91 102.88 258.02 104.06 C 252.35 105.79 250.65 106.78 249.47 109.06 C 246.46 114.89 248.92 125.63 254.14 129.46 C 257.74 132.10 285.55 130.98 294.33 127.85 Z M 122.57 113.36 C 126.83 108.12 126.69 105.59 121.84 99.21 C 115.15 90.42 109.10 86.26 104.66 87.37 C 101.41 88.19 91.30 96.47 90.51 98.96 C 89.17 103.20 93.95 108.19 104.50 113.55 C 113.24 117.99 118.86 117.93 122.57 113.36 Z M 232.00 113.50 C 238.47 110.22 239.35 108.47 237.06 103.45 C 234.72 98.30 232.10 95.99 222.46 90.57 C 218.08 88.10 214.00 85.66 213.38 85.13 C 211.46 83.47 205.55 82.25 203.37 83.06 C 200.46 84.14 199.85 86.38 201.03 91.64 C 203.01 100.49 208.02 107.14 217.39 113.40 C 222.26 116.65 225.73 116.68 232.00 113.50 Z M 145.85 97.37 C 149.75 94.97 154.07 89.49 155.64 84.93 C 156.82 81.49 156.81 80.53 155.55 78.10 C 153.96 75.02 148.62 72.00 144.77 72.00 C 142.18 72.00 129.80 75.97 125.88 78.06 C 120.06 81.16 119.46 86.17 124.25 91.63 C 126.04 93.67 128.85 96.16 130.50 97.16 C 134.28 99.47 142.25 99.58 145.85 97.37 Z M 68.50 91.00 C 70.60 90.20 71.07 89.44 70.82 87.25 C 70.56 85.06 69.42 83.95 65.17 81.80 C 62.24 80.31 57.74 78.85 55.17 78.54 C 52.60 78.23 47.73 77.49 44.34 76.90 C 37.06 75.62 27.00 77.17 27.00 79.57 C 27.00 80.36 27.94 81.00 29.08 81.00 C 33.19 81.00 47.47 85.19 51.59 87.60 C 55.04 89.63 59.17 90.93 65.18 91.89 C 65.56 91.95 67.05 91.55 68.50 91.00 Z M 193.99 86.51 C 195.66 84.50 194.49 80.36 191.73 78.57 C 190.40 77.70 185.47 76.84 179.45 76.43 C 170.74 75.83 169.18 75.97 167.70 77.44 C 163.88 81.27 166.33 83.76 175.18 85.05 C 178.66 85.56 183.52 86.38 186.00 86.88 C 192.42 88.17 192.62 88.16 193.99 86.51 Z M 207.25 65.00 C 206.95 52.72 205.59 44.31 203.55 42.06 C 202.75 41.18 200.81 37.27 199.23 33.39 C 197.65 29.51 195.07 24.65 193.51 22.61 C 190.67 18.88 179.33 10.89 173.28 8.35 C 168.48 6.33 157.34 6.66 152.25 8.97 C 146.43 11.61 146.69 13.77 153.25 17.41 C 156.14 19.01 160.23 21.86 162.33 23.74 C 164.44 25.61 170.37 29.17 175.51 31.63 C 180.65 34.10 185.31 36.67 185.88 37.35 C 187.69 39.54 192.94 56.50 193.90 63.31 C 194.42 66.95 195.15 70.43 195.53 71.05 C 196.87 73.21 202.53 76.04 205.00 75.77 L 207.50 75.50 L 207.25 65.00 Z M 295.16 103.50 C 288.85 100.56 288.82 98.62 295.09 98.20 C 300.03 97.88 304.00 100.47 304.00 104.04 C 304.00 106.67 301.68 106.53 295.16 103.50 Z" stroke-linecap="round"/>
</g>
</g>
</g>

  </svg>