<svg xmlns="http://www.w3.org/2000/svg" xmlns:xlink="http://www.w3.org/1999/xlink" width="1827px" height="507px" viewBox="0 0 1826.8183414082978 506.88500062228195">
    <g id="13a4d2d7-ac2e-4d04-8603-e49266eb0bcf">
<g style="">
		<g id="13a4d2d7-ac2e-4d04-8603-e49266eb0bcf-child-0">
<path style="stroke: rgb(193,193,193); stroke-width: 0; stroke-dasharray: none; stroke-linecap: butt; stroke-dashoffset: 0; stroke-linejoin: miter; stroke-miterlimit: 4; fill: rgb(3,92,197); fill-rule: nonzero; opacity: 1;" transform="matrix(2.133634 0 0 2.133415 913.409291 253.442453) matrix(1 0 0 1 0 0)  translate(-441.78027, -142.751716)" d="M 199.00 261.02 C 190.48 260.55 163.02 259.67 138.00 259.05 C 48.48 256.85 22.48 254.39 16.03 247.53 L 13.68 245.03 L 15.90 231.77 C 20.37 205.09 22.97 186.37 22.99 180.82 C 23.00 176.08 23.32 175.03 24.94 174.52 C 26.00 174.18 34.21 174.04 43.19 174.20 L 59.50 174.50 L 66.00 171.40 C 80.84 164.31 88.23 155.35 112.53 114.95 C 137.85 72.86 149.61 58.24 169.10 44.69 C 191.74 28.94 224.23 20.82 247.57 25.08 C 271.70 29.49 294.71 48.66 305.05 72.97 C 320.94 110.29 313.44 153.69 287.87 172.52 C 278.47 179.44 274.62 180.50 258.98 180.50 C 245.71 180.50 245.35 180.44 238.74 177.19 C 230.57 173.17 220.20 163.30 216.53 156.06 C 214.68 152.42 213.77 148.70 213.36 143.22 C 212.35 129.46 215.32 126.85 226.85 131.37 C 238.73 136.03 249.03 134.29 255.90 126.46 C 262.86 118.53 262.76 102.73 255.70 95.17 C 245.61 84.36 223.05 81.79 206.14 89.53 C 191.86 96.07 179.66 112.31 173.79 132.58 C 171.77 139.57 171.51 142.62 171.54 158.50 C 171.58 175.32 171.76 177.03 174.28 184.58 C 177.44 194.05 183.13 203.29 188.60 207.87 C 194.24 212.58 207.26 218.55 216.50 220.67 C 228.17 223.34 253.73 223.11 267.84 220.20 C 305.31 212.49 331.40 195.02 357.04 160.50 C 366.95 147.15 371.64 139.59 384.00 116.97 C 405.91 76.91 412.00 67.94 426.86 53.79 C 449.34 32.40 469.39 25.03 505.14 25.01 C 539.44 24.98 560.81 31.53 575.50 46.55 C 583.84 55.07 588.15 61.99 592.74 74.23 C 597.58 87.09 599.22 96.45 599.22 111.00 C 599.22 134.22 593.23 148.60 576.50 165.58 C 560.68 181.64 546.70 188.22 528.00 188.40 C 515.20 188.52 508.68 186.74 499.79 180.68 C 483.69 169.71 473.64 145.06 476.81 124.33 C 478.21 115.18 483.10 104.59 487.33 101.54 L 490.16 99.50 L 492.94 102.61 C 495.08 105.01 495.96 107.38 496.81 113.07 C 498.92 127.31 506.24 136.28 516.91 137.71 C 524.97 138.80 535.48 132.55 539.14 124.51 C 545.15 111.27 535.84 94.46 517.45 85.38 C 511.12 82.25 508.82 81.62 503.59 81.62 C 496.20 81.62 492.56 82.93 484.64 88.39 C 476.18 94.24 468.83 103.67 461.95 117.50 C 454.19 133.11 450.77 145.88 450.81 159.17 C 450.89 182.54 460.09 197.65 480.21 207.43 C 493.91 214.09 502.63 216.09 520.71 216.71 C 537.38 217.29 546.41 216.35 561.38 212.46 C 593.79 204.03 607.91 191.75 636.06 147.50 C 641.31 139.25 648.96 127.21 653.05 120.74 C 683.48 72.67 710.53 46.93 743.50 34.70 C 758.90 28.99 771.66 26.97 792.66 26.91 C 807.84 26.87 808.25 26.93 814.63 29.91 C 840.45 42.00 857.24 73.10 857.33 109.00 C 857.36 123.61 855.21 133.01 849.21 144.42 C 839.82 162.28 817.93 177.45 796.14 181.18 C 789.81 182.27 788.03 182.21 782.39 180.73 C 773.79 178.48 767.76 174.81 760.50 167.44 C 747.99 154.73 737.89 131.51 739.96 120.22 C 741.07 114.16 745.41 107.58 750.53 104.19 C 755.34 101.00 761.54 99.40 764.92 100.48 C 767.60 101.32 768.49 106.47 767.10 112.98 C 765.46 120.62 765.75 124.33 768.29 128.10 C 771.22 132.46 774.92 134.20 781.15 134.15 C 795.21 134.04 806.14 120.52 804.73 104.98 C 804.45 101.87 803.52 97.97 802.66 96.31 C 800.09 91.34 792.36 84.48 785.28 80.89 C 779.77 78.09 777.26 77.44 770.87 77.15 C 755.96 76.47 747.62 82.95 735.73 104.45 C 730.22 114.41 723.16 131.23 721.47 138.41 C 717.09 156.98 721.92 173.87 735.53 187.58 C 748.40 200.54 765.14 206.76 784.41 205.74 C 803.97 204.70 833.60 197.20 850.77 188.94 C 856.41 186.22 862.40 184.00 864.07 184.00 C 866.63 184.00 867.35 184.59 868.67 187.75 C 869.98 190.87 870.13 194.03 869.58 206.50 C 868.35 233.97 866.88 241.39 862.14 243.92 C 853.47 248.56 751.76 252.19 715.50 249.16 C 690.81 247.09 633.64 245.75 596.99 246.38 C 565.67 246.91 502.07 250.22 470.50 252.95 C 448.96 254.81 443.86 255.04 389.50 256.53 C 359.25 257.36 322.80 258.71 308.50 259.54 C 276.46 261.38 219.81 262.15 199.00 261.02 Z" stroke-linecap="round"/>
</g>
</g>
</g>

  </svg>